<svg xmlns="http://www.w3.org/2000/svg" viewBox="0 0 500 500"><g id="freepik--background-complete--inject-535"><rect x="52.3997" y="78.5368" width="42.51" height="11.2459" style="fill:#f5f5f5;"></rect><rect x="412.58729" y="22.7544" width="42.51" height="11.2459" style="fill:#f5f5f5;"></rect><path d="M244.80839,133.9612c-.00439-.0044-.0087-.0733-.0131-.2043l-.0139-.5769c-.0076-.5292-.0182-1.2672-.0319-2.2132-.0171-1.9413-.0419-4.7324-.0729-8.2515l.1317,.1316c-9.70629,.0195-25.1426,.0503-42.5074,.0848,.0958-.0964-.2185,.2162,.21411-.2162v.3591l-.00011,.3613v.7211c-.0001,.4798-.0002,.9581-.0002,1.4346-.0003,.9532-.0005,1.8994-.001,2.838-.0011,1.877-.0024,3.7232-.0035,5.5316l-.2117-.2118c12.1049,.0383,22.6968,.072,30.2938,.0962,3.7841,.0256,6.8208,.0461,8.9418,.0604,1.0317,.0119,1.8396,.0211,2.41791,.0278,.26029,.0056,.46839,.0102,.63239,.0137,.1438,.0046,.2194,.009,.224,.0137,.0045,.0046-.062,.0091-.1968,.0137l-.6065,.0136c-.5673,.0067-1.36,.016-2.37209,.0279-2.10951,.0143-5.12951,.0348-8.893,.0603-7.634,.0241-18.27761,.0579-30.44151,.0963l-.2118,.0006-.0002-.2124c-.0012-1.8084-.0023-3.6546-.00349-5.5316-.00031-.9386-.00071-1.8848-.001-2.838-.00011-.4765-.00021-.9548-.00021-1.4346l-.0001-.7211v-.7204c.4334-.4334,.1217-.1201,.2192-.2168,17.3648,.0346,32.8012,.0654,42.5074,.0848l.1329,.0003-.001,.1315c-.0311,3.5524-.0558,6.37-.0729,8.3299-.0136,.9334-.02429,1.6615-.032,2.1837-.0055,.2271-.0101,.4092-.0138,.5536-.0044,.1229-.0087,.1831-.0131,.1787Z" style="fill:#e0e0e0;"></path><path d="M448.38379,115.8117c-.0045-.0044-.0087-.0733-.0132-.2044-.00359-.1506-.0081-.3401-.0138-.5768-.0076-.5292-.0182-1.2672-.0319-2.2132-.0171-1.9414-.04189-4.7325-.07289-8.2515l.13169,.1316c-9.7063,.0194-25.14269,.0503-42.5074,.0848,.0958-.0964-.2185,.2161,.2141-.2162v.359l-.0001,.3614v.7211l-.00029,1.4346c-.00021,.9532-.00051,1.8994-.00091,2.838-.00109,1.877-.0024,3.7232-.0035,5.5315l-.2117-.2118c12.1049,.0384,22.6968,.0721,30.2938,.0963,3.7841,.0255,6.8207,.046,8.9417,.0604,1.0317,.0119,1.8397,.0211,2.418,.0278l.6324,.0136c.1437,.0047,.2194,.0091,.224,.0138,.0045,.0045-.0621,.0091-.1969,.0137-.1571,.0035-.3568,.0079-.6065,.0136-.5672,.0066-1.3599,.0159-2.3721,.0278-2.1094,.0144-5.1294,.0349-8.8929,.0604-7.6341,.0241-18.2777,.0578-30.4415,.0963l-.2118,.0006-.0002-.2125c-.0013-1.8083-.0024-3.6545-.0036-5.5315-.0002-.9386-.0007-1.8848-.0009-2.838l-.0003-1.4346-.00009-.7211v-.7204c.43349-.4335,.12169-.1201,.21929-.2169,17.36471,.0346,32.8011,.0655,42.5074,.0849l.1329,.0003-.001,.1315c-.0311,3.5524-.0558,6.3699-.0729,8.3299-.0136,.9334-.0243,1.6615-.032,2.1836-.0056,.2272-.0102,.4092-.0138,.5537-.0044,.1229-.0088,.1831-.0131,.1787Z" style="fill:#e0e0e0;"></path><g><rect x="154.36269" y="30.1872" width="42.51" height="11.2459" style="fill:#ebebeb;"></rect><path d="M178.89739,53.2785c-.00439-.0045-.0087-.0734-.0132-.2044-.0035-.1506-.0081-.3402-.0138-.5768-.0076-.5293-.0182-1.2673-.0319-2.2133-.0171-1.9413-.0419-4.7324-.0729-8.2515l.1317,.1317c-9.70629,.0194-25.1426,.0502-42.5074,.0848,.0958-.0965-.2185,.2161,.2141-.2163v.3591l-.0001,.3613v.7211c-.0001,.4798-.0002,.9581-.0002,1.4347-.0003,.9531-.0006,1.8993-.001,2.838-.0011,1.877-.0024,3.7231-.0035,5.5315l-.2117-.2118c12.1049,.0384,22.6968,.072,30.2938,.0962,3.7841,.0256,6.8208,.0461,8.9418,.0604,1.0317,.0119,1.8396,.0212,2.41791,.0278,.26029,.0057,.46839,.0102,.63239,.0137,.1437,.0046,.2194,.0091,.224,.0138,.0045,.0045-.062,.009-.1968,.0136l-.6065,.0136c-.5673,.0067-1.36,.016-2.37209,.0279-2.10951,.0143-5.12951,.0349-8.893,.0603-7.634,.0241-18.2776,.0579-30.4415,.0964l-.2118,.0006-.0002-.2125c-.0012-1.8084-.0024-3.6545-.0036-5.5315-.0002-.9387-.0006-1.8849-.0009-2.838l-.0003-1.4347v-1.4415c.4334-.4334,.1217-.1201,.2192-.2168,17.3648,.0346,32.8012,.0655,42.5074,.0849l.1329,.0002-.001,.1315c-.0311,3.5524-.0558,6.37-.0729,8.3299-.0136,.9334-.02429,1.6615-.032,2.1837-.0055,.2271-.0101,.4092-.0138,.5536-.0044,.1229-.0087,.1831-.0131,.1788Z" style="fill:#e0e0e0;"></path></g><g><rect x="335.32839" y="59.0468" width="42.51" height="11.2459" style="fill:#f5f5f5;"></rect><path d="M359.86309,82.1381c-.0044-.0044-.0087-.0733-.01309-.2043l-.01391-.5769c-.0076-.5292-.0182-1.2672-.0319-2.2132-.0171-1.9414-.0418-4.7325-.0729-8.2515l.13171,.1316c-9.70631,.0194-25.14261,.0503-42.50741,.0848,.0958-.0964-.2185,.2162,.2141-.2162v.359l-.0001,.3614v.7211c-.0001,.4798-.0001,.958-.0002,1.4346-.0003,.9532-.0005,1.8994-.001,2.838-.0011,1.877-.00239,3.7232-.0035,5.5315l-.2117-.2118c12.1049,.0384,22.69681,.0721,30.29381,.0963,3.78409,.0255,6.82079,.0461,8.94179,.0604,1.0317,.0119,1.8396,.0211,2.4179,.0278,.26031,.0056,.4684,.0102,.6324,.0137,.1438,.0046,.2194,.009,.224,.0137,.0046,.0046-.062,.0091-.1968,.0137-.1572,.0035-.3569,.0079-.6065,.0136-.5673,.0067-1.36,.016-2.3721,.0279-2.1095,.0143-5.1295,.0348-8.893,.0603-7.634,.0241-18.2776,.0579-30.4415,.0963l-.2118,.0006-.0001-.2125c-.00129-1.8083-.0024-3.6545-.0036-5.5315-.0003-.9386-.00069-1.8848-.001-2.838-.0001-.4766-.0001-.9548-.0002-1.4346l-.0001-.7211v-.7204c.4334-.4334,.1217-.1201,.2192-.2169,17.3648,.0347,32.8012,.0655,42.50741,.0849l.13289,.0003-.001,.1315c-.0311,3.5524-.0558,6.37-.07289,8.3299-.01361,.9334-.02431,1.6615-.032,2.1836-.00551,.2272-.01011,.4093-.01381,.5537-.0044,.1229-.0087,.1831-.0131,.1787Z" style="fill:#e0e0e0;"></path></g><g><rect x="11.7574" y="218.6428" width="473.62429" height="106.2957" style="fill:#f5f5f5;"></rect><polygon points="253.95249 222.8956 221.25169 324.9385 312.35439 324.6965 340.31229 222.8956 253.95249 222.8956" style="fill:#ebebeb;"></polygon><polygon points="358.74949 222.8956 325.61969 324.9385 416.71739 324.9385 445.10939 222.8956 358.74949 222.8956" style="fill:#ebebeb;"></polygon><path d="M66.0751,145.4889h39.0721c7.64016,0,13.843,6.20284,13.843,13.843v61.4429H52.2321v-61.4429c0-7.64016,6.20284-13.843,13.843-13.843Z" style="fill:#fafafa;"></path><path d="M154.27909,145.4889h39.0721c7.64016,0,13.843,6.20284,13.843,13.843v61.4429h-66.7581v-61.4429c0-7.64016,6.20284-13.843,13.843-13.843Z" style="fill:#fafafa;"></path><path d="M244.23819,145.4889h39.0722c7.64016,0,13.843,6.20284,13.843,13.843v61.4429h-66.7582v-61.4429c0-7.64016,6.20284-13.843,13.843-13.843Z" style="fill:#fafafa;"></path><path d="M334.19749,145.4889h39.0721c7.64016,0,13.843,6.20284,13.843,13.843v61.4429h-66.7581v-61.4429c0-7.64016,6.20284-13.843,13.843-13.843Z" style="fill:#fafafa;"></path><path d="M424.15669,145.4889h39.0721c7.64016,0,13.843,6.20284,13.843,13.843v61.4429h-66.7581v-61.4429c0-7.64016,6.20284-13.843,13.843-13.843Z" style="fill:#fafafa;"></path><path d="M27.4539,175.3422h39.0721c7.64016,0,13.843,6.20284,13.843,13.843v31.5896H13.6109v-31.5896c0-7.64016,6.20284-13.843,13.843-13.843Z" style="fill:#f5f5f5;"></path><path d="M110.6235,175.3422h39.072c7.64016,0,13.843,6.20284,13.843,13.843v31.5896H96.7804v-31.5895c0-7.64021,6.20288-13.8431,13.8431-13.8431Z" style="fill:#f5f5f5;"></path><path d="M198.06719,175.3422h39.072c7.64016,0,13.843,6.20284,13.843,13.843v31.5896h-66.7581v-31.5895c0-7.64021,6.20288-13.8431,13.8431-13.8431Z" style="fill:#f5f5f5;"></path><path d="M285.51089,175.3422h39.07211c7.64016,0,13.843,6.20284,13.843,13.843v31.5896h-66.75821v-31.5895c0-7.64021,6.20288-13.8431,13.8431-13.8431Z" style="fill:#f5f5f5;"></path><path d="M372.95459,175.3422h39.0721c7.64021,0,13.8431,6.20288,13.8431,13.8431v31.5895h-66.7583v-31.5895c0-7.64021,6.20288-13.8431,13.8431-13.8431Z" style="fill:#f5f5f5;"></path><rect x="9.2031" y="212.0568" width="477.59379" height="10.8388" style="fill:#e0e0e0;"></rect><rect x="26.8919" y="240.0347" width="182.76769" height="66.4141" style="fill:#e0e0e0;"></rect></g><rect x="17.7531" y="347.8247" width="467.62859" height="7.1546" style="fill:#ebebeb;"></rect><polygon points="262.45959 353.472 206.43949 484.2708 220.01279 484.2708 275.456 353.472 262.45959 353.472" style="fill:#ebebeb;"></polygon><path d="M155.69749,403.3113c.0378,.1388-25.6304,7.2332-57.324,15.8439-31.7046,8.6135-57.4284,15.4815-57.4661,15.3427s25.6249-7.2317,57.3296-15.8453c31.6936-8.6107,57.42289-15.48,57.46049-15.3413Z" style="fill:#ebebeb;"></path><path d="M397.72309,435.6062c.0378,.1388-25.6304,7.2333-57.324,15.8439-31.7046,8.6136-57.4284,15.4815-57.46609,15.3427-.03771-.1387,25.62489-7.2317,57.32959-15.8452,31.6936-8.6107,57.4229-15.4801,57.4605-15.3414Z" style="fill:#ebebeb;"></path><path d="M120.4868,430.7399c.0408,.138-12.8967,4.093-28.893,8.8327-16.0019,4.7414-29.0028,8.472-29.0437,8.3341-.0408-.1378,12.8939-4.092,28.8958-8.8334,15.9963-4.7397,29-8.4712,29.0409-8.3334Z" style="fill:#ebebeb;"></path><path d="M428.16049,406.9086c.0408,.1379-12.8966,4.0929-28.893,8.8327-16.0019,4.7414-29.0028,8.472-29.0437,8.334-.04079-.1378,12.8939-4.0919,28.8958-8.8333,15.9963-4.7398,29-8.4712,29.0409-8.3334Z" style="fill:#ebebeb;"></path></g><g id="freepik--Floor--inject-535"><path d="M490.93239,324.9385c0,.1438-106.7747,.2604-238.45729,.2604-131.7285,0-238.48029-.1166-238.48029-.2604s106.7518-.2604,238.48029-.2604c131.6826,0,238.45729,.1166,238.45729,.2604Z" style="fill:#263238;"></path></g><g id="freepik--Character_2--inject-535"><g><g><path d="M155.67679,304.9553s-24.6256,5.5253-29.9936,15.1944c0,0-.3952,25.9686-3.4341,32.3227-3.0388,6.354-4.6964,11.0504-4.6964,11.0504l-5.5252,29.0075-14.3656-3.3151s1.8865-44.8816,3.3151-58.8438c1.398-13.6635,1.5447-10.823,1.8096-15.0257,.2218-3.5204,1.2293-12.8767,3.1631-14.8106,1.9338-1.9338,27.257-26.0737,27.257-26.0737,0,0,20.8126,15.2995,22.4701,30.4939Z" style="fill:#ffbf9d;"></path><path d="M187.78129,293.3725c-1.9107,.4777-38.2807,21.9732-38.2807,21.9732l-23.8174-35.3482,25.3169-18.6294s8.8371-11.4642,9.5536-11.2254c.7165,.2389,30.8102,4.7768,32.2432,5.2545,1.433,.4776-5.0156,37.9753-5.0156,37.9753Z" style="fill:#263238;"></path><g><path d="M73.3223,407.8452s7.339,2.0555,13.6299,1.4474c6.291-.608,15.5602-2.9348,18.9706-3.7504,3.4106-.8155,13.3761,.2591,14.036-3.2342,.66-3.4934-6.4504-16.3029-6.4504-16.3029,0,0-.9702,3.8715-4.4338,3.7787-3.4634-.093-10.2119-1.8172-10.2119-1.8172,0,0-2.9695-4.4912-4.9621-4.6431-1.9924-.1519-1.2615,5.4884-1.2615,5.4884,0,0-4.7744,6.8462-8.0909,8.3531-3.3168,1.507-3.4289,2.5303-7.3151,2.6775-3.8865,.1471-5.7321,1.5951-5.7321,1.5951,0,0-1.7449,3.203-.8193,4.3367,.9255,1.1338,2.6406,2.0709,2.6406,2.0709Z" style="fill:#263238;"></path><path d="M70.6335,405.709c.8243,1.2757,2.6789,2.1889,2.6789,2.1889,0,0,7.339,2.0554,13.6299,1.4473,6.291-.608,15.56-2.9349,18.9706-3.7504,3.4105-.8155,13.376,.2591,14.0361-3.2343,.1903-.9558,.1245-1.9322-.1906-2.9286,0,0-10.0469,2.8448-14.9175,2.8198-4.8706-.0247-15.2022,3.5191-20.7026,3.5437-5.5005,.0243-11.7087-1.2373-11.7087-1.2373l-1.818-.952c-.2057,.8036-.4728,1.3613,.0219,2.1029Z" style="fill:#455a64;"></path><path d="M85.768,396.1964c.0964-.0071,.1589,.8809,.6939,1.7942,.5189,.9229,1.254,1.4244,1.1993,1.5042-.0273,.0789-.9091-.3386-1.4791-1.3437-.5804-.9987-.4959-1.9708-.4141-1.9547Z" style="fill:#fff;"></path><path d="M88.9048,393.3449c.0967-.0175,.2451,1.0427,.982,2.0809,.7194,1.051,1.6626,1.5567,1.6129,1.6415-.0171,.0808-1.0997-.3279-1.8775-1.4571-.7902-1.12-.7992-2.2774-.7174-2.2653Z" style="fill:#fff;"></path><path d="M91.1274,390.6316c.0824-.0462,.5491,.6801,1.2766,1.4388,.7218,.7646,1.4237,1.267,1.3733,1.3468-.0394,.0738-.8506-.3247-1.607-1.1246-.7608-.795-1.1185-1.6252-1.0429-1.661Z" style="fill:#fff;"></path><path d="M110.2707,397.6951c.0059,.0428-.4887,.1542-1.298,.2748-.8088,.1207-1.9332,.2443-3.1796,.3141-1.247,.0688-2.3781,.0705-3.1954,.04-.8177-.0301-1.3215-.0861-1.3202-.1294,.0027-.0935,2.0186-.092,4.4977-.2328,2.4786-.1345,4.4822-.3593,4.4955-.2667Z" style="fill:#fff;"></path></g><polygon points="149.5006 315.3457 152.79309 313.4039 128.7685 277.7273 125.6832 279.9975 149.5006 315.3457" style="fill:#455a64;"></polygon><path d="M154.92269,297.3288c.1332-.0542-1.04569-3.2657-2.6328-7.1722-1.5876-3.9079-2.9823-7.031-3.1155-6.9769-.1332,.0542,1.0454,3.265,2.6331,7.1729,1.5871,3.9065,2.982,7.0303,3.1152,6.9762Z" style="fill:#455a64;"></path></g><g><path d="M266.586,372.7983s-16.99561-15.0382-27.57091-18.5633c-10.5754-3.5251-20.8442-2.912-21.1507-3.5251-.3066-.6131-1.0729-14.1004-1.0729-14.1004l-24.3693,1.8391s4.2915,25.5954,9.0427,29.8869c4.7513,4.2914,44.6004,9.0427,54.4094,14.1004l10.71171-9.6376Z" style="fill:#ffbf9d;"></path><path d="M211.32109,248.9835c1.433,.2389,8.6236,15.8558,8.6236,27.5589s2.9459,53.1336,2.9459,55.9996,0,10.7478,0,10.2701-36.5424,.0208-36.5424,.0208l-11.8115-69.6399,36.7844-24.2095Z" style="fill:#263238;"></path><path d="M207.79679,254.5661c2.476,1.7976,4.3588,12.9238,5.4716,23.1528,1.1127,10.229,3.6707,61.3885,3.6707,61.3885h-12.6356s2.075-69.1085-3.521-76.6858l5.80951-7.8555" style="fill:#FF725E;"></path><g><path d="M257.78279,413.0803s5.6294-5.1377,8.4443-10.7964c2.81491-5.6588,5.7485-14.7542,6.8623-18.0792,1.1139-3.3251,7.3018-11.2103,4.6877-13.6197-2.6142-2.4095-17.2456-3.1594-17.2456-3.1594,0,0,2.7707,2.8728,.8581,5.762-1.91259,2.8889-6.9483,7.701-6.9483,7.701,0,0-5.38229,.1413-6.5661,1.7513-1.1837,1.6098,3.9881,3.976,3.9881,3.976,0,0,3.2802,7.675,2.8026,11.2865-.4777,3.6115,.33111,4.2485-1.6016,7.6232-1.9329,3.3749-1.6817,5.7073-1.6817,5.7073,0,0,1.79341,3.1761,3.2452,2.9911,1.4519-.1848,3.155-1.1437,3.155-1.1437Z" style="fill:#263238;"></path><path d="M254.547,414.2304c1.51859-.0239,3.27519-1.1137,3.27519-1.1137,0,0,5.6294-5.1378,8.4443-10.7966s5.7484-14.7541,6.8623-18.0792c1.1139-3.325,7.3017-11.2102,4.6876-13.6198-.7101-.6675-1.434-.9326-2.4461-1.1928,0,0-3.0452,9.8333-5.6451,13.952-2.5998,4.1189-5.0635,14.7598-7.9549,19.4391-2.8915,4.6791-7.2488,9.2779-7.2488,9.2779l-1.7701,1.0383c.5728,.5999,.9045,1.1217,1.79561,1.0948Z" style="fill:#455a64;"></path><path d="M254.49,396.3546c.045-.0854,.83139,.3317,1.88939,.3614,1.0578,.0484,1.8724-.3097,1.9111-.221,.05251,.0649-.76849,.5919-1.923,.5433-1.15449-.0364-1.93449-.6228-1.87749-.6837Z" style="fill:#fff;"></path><path d="M253.73169,392.1839c.0364-.0914,1.01431,.3441,2.28531,.2686,1.27249-.0538,2.20079-.5862,2.24639-.4991,.05961,.0572-.8603,.7592-2.2301,.8212-1.3685,.0774-2.3551-.5277-2.3016-.5907Z" style="fill:#fff;"></path><path d="M252.60669,388.8618c.0045-.0944,.8677-.1057,1.8965-.3213,1.03081-.2074,1.8286-.5369,1.8696-.4519,.0418,.0725-.72579,.5497-1.8049,.7679-1.0772,.2245-1.97089,.0884-1.9612,.0053Z" style="fill:#fff;"></path><path d="M268.73429,376.3615c.0395,.0177-.1278,.4963-.454,1.2466-.3258,.7501-.81629,1.7694-1.4171,2.8638-.6018,1.0943-1.19919,2.0547-1.6578,2.732-.4585,.6776-.7727,1.0754-.8088,1.0514-.0779-.0518,.9908-1.7612,2.1839-3.9388,1.1982-2.174,2.0683-3.9927,2.1538-3.955Z" style="fill:#fff;"></path></g><polygon points="222.89059 342.8121 222.89059 339.1074 185.71639 339.1074 186.34819 342.8329 222.89059 342.8121" style="fill:#455a64;"></polygon></g><g><g><circle cx="80.89827" cy="270.17818" r="23.21364" transform="translate(-167.35026 136.33707) rotate(-45)" style="fill:#FF725E;"></circle><g><path d="M96.2349,262.6213c.7655-.1923,1.5488-.2442,2.2945-.1622,.0467,.0051,.0934,.0076,.1396,.0149l.1379,.0243,.2738,.049c.1798,.0416,.3567,.0908,.5307,.1406,.3453,.1111,.67,.2551,.9758,.4156,.3044,.1636,.5847,.3508,.8479,.5459,.2579,.2016,.5009,.409,.7195,.629,.822,.8195,1.3764,1.7212,1.769,2.5463,.0863,.6025,.1492,1.2124,.1883,1.8288-.1792-.4287-.3908-.8963-.6526-1.3883-.2164-.4026-.4642-.8214-.7669-1.2328-.3036-.4104-.6535-.8225-1.0677-1.1985-.2052-.1902-.4298-.366-.6643-.536-.2391-.163-.49-.3179-.7576-.45-.2687-.129-.5498-.2428-.8446-.3276-.1487-.0367-.2988-.0738-.4513-.1048l-.2326-.0342-.1169-.0177c-.0392-.0051-.0791-.0057-.1187-.0088-.6333-.0508-1.3018,.0079-1.965,.1908-.077,.0216-.154,.0448-.231,.0691-.1249-.2959-.2532-.5913-.3872-.8859,.1262-.0385,.2526-.0752,.3794-.1075Z" style="fill:#263238;"></path><path d="M94.5294,264.4061c-1.2516,.7671-2.3032,1.9617-3.181,3.3476-.8807,1.3887-1.5944,2.9772-2.3352,4.6131-.7371,1.6342-1.4373,3.2465-2.1517,4.7927-.3575,.773-.715,1.5308-1.083,2.266-.1805,.369-.3705,.7296-.5535,1.0878-.191,.3549-.3735,.7086-.5678,1.0513-1.5128,2.7628-3.231,5.0765-4.916,6.7782-1.6803,1.7137-3.3151,2.8032-4.4932,3.4257-.291,.1635-.5634,.2831-.7969,.3896-.1173,.0523-.2243,.1026-.325,.1427-.0199,.0073-.1203,.0377-.1395,.0447-.1109-.0343-.2182-.0671-.3284-.103,.0058-.0036,.0908-.0343,.0967-.0379l.2499-.1464c.0913-.0549,.1886-.1196,.2958-.1857,.2134-.1343,.4637-.2799,.7315-.4672,1.0849-.7187,2.5944-1.8642,4.1515-3.5902,1.5635-1.7181,3.1596-3.9955,4.5944-6.7278,.1843-.3385,.3579-.6893,.5399-1.04,.1746-.3553,.3562-.7117,.5294-1.078,.3531-.7287,.6985-1.4819,1.0465-2.2514,.6879-1.5497,1.4001-3.1541,2.1296-4.7975,.7433-1.639,1.4782-3.2659,2.4288-4.7396,.2391-.3664,.4848-.7259,.7526-1.0666,.129-.1735,.2717-.3368,.4076-.503,.1442-.1602,.2821-.324,.4333-.4757,.2921-.3112,.6081-.5968,.9354-.8665,.1672-.1295,.3306-.2617,.5048-.3775,.0865-.0586,.1697-.1213,.2582-.1757l.2641-.1636c.2735-.1657,.5546-.313,.8407-.4432,.137,.2996,.2677,.6001,.3954,.9009-.2427,.1172-.4817,.249-.7149,.3962Z" style="fill:#263238;"></path><path d="M60.5815,281.1197c.0643-.1023,.1336-.2124,.2077-.3301,.0757-.1167,.1601-.2381,.2482-.3678l.595-.8582c.2226-.3101,.4736-.6402,.7406-.9974,.2637-.3599,.5672-.7275,.8818-1.1236,.312-.3985,.662-.8027,1.0254-1.2311,.359-.4325,.7612-.8622,1.1695-1.3202,.2028-.2303,.4225-.4531,.641-.6854,.2203-.2305,.4422-.4679,.6732-.7042,.2341-.2334,.4721-.4708,.714-.712,.1215-.1201,.2422-.243,.3672-.3634l.3808-.3604c.2566-.2412,.5142-.4892,.781-.7343,.2697-.2419,.5431-.4871,.8198-.7355,.2743-.2512,.5647-.4909,.8538-.7389,.2909-.2459,.5809-.4998,.8863-.7414,.3029-.2446,.6091-.4918,.9183-.7415,.3153-.2417,.6337-.4859,.9549-.7322,1.2937-.9736,2.6694-1.9342,4.1175-2.8576,1.453-.9169,2.9085-1.7525,4.3409-2.5082,.3598-.1857,.7164-.3698,1.0696-.5521,.3576-.1734,.7117-.3451,1.0622-.515,.3488-.1734,.7021-.3275,1.0486-.4859,.3476-.1559,.6882-.3166,1.0325-.4577,.3426-.1446,.6809-.2874,1.0148-.4283,.3354-.137,.6695-.2644,.9971-.3937l.4885-.191c.1621-.0618,.3247-.1186,.4852-.1774,.3213-.116,.6375-.2302,.9484-.3425,.3123-.1084,.6216-.2079,.924-.3091,.3033-.0987,.5985-.2024,.8933-.2878,.0605-.0179,.1196-.036,.1796-.054l.0171,.0248,.2002,.3126,.2406,.375c-.1247,.043-.2501,.0861-.3773,.1288-.2875,.0945-.5754,.2069-.8711,.314-.2949,.1094-.5967,.2169-.9013,.3327-.3033,.1192-.6117,.2405-.9252,.3637-.1565,.062-.3152,.122-.4734,.1869-.1576,.0662-.3165,.1328-.4766,.1999-.3197,.1352-.6458,.2678-.9733,.4096l-.9908,.4414c-.3363,.145-.6689,.3091-1.0085,.468-.3386,.1613-.684,.318-1.0249,.4934-.3428,.1714-.6892,.3446-1.0389,.5195-.3457,.1829-.6947,.3675-1.0468,.5538-1.4025,.756-2.83,1.5841-4.259,2.4858-1.4241,.9083-2.781,1.8467-4.0623,2.7931-.3184,.2391-.6341,.4761-.9467,.7109-.3073,.2418-.6115,.4813-.9126,.7183-.3039,.2337-.5927,.4794-.8828,.7169-.2884,.2395-.5785,.4705-.853,.7128l-.8214,.7083c-.2678,.2357-.5267,.4743-.7852,.7059l-.3839,.3459c-.1261,.1155-.2479,.2335-.3708,.3486-.2449,.231-.4861,.4584-.7232,.682-.2345,.2261-.4603,.4533-.685,.6735-.2228,.2219-.4472,.4344-.6552,.6542-.4186,.437-.8327,.8456-1.2052,1.2567-.377,.4071-.7421,.7899-1.0706,1.1669-.3313,.3747-.6528,.7208-.9359,1.0593-.2881,.3349-.5561,.6465-.8029,.9335-.243,.2904-.465,.5559-.6647,.7947-.1009,.1188-.1961,.231-.2856,.3363-.0879,.1066-.1702,.2062-.2466,.2988-.0527,.063-.135,.1869-.1826,.2429-.0532-.0946-.1197-.2146-.1715-.31,.0167-.0271,.0786-.0933,.0962-.1215Z" style="fill:#263238;"></path><path d="M93.0966,257.7664c.1529-.0443,.3047-.087,.4548-.1261,.538-.1462,1.0485-.2906,1.5379-.403,.4883-.1159,.9463-.2338,1.3807-.319,.4333-.0893,.8354-.1758,1.2077-.245,.3732-.0631,.7143-.1207,1.0212-.1726,.1536-.0244,.2982-.0491,.4349-.0678,.1369-.0168,.2649-.0326,.3839-.0473l.067-.0076c.065,.0888,.1298,.1778,.1935,.2676-.0637,.0173-.1298,.0351-.2003,.0537-.1153,.0297-.2395,.0617-.3722,.0958-.1323,.0361-.2732,.0744-.4224,.115-.2987,.079-.6306,.1667-.9938,.2627-.3617,.101-.7546,.2107-1.1766,.3286-.4234,.1119-.8698,.2553-1.3459,.3953-.4771,.1366-.9748,.3038-1.4993,.4713-.0777,.0239-.1565,.0501-.2349,.0756-.1303-.2024-.2603-.4041-.3896-.6049l-.0466-.0723Z" style="fill:#263238;"></path><path d="M88.8088,253.9155c-.0986,.0347-.1977,.0691-.2983,.102-.24,.0793-.4855,.1472-.7357,.223-.2511,.0704-.5085,.1359-.7703,.2029-1.0503,.2531-2.1884,.4467-3.3887,.5809-1.2004,.1316-2.4625,.2096-3.7649,.2532-1.3027,.047-2.6463,.0605-4.0135,.0976-.6837,.0179-1.3575,.0406-2.0191,.0755-.6619,.0329-1.3118,.0772-1.9473,.1379-1.272,.1152-2.4851,.3019-3.6212,.555-1.135,.2609-2.1849,.5942-3.1337,.996-.9469,.4047-1.7901,.8695-2.5182,1.3547-.7278,.4861-1.343,.9899-1.8443,1.4735-.1255,.1207-.2394,.2441-.3539,.359-.0559,.0587-.1145,.1132-.1655,.172l-.1505,.1724c-.0974,.1132-.1958,.2182-.282,.3242l-.2411,.3067c-.1271,.1513-.2265,.2992-.32,.431,.257-.6595,.5439-1.3039,.858-1.9325,.0682-.0839,.1378-.1688,.2126-.2535,.4852-.551,1.099-1.1263,1.8394-1.6818,.7406-.5546,1.6098-1.0864,2.5944-1.5508,.9854-.4616,2.0901-.8485,3.2697-1.1481,1.1822-.2926,2.4423-.5078,3.7502-.6411,.654-.0698,1.3199-.1208,1.9946-.1582,.6749-.0393,1.3585-.0641,2.0487-.0822,1.3814-.0374,2.7225-.0433,4.0112-.0754,1.2892-.0287,2.5257-.0843,3.6964-.1851,1.1698-.1036,2.2723-.2578,3.2903-.4634,.4789-.1007,.9411-.2077,1.3791-.3272l.1274,.137c.1661,.1786,.3315,.3606,.4962,.5448Z" style="fill:#263238;"></path><path d="M89.5486,252.7737c.392-.1674,.7469-.3588,1.0526-.5766,.3036-.2169,.5711-.4588,.7682-.7104,.404-.5109,.5946-1.0717,.6561-1.5308,.0097-.0713,.0147-.1395,.0179-.2062,.1361,.0742,.2713,.15,.4057,.2268l.0002,.0046c-.002,.5386-.1529,1.2109-.5863,1.8638-.4365,.6523-1.1425,1.2137-1.9912,1.6291-.0261,.0129-.0536,.0246-.08,.0373-.1862-.207-.3734-.4105-.5615-.6104,.1086-.0409,.215-.0831,.3183-.1272Z" style="fill:#263238;"></path><path d="M92.0593,258.1066l-.0171-.0248-.1933-.2791c-.959-1.4064-1.9842-2.7039-3.0401-3.8872-.1644-.1842-.3293-.3662-.4951-.5448l-.1271-.137c-.1109-.1194-.2218-.2389-.3316-.3572-.1556-.16-.3094-.32-.4657-.4747-.3103-.3122-.6233-.6121-.9378-.9-.6282-.5769-1.2658-1.1026-1.9102-1.5692-.6427-.4693-1.2969-.8708-1.9469-1.2136-.1618-.0873-.3269-.1631-.4876-.2442-.1619-.0694-.3192-.1405-.48-.205-.1643-.0589-.3253-.1203-.4874-.1761l-.4878-.152c-.6499-.1854-1.284-.3229-1.888-.4336-.6056-.101-1.1806-.1836-1.7213-.2301l-.075-.0063c.8921-.1542,1.8014-.258,2.7254-.3072,.3766,.0672,.7622,.146,1.158,.2441l.5222,.1433c.1755,.0537,.3521,.1143,.5312,.1725,.1781,.0648,.358,.1389,.5388,.2108,.1728,.0805,.3507,.1562,.5247,.2435,.6991,.3429,1.4014,.7498,2.0874,1.2261,.688,.4737,1.3652,1.0086,2.0279,1.5943,.3318,.2923,.6609,.5965,.9858,.9125,.1638,.1569,.3244,.3185,.4869,.4804l.4788,.5c.0655,.0686,.1306,.1395,.1959,.2089,.1881,.1999,.3753,.4034,.5615,.6104,1.0157,1.129,2.001,2.3615,2.925,3.6958l.2185,.3113,.1613,.248,.047,.0723c.1304,.2008,.2614,.4025,.3928,.6049l.026,.0399c.1439,.2135,.2691,.44,.4043,.6614,.133,.2228,.2665,.4464,.4004,.6709,.1258,.2292,.252,.4593,.3786,.6901,.0632,.1156,.1264,.2314,.1897,.3473,.0643,.1155,.1267,.2322,.1842,.3517,.1182,.2374,.2367,.4756,.3556,.7146,.0593,.1196,.1187,.2393,.1781,.3593,.055,.122,.1101,.2443,.1652,.3668,.0127,.0277,.0244,.0555,.037,.0832,.134,.2946,.2623,.59,.3872,.8859,.6921,1.6393,1.2472,3.2966,1.6589,4.9387,.4968,1.9654,.7762,3.9117,.882,5.771,.1057,1.8599,.0389,3.6338-.1497,5.2771-.1939,1.6434-.5117,3.1544-.8849,4.5078-.3072,1.1506-.6854,2.1774-1.0547,3.0889-.323,.2984-.6537,.5888-.9933,.8687,.0787-.1975,.158-.4,.238-.6109,.3672-1.0261,.768-2.2018,1.0747-3.5373,.3172-1.3312,.5835-2.809,.7341-4.4095,.1452-1.6004,.177-3.3215,.0479-5.1211-.1292-1.7989-.4196-3.6763-.9145-5.5765-.4121-1.5947-.9596-3.2055-1.6369-4.8017-.1277-.3008-.2584-.6013-.3954-.9009l-.0068-.0152-.1599-.3558c-.0577-.1164-.1153-.2326-.1727-.3486-.1151-.232-.2297-.4633-.3441-.6938-.0555-.1161-.1158-.2295-.1781-.3416l-.1833-.3375-.3653-.6712-.3864-.653c-.1304-.2155-.2505-.4363-.3895-.6443l-.1627-.2538-.2406-.375-.2002-.3126Z" style="fill:#263238;"></path></g></g><path d="M127.3631,179.4935c-.3751,.8808-5.8645,5.273-3.8984,19.6721l-5.8723,27.5998-30.3055,9.3792,.9341,8.7844s35.2437,3.8575,43.1712-4.0701c7.9276-7.9276,7.0468-27.7308,7.0468-27.7308l-11.0759-33.6346Z" style="fill:#ffbf9d;"></path><path d="M97.6619,234.0075s-9.705,1.7658-12.8743,2.8222c-3.1693,1.0565-15.3181,9.1557-15.3181,9.1557,0,0-11.411,13.3745-10.6187,13.9027s1.6101,1.1761,2.6665,.4718,4.1667-5.2188,4.2547-5.1308-2.2889,6.6671-1.6727,6.8109c.6163,.1439,.8804,.9362,2.8172-.6484,1.9367-1.5847,3.1692-7.0429,3.4333-7.0429s7.2189-5.018,7.2189-5.018c0,0-4.4898,4.4018-2.9932,5.9864,1.4966,1.5847,2.428-.1058,3.8366-.8101,1.4085-.7042,7.8721-5.5284,8.8405-7.7293,.9684-2.2009,.9684-1.8487,.9684-1.8487l4.5291,.088,4.9118-11.0095Z" style="fill:#ffbf9d;"></path><path d="M79.5261,247.9908c-.0493-.1301-.7758,.0472-1.4532,.6376-.681,.5868-.9597,1.2806-.8379,1.3479,.1265,.0776,.5667-.4297,1.1789-.9543,.6061-.5312,1.1711-.8949,1.1122-1.0312Z" style="fill:#ff9a6c;"></path><path d="M121.7406,228.3635c.0947-.0982-.6961-.9474-1.9876-1.5023-1.2885-.5633-2.4486-.5597-2.4555-.4235-.0183,.1502,1.044,.3724,2.2483,.9014,1.209,.517,2.0977,1.1403,2.1948,1.0244Z" style="fill:#ff9a6c;"></path></g><g><path d="M109.0748,134.2482c-2.1564,.815-4.8251-.0663-6.0722-2.0052-.3751-.5837-.6332-1.2729-.562-1.9633,.071-.6902,.5292-1.3664,1.1989-1.5482-1.0426-.4173-1.9436-1.2327-2.3555-2.277-.4118-1.0449-.2881-2.3111,.4094-3.191,.6974-.8804,1.9759-1.2876,3.02-.8749-.2877-1.1784,.1741-2.5058,1.131-3.2512l5.0724,.0273-1.842,15.0835Z" style="fill:#263238;"></path><path d="M129.3799,183.7786l-4.9003-14.9123s-10.4579,.6178-12.7734-9.47c-1.1179-4.8723-2.6043-15.0922-3.842-24.3574-1.3311-9.9615,5.2119-19.2733,15.0342-21.4003l.976-.2114c10.6566-1.6643,18.0237,6.4564,19.3926,17.1555l4.023,39.1792-9.1123,14.4443-8.7978-.4276Z" style="fill:#ffbf9d;"></path><path d="M124.4796,168.8663s6.4924-.8449,12.5832-5.6594c0,0-1.7013,6.9599-11.9916,8.2347l-.5916-2.5753Z" style="fill:#ff9a6c;"></path><path d="M113.4653,143.7808c.138,.7686,.903,1.2855,1.7083,1.1556,.8039-.1296,1.3452-.8562,1.207-1.6247-.1385-.7686-.9031-1.2863-1.7071-1.1571-.8054,.1297-1.3465,.8577-1.2082,1.6262Z" style="fill:#263238;"></path><path d="M111.1103,139.517c.2198,.1495,1.1384-.8973,2.6941-1.2301,1.5487-.3545,2.8628,.1984,2.9899-.0283,.0648-.1023-.1913-.4029-.7662-.6568-.567-.2545-1.4768-.4241-2.4446-.2103-.9666,.2151-1.704,.7478-2.0932,1.2142-.3987,.4703-.4866,.8461-.38,.9113Z" style="fill:#263238;"></path><path d="M129.7207,149.8563c-.2645-.0274-.5767,1.33-1.7884,2.3608-1.1953,1.0466-2.6144,1.1831-2.6187,1.443-.0087,.1208,.3595,.264,.986,.2149,.6199-.045,1.5012-.3272,2.2518-.9744,.749-.6478,1.1456-1.4666,1.2669-2.0618,.1279-.6031,.027-.9755-.0976-.9825Z" style="fill:#263238;"></path><path d="M126.8854,141.3943c.1381,.7688,.9029,1.2853,1.7083,1.1557,.804-.1293,1.3453-.856,1.2069-1.625-.1382-.7684-.9035-1.2858-1.7075-1.1566-.8052,.1293-1.3461,.8574-1.2077,1.6259Z" style="fill:#263238;"></path><path d="M126.4519,136.4979c.2202,.1496,1.1407-.8972,2.695-1.2297,1.5484-.3544,2.8625,.1983,2.99-.0286,.0644-.102-.1899-.4031-.767-.6565-.5669-.2547-1.4764-.424-2.4439-.2104-.9669,.2148-1.7042,.7477-2.0937,1.2139-.3971,.4701-.486,.846-.3804,.9113Z" style="fill:#263238;"></path><path d="M123.3074,149.2475c-.0118-.09-1.0144-.0479-2.6232,.091-.4056,.0452-.7985,.0476-.9241-.2092-.1555-.2663-.0822-.73,.0101-1.2337,.1651-1.0409,.3376-2.1326,.5192-3.2765,.6984-4.6562,1.1119-8.4502,.9242-8.4768-.188-.0263-.9062,3.7262-1.6041,8.3825-.1627,1.1462-.3188,2.2389-.4662,3.2841-.0522,.4835-.1998,1.0512,.1316,1.6024,.1712,.2734,.5092,.4257,.7783,.4388,.2713,.0227,.4955-.0213,.6943-.0522,1.5942-.2565,2.5729-.4611,2.5599-.5504Z" style="fill:#263238;"></path><path d="M124.7314,130.4932c.2449,.3895,1.7537-.1471,3.6246-.3219,1.868-.2129,3.4541,.0026,3.614-.4287,.0687-.2049-.2736-.547-.9571-.8274-.6777-.2808-1.7023-.4655-2.8234-.3503-1.1207,.1175-2.0854,.5084-2.6911,.9226-.611,.4144-.8764,.8196-.767,1.0057Z" style="fill:#263238;"></path><path d="M110.7073,134.8945c.3499,.2941,1.3411-.3046,2.6254-.6005,1.2732-.341,2.4294-.2778,2.6001-.7014,.0712-.2031-.1768-.5197-.7258-.7507-.5413-.2314-1.3859-.3333-2.2648-.1151-.8785,.2197-1.5761,.7057-1.9458,1.1643-.3763,.4614-.4469,.8576-.2891,1.0034Z" style="fill:#263238;"></path><path d="M107.8324,130.1892s1.296-6.9122,4.0302-9.0518c3.3102-2.5903,5.7812,1.124,9.0919-.6241,3.3106-1.7485,6.4688-4.2301,10.66-2.2859,4.5875,2.1281,3.1938,4.6197,4.4094,9.055,4.9276,17.9822,9.365,22.4084,8.454,13.6328-.0998-.9615,2.3445-2.2725,1.8715-6.3235-.6132-5.2528-1.7683-11.5417-3.707-14.9438-1.6341-2.8677-3.8489-4.6136-7.5024-6.2763-5.7677-2.6242-12.6067-1.2263-17.1385,.2429-4.5315,1.4695-12.309,8.7349-10.1691,16.5747Z" style="fill:#263238;"></path><path d="M143.5521,140.8149c-.2744-1.5749,.8041-3.0989,2.3915-3.2879,1.9251-.2294,4.2564,.3874,4.9762,4.3125,1.277,6.9632-5.9776,6.8087-6.026,6.6113-.0333-.1344-.8332-4.7174-1.3417-7.6359Z" style="fill:#ffbf9d;"></path><path d="M146.1498,145.518c.0267-.028,.1372,.0627,.3594,.119,.2166,.0546,.5719,.0549,.9103-.1478,.6859-.4047,1.0911-1.6861,.8949-2.9473-.0985-.6368-.3421-1.2159-.6581-1.6744-.3059-.4706-.7005-.766-1.0831-.7637-.384-.0176-.6055,.252-.6548,.4637-.0578,.2117,.0118,.3426-.0228,.3612-.0161,.0212-.1707-.0895-.1674-.3871,.0035-.1435,.0551-.3228,.194-.4863,.1423-.1669,.3751-.281,.6382-.3005,.5437-.0613,1.1178,.3443,1.465,.8474,.3774,.5,.6661,1.1482,.7765,1.8634,.2126,1.4115-.2648,2.8564-1.2182,3.3315-.4664,.2179-.9019,.1448-1.1431,.0195-.2473-.1327-.3125-.2818-.2908-.2986Z" style="fill:#ff9a6c;"></path><path d="M117.0222,126.8637c-.0171,.0033-.0311,.0126-.0478,.0167-.0409,.0117-.0825,.0211-.1227,.0345l.1705-.0512Z" style="fill:#FF725E;"></path><path d="M101.7523,117.5386c.2413-1.8866,1.6486-3.4869,3.3521-4.3326,1.7034-.8455,3.6664-1.0258,5.5657-.9288-.6551-2.4887,1.751-4.9376,4.2948-5.3274,2.5441-.39,5.0658,.6504,7.4297,1.6684,2.715-2.4667,7.5614-1.9369,9.6796,1.058,1.6427-1.3564,4.0226-1.7559,6.0179-1.0099,1.9954,.7457,3.5295,2.6085,3.8797,4.7096,1.7044,.0079,3.3676,1.0176,4.1608,2.5261,.7934,1.5085,.6823,3.4511-.2773,4.8595,1.3027,.5206,2.1886,1.9358,2.0878,3.3349-.1009,1.399-1.1809,2.6724-2.5445,3.0005l-5.8698-3.5256c-2.6638,1.0062-6.0116-.7614-6.6827-3.5287-1.9546,1.2133-4.6444,1.1044-6.4946-.2623-.2185,1.3833-1.1622,2.631-2.4338,3.2176-1.2718,.5868-2.8336,.4948-4.0275-.237,.1746,1.9018-.8408,3.8623-2.4947,4.817-1.6541,.955-3.8593,.8537-5.4189-.2484-1.472,1.7769-4.3652,2.1474-6.2377,.7991-1.8724-1.3483-2.4381-4.21-1.2195-6.1692-1.8455-.459-3.0078-2.5342-2.7671-4.4208Z" style="fill:#263238;"></path><path d="M133.4153,121.138c-.0233,.0107,.0301,.2194,.2388,.5501,.2088,.3258,.5914,.7755,1.2222,1.1294,.6187,.3509,1.5232,.5974,2.4979,.3742,.9579-.2094,1.962-.8574,2.5181-1.9143l-.4047,.0624c.4372,.4392,.9896,.7931,1.6036,1.0141,1.3118,.4671,2.7448,.3103,3.7816-.3156,1.0556-.6213,1.6327-1.6196,1.8884-2.4646,.2587-.8617,.2045-1.6044,.1012-2.0829-.1133-.4824-.2586-.7175-.2832-.7072-.1052,.0074,.3891,1.079-.1634,2.6763-.2781,.7667-.8395,1.6461-1.7803,2.1679-.9223,.5311-2.204,.6577-3.3705,.2418-.5459-.1967-1.0318-.5063-1.4179-.8847l-.2483-.2435-.1565,.306c-.4636,.9081-1.3328,1.5043-2.1706,1.7142-.8472,.2233-1.6543,.0471-2.2435-.2363-1.2018-.5991-1.5429-1.447-1.6129-1.3873Z" style="fill:#455a64;"></path></g><g><path d="M214.53079,246.7628c-.30379,.9653,3.19221,10.1154-21.5261,18.8179-24.7183,8.7025-25.2796,8.7025-30.6126,5.0537-5.3329-3.6488-11.392-9.2663-11.392-9.2663,0,0-2.9435-1.1188-1.5296-5.329,1.4138-4.2102-3.3578-15.9988-3.3578-15.9988,0,0-8.1397-12.5646-13.7532-26.9122-5.6136-14.3476-4.9964-35.3986-4.9964-35.3986l3.1036,5.0124c.4467,0,16.4586-20.53,17.3409-20.3536,1.4034,.2807,16.4194-2.0609,26.7291,6.0788,10.3098,8.1397,24.177,40.1994,24.177,40.1994,0,0,18.0625,30.9595,15.8171,38.0963Z" style="fill:#263238;"></path><path d="M151.00019,261.3681c-.0133,.0122,.113,.1682,.3662,.4548,.2962,.3252,.6691,.7347,1.1269,1.2374,1.0424,1.0083,2.5352,2.5106,4.6723,4.0127,2.1112,1.5247,4.8722,3.0407,8.1756,4.0789,1.65681,.4938,3.43981,.8703,5.3131,1.0621,1.874,.1828,3.8303,.1696,5.8139-.0183,3.978-.3703,7.65-1.4498,10.8669-2.6601,3.2134-1.2387,5.9978-2.6073,8.2787-3.8488,2.2821-1.2414,4.0805-2.3287,5.3061-3.1056,.6165-.3826,1.0835-.6982,1.4014-.9101,.3166-.214,.4782-.3337,.46871-.349-.00951-.0153-.18961,.0746-.52371,.2597-.38129,.217-.8614,.4902-1.4508,.8256-1.256,.7225-3.0788,1.759-5.3741,2.954-2.2941,1.1953-5.0795,2.5213-8.2752,3.725-3.1989,1.1756-6.8319,2.2268-10.7475,2.5909-1.9528,.1849-3.8749,.2014-5.7156,.0288-1.84009-.1817-3.5916-.5412-5.2229-1.0135-3.2518-.9949-5.9888-2.4517-8.1038-3.9215-2.14-1.4464-3.6603-2.8966-4.7409-3.8553-.4846-.4732-.8793-.8587-1.1928-1.1649-.2771-.2626-.4293-.3949-.4425-.3828Z" style="fill:#455a64;"></path><path d="M175.81329,214.1094s-13.2731-2.3893-20.1365-11.6831c-6.8634-9.2939-11.52479-30.3997-4.6063-35.102,8.2876-5.6328,18.3164-5.3415,27.5782,5.3462s22.7164,36.5323-2.8354,41.4389Z" style="fill:#455a64;"></path><path d="M160.10339,165.7187s10.4762,.7486,16.54761,5.7229c6.07129,4.9744,13.17089,18.5202,10.36489,25.7904s-6.8876,14.668-18.1118,9.9487c-11.2242-4.7192-17.1582-18.8995-18.7829-24.6917-1.6247-5.7921-.8594-16.0141,9.9822-16.7703Z" style="fill:#ffbf9d;"></path><path d="M156.54979,257.8208c-.0109,.0127,.0746,.1019,.2485,.2613,.1783,.1536,.4269,.4017,.7893,.6691,.7061,.5588,1.8005,1.2935,3.274,1.998,2.8992,1.4188,7.5906,2.5606,12.6557,1.3771l.6804-.159-.6189-.321c-.6563-.3402-1.3501-.6999-2.0534-1.0646-5.025-2.5437-9.7969-4.3712-13.2999-5.5119-1.752-.5721-3.18649-.9804-4.1824-1.2436-.9975-.2578-1.5547-.3775-1.564-.344-.01,.0357,.5287,.2215,1.5067,.5384,.9763,.3225,2.39021,.7831,4.1208,1.3977,3.4607,1.226,8.1849,3.0977,13.1842,5.6283,.7003,.3618,1.3911,.7187,2.0446,1.0563l.0614-.4798c-4.9156,1.1642-9.5032,.1214-12.3907-1.1903-2.9415-1.31-4.3909-2.7065-4.4563-2.612Z" style="fill:#455a64;"></path><path d="M160.52139,236.9839c.0244-.1418-2.6736-.7247-6.02539-1.3018-3.353-.5773-6.0899-.9303-6.1144-.7885-.0243,.1416,2.6731,.7244,6.026,1.3017,3.3518,.5772,6.08941,.9302,6.1138,.7886Z" style="fill:#455a64;"></path><path d="M151.44849,222.451c1.1623,3.3605,.7024,6.9638-2.6316,8.1175-1.6425,.5689-3.6008,.3853-5.2127-.5871l-.1665-3.8963c1.2815,.831,2.7495,1.0571,3.9711,.6345,1.3588-.47,1.87-1.7003,1.3081-3.3238-.5221-1.5088-1.5014-2.2218-3.0424-1.6899l-1.2411,.4303-1.0536-3.0475,.8068-5.4771-4.994,1.728-1.2811-3.7017,8.2109-2.8414,1.0345,2.9894-.8729,6.0427c2.3082-.1617,4.14939,1.6897,5.16449,4.6224Z" style="fill:#FF725E;"></path><path d="M169.17019,235.2455c.0531-.1337-6.49419-2.8581-14.6219-6.0845-8.1305-3.2274-14.7624-5.7346-14.8155-5.6009-.053,.1336,6.4928,2.8575,14.6233,6.085,8.1277,3.2263,14.761,5.734,14.8141,5.6004Z" style="fill:#455a64;"></path></g><g><path d="M186.54249,277.7985s-.1292,11.2492-1.5817,16.399c-1.4525,5.1497-1.8486,5.5459-2.6409,6.6022-.7923,1.0564-2.1127,1.8487-3.6973,1.1885,0,0-.7923,3.3011-2.5088,3.6972-1.7166,.3962-2.773,0-2.773,0,0,0-1.0564,3.8294-2.773,3.0371s-.7922-2.905-.7922-5.2818,1.18841-8.9791,.6602-9.1112c-.5282-.132-2.1127,4.8857-2.24479,6.2062-.132,1.3204,.39619,5.1497-.92431,6.6022s-2.3768,.3962-2.3768,.3962c0,0-1.3205-7.3946-.6602-9.1112,.6602-1.7166,.5281-2.2447,.5281-2.2447,0,0-3.9613,2.6409-5.41379-.1321,0,0,2.37679-2.3768,3.16909-4.0934,.7922-1.7166,5.1497-9.2432,5.942-9.6393,.7923-.3962,6.5018-8.2136,6.5018-8.2136l11.5856,3.6987Z" style="fill:#ffbf9d;"></path><path d="M176.09079,295.832c-.1383-.0398-.9127,2.2296-1.7296,5.0681-.8171,2.8395-1.3674,5.1729-1.2291,5.2127,.1381,.0397,.9124-2.2292,1.7296-5.0687,.8169-2.8385,1.3672-5.1724,1.2291-5.2121Z" style="fill:#ff9a6c;"></path><path d="M180.21009,296.157c-.1363-.0459-.6303,1.2977-1.1028,3.0006-.4726,1.7035-.7415,3.1092-.601,3.1402,.1404,.0309,.6343-1.3124,1.1028-3.001,.4683-1.688,.7372-3.094,.601-3.1398Z" style="fill:#ff9a6c;"></path><path d="M169.364,286.2372c-.00691-.0293-.18181-.0334-.45871,.1015-.2769,.1315-.6226,.4321-.92429,.8726-.57841,.889-1.22581,2.154-1.81561,3.6307-1.1825,2.9582-1.43,5.5512-1.2972,5.5618,.1524,.0268,.6231-2.4759,1.7816-5.3707,.5737-1.4405,1.1756-2.7404,1.6419-3.6241,.4734-.8953,1.09631-1.1049,1.07231-1.1718Z" style="fill:#ff9a6c;"></path><path d="M163.21589,165.7378c1.0814,.0481,13.7989,2.7598,18.8938,14.8603,5.095,12.1005,25.6871,50.7812,25.6871,54.3901s-21.4064,40.0598-21.4064,43.5644c0,1.0615-12.1661-3.4573-12.1661-3.4573l12.9092-40.0934s-6.7221-13.6441-10.7556-20.0128-13.162-18.8938-13.162-18.8938c0,0-19.3184-9.5531-12.1005-23.9888,0,0,2.5475-6.7933,12.1005-6.3687Z" style="fill:#ffbf9d;"></path></g><path d="M157.743,193.1898c-.02241,.0039,.01959,.3769,.36649,.9365,.3362,.5618,1.0191,1.2596,2.021,1.8516,.9938,.6123,2.2996,1.0595,3.5701,1.8023,.6346,.3745,1.2251,.8501,1.7263,1.4708,.5075,.6127,.9546,1.333,1.4409,2.0565,1.9274,2.8997,3.6964,5.5084,4.9984,7.3823,.6511,.9369,1.1854,1.6901,1.5645,2.204,.379,.514,.6028,.7888,.6327,.7689s-.1368-.3326-.464-.8811c-.3271-.5484-.8147-1.3327-1.4265-2.2957-1.2236-1.926-2.944-4.5669-4.8714-7.4667-.4843-.7195-.9376-1.4464-1.4829-2.0951-.5361-.6554-1.2044-1.1804-1.8755-1.5579-1.3516-.7556-2.6542-1.1579-3.6296-1.7078-.9881-.5313-1.6661-1.1472-2.0368-1.6468-.3803-.496-.4884-.8397-.53369-.8218Z" style="fill:#ff9a6c;"></path><path d="M159.18849,165.7554c-.0103,.1352,2.5003-.2075,6.3076,.8715,1.8904,.5408,4.061,1.4746,6.2628,2.8606,2.1984,1.387,4.4163,3.2376,6.4284,5.4674,4.0292,4.4874,6.4729,9.4857,7.782,13.1946,.67,1.8591,1.0795,3.4095,1.3426,4.4843,.2655,1.0749,.3898,1.6766,.4323,1.6692,.0177-.003,.0067-.1568-.0306-.4474-.0391-.2902-.0935-.7194-.2037-1.2648-.2034-1.0936-.5611-2.6696-1.1925-4.5614-1.23239-3.7746-3.6512-8.8652-7.7436-13.4236-2.04379-2.2649-4.309-4.1361-6.5604-5.5251-2.2547-1.3883-4.4832-2.3044-6.41939-2.8088-1.93931-.508-3.56561-.6259-4.67951-.6391-.5576-.0045-.9904,.0444-1.28249,.0606-.29231,.0232-.44461,.0441-.44351,.062Z" style="fill:#ff9a6c;"></path></g></g><g id="freepik--Character_1--inject-535"><g><path d="M308.46009,245.5983l48.6657-.9801s-51.9132-17.4709-48.6657,.9801Z" style="fill:#263238;"></path><g><path d="M302.70469,314.2171s.9916,15.4047,.924,18.5729c-.1536,7.2107-1.9218,24.6276-1.9218,24.6276-1.01689,2.6168-9.2327,19.7026-11.2743,26.9453-2.0415,7.2428-1.1665,13.928-1.3351,17.7895-.1687,3.8616-2.875,20.8049-2.875,20.8049l12.3308,3.65s.92371-12.3312,9.5775-32.4268c5.8561-13.5992,12.3613-26.3196,14.8607-35.2415l.097,.007s14.913-34.5236,14.7012-45.1288c-.21169-10.6054-35.085,.3999-35.085,.3999Z" style="fill:#ae7461;"></path><g><path d="M286.11389,421.0094l2.0402-10.8652,14.3477,.1103s-3.889,13.4464-3.275,16.5125c.614,3.0662-3.5062,2.9429-3.5062,2.9429l-10.9632-2.0033,1.3565-6.6972Z" style="fill:#455a64;"></path><g><path d="M308.01839,453.7712s-6.5605-1.5894-11.1577-4.7831c-4.5973-3.1937-10.7516-9.0049-13.0335-11.1117-2.282-2.1067-10.4469-5.5913-9.4443-8.5761,1.0027-2.9849,12.0426-9.8033,12.0426-9.8033,0,0-.9267,3.4113,1.7897,4.8393,2.7162,1.4277,8.67681,3.0175,8.67681,3.0175,0,0,4.23889-2.1843,5.84419-1.4389,1.6052,.7454-1.4016,4.7867-1.4016,4.7867,0,0,.7246,7.3569,2.6346,9.9572,1.9101,2.6004,1.5537,3.4396,4.4926,5.2359,2.939,1.7965,3.7381,3.7144,3.7381,3.7144,0,0-.0386,3.2302-1.2446,3.7054-1.206,.4753-2.9369,.4567-2.9369,.4567Z" style="fill:#263238;"></path><path d="M311.02069,453.285c-1.1892,.6287-3.0174,.5313-3.0174,.5313,0,0-6.5605-1.5896-11.1577-4.7833-4.5974-3.1936-10.7515-9.0048-13.0335-11.1116s-10.4469-5.5914-9.4443-8.5763c.2667-.8209,.7403-1.5467,1.41521-2.1802,0,0,6.53089,6.5481,10.30479,8.6377,3.774,2.0897,10.2221,9.3012,14.4613,11.7018,4.2393,2.4004,9.5822,4.1136,9.5822,4.1136l1.8169,.0517c-.189,.7099-.22419,1.2564-.9275,1.6153Z" style="fill:#455a64;"></path><path d="M303.44609,439.3822c-.0715-.0471-.50409,.6118-1.313,1.0858-.8005,.4885-1.5856,.5576-1.5779,.643-.0131,.0727,.8491,.132,1.7246-.3978,.8808-.5203,1.2365-1.3081,1.1663-1.331Z" style="fill:#fff;"></path><path d="M302.25719,435.8209c-.06719-.0555-.6409,.6995-1.6598,1.1826-1.0108,.5006-1.9586,.4829-1.9568,.5699-.0219,.0699,.9915,.2228,2.08141-.3129,1.09539-.5232,1.60349-1.4135,1.53519-1.4396Z" style="fill:#fff;"></path><path d="M301.71459,432.7622c-.04359-.0714-.71859,.2877-1.6092,.5589-.8888,.2783-1.6486,.3625-1.6442,.4459-.0015,.0741,.7977,.1175,1.7285-.173,.9321-.2849,1.5679-.7714,1.5249-.8318Z" style="fill:#fff;"></path><path d="M283.86559,429.931c-.0231,.0305,.3107,.3307,.8838,.7742,.57261,.4435,1.3879,1.0259,2.3207,1.6195,.9337,.5931,1.8068,1.0841,2.4516,1.4144,.6448,.3308,1.05831,.5057,1.0761,.4717,.0383-.0734-1.5199-.9452-3.3744-2.1273-1.8568-1.1771-3.3076-2.2183-3.3578-2.1525Z" style="fill:#fff;"></path></g></g><path d="M301.876,356.4084l.47739-5.7373,23.68661,1.183s-2.95151,7.0919-4.076,10.3443c-1.12461,3.2524-9.10951,21.3707-9.10951,21.3707l-18.2757-10.107,7.29721-17.0537Z" style="fill:#263238;"></path></g><g><path d="M336.55889,158.5395s12.5564-7.0466,24.8312-2.9776l28.3637,.4194s27.3208-4.573,45.4716-.3975l-1.1278,7.3486s-34.4692,4.1903-38.2057,5.1195c-3.7364,.9293-45.7421,7.9747-46.70789,9.8898-.96571,1.9152-5.441,11.0819-5.441,11.0819l-7.18411-30.4841Z" style="fill:#ae7461;"></path><path d="M358.82429,167.5865c-.0328-.0544-.805,.3237-1.95,1.1075-1.14429,.7813-2.6412,1.9987-4.0822,3.5563-1.4382,1.5612-2.5325,3.1506-3.2199,4.3536-.6899,1.2039-1.00519,2.0036-.9484,2.0319,.1453,.083,1.7029-2.9733,4.551-6.0322,2.8211-3.082,5.7438-4.879,5.6495-5.0171Z" style="fill:#6f4439;"></path><path d="M432.20379,155.7201c-.1834-.001,12.517-.5822,13.6099-.3818,1.0928,.2005,6.39431,2.2285,6.39431,2.2285,0,0,4.30269,1.9985,4.00909,4.5505-.1334,1.1605-.4799,3.2614-.4799,3.2614,0,0,1.2264,1.7346,.7885,2.1065-.4379,.3721-1.334,.3014-1.8208,.1191-.4868-.1822-8.7011-3.344-10.3035-3.1429-1.60239,.2011-.735,1.5266-.4151,2.0075,.3199,.4808,3.351,2.8942,4.1559,4.2646,.76381,1.3002,.0259,2.0172-.5726,1.8044-.5984-.2128-6.7122-3.0508-8.0698-4.0613-1.3576-1.0104-1.4726-2.7276-3.8272-3.8631-2.35459-1.1355-4.3328-1.4306-4.3328-1.4306l.864-7.4628Z" style="fill:#ae7461;"></path><path d="M449.052,161.2583c-.06631,.1704,1.74209,.7615,3.73069,1.8365,1.99131,1.0986,3.11731,2.6252,3.2369,2.5309,.1288-.0523-.8704-1.814-2.9801-2.9839-1.0326-.582-2.0402-.9257-2.7683-1.1459-.7314-.2158-1.1957-.3043-1.21919-.2376Z" style="fill:#6f4439;"></path><path d="M451.41339,159.4347c-.0488,.1417,1.0835,.6391,2.3965,1.3842,1.3184,.7369,2.3217,1.4566,2.4189,1.3428,.09321-.1018-.7943-1.0304-2.163-1.7963-1.3636-.7727-2.6116-1.0621-2.6524-.9307Z" style="fill:#6f4439;"></path></g><g><path d="M310.80389,253.9624c-1.2877,1.1264-11.29889,21.8811-4.1247,34.0568l-6.0116,38.8223s34.3803-6.4625,41.2779-12.563l4.8637-21.6523-36.0053-38.6638Z" style="fill:#FF725E;"></path><g style="opacity:.3;"><path d="M309.35669,276.7601l16.8169,44.0812s12.89-3.1183,15.7719-6.5628l4.0844-18.1832-36.6732-19.3352Z"></path></g><path d="M311.90079,292.6697c.0981-.1053-1.0363-1.322-2.5335-2.7174-1.4976-1.3959-2.7907-2.4419-2.8888-2.3366-.098,.1051,1.0361,1.3216,2.5338,2.7175,1.497,1.3955,2.7905,2.4417,2.8885,2.3365Z" style="fill:#263238;"></path><path d="M310.40449,295.5425c.0996-.1038-.8521-1.1788-2.1253-2.4007-1.2738-1.2223-2.3867-2.1288-2.4863-2.025-.0994,.1037,.852,1.1785,2.1257,2.4008,1.2732,1.2219,2.3863,2.1285,2.4859,2.0249Z" style="fill:#263238;"></path></g><g><path d="M370.611,260.7s9.465,.9472,26.68019,3.8357c18.97381,3.1836,23.8744,4.1104,29.1784,11.5896,5.3041,7.4791,.102,16.8556-4.70359,22.7145-4.80561,5.8588-36.28531,42.1717-40.40391,51.6243l-12.2435-9.3045s9.5369-22.7181,15.5545-33.7487c6.0175-11.0306,8.9535-14.8584,9.5816-14.99,.62831-.1315-30.34069,2.3225-30.34069,2.3225l6.697-34.0434Z" style="fill:#ae7461;"></path><g><polygon points="366.78969 341.298 370.07969 338.8936 376.01519 325.3465 393.18 334.2144 379.79819 352.5835 368.45349 350.7195 366.78969 341.298" style="fill:#455a64;"></polygon><g><path d="M398.49459,371.4894s-7.2929-.0938-12.9045-2.3502c-5.6117-2.2563-13.4938-6.8947-16.4048-8.564-2.9112-1.6693-12.3507-3.3727-12.0137-6.7581,.337-3.3855,10.3229-13.2268,10.3229-13.2268,0,0-.1544,3.8165,3.0507,4.6661,3.205,.8495,9.8662,1.0881,9.8662,1.0881,0,0,3.93861-3.3219,5.809-2.9234,1.8703,.3983-.3232,5.3794-.3232,5.3794,0,0,2.5355,7.5744,5.1737,9.8531,2.6384,2.2788,2.46511,3.2487,5.9933,4.4328,3.5285,1.1841,4.8322,3.0117,4.8322,3.0117,0,0,.7374,3.4117-.41839,4.2027-1.15581,.7911-2.98341,1.1886-2.98341,1.1886Z" style="fill:#263238;"></path><path d="M401.53979,370.2539c-1.1011,.9487-3.0503,1.2865-3.0503,1.2865,0,0-7.2929-.0938-12.9046-2.3502s-13.4936-6.8947-16.4047-8.5641c-2.91119-1.6692-12.3506-3.3726-12.0137-6.7582,.0833-.9289,.4073-1.8075,.9654-2.6372,0,0,8.4564,5.3237,12.9349,6.6155,4.4784,1.292,13.0074,7.3344,18.0508,8.8417,5.0435,1.507,11.0839,2.0245,11.0839,2.0245l1.9261-.3832c-.0281,.7932,.0666,1.3774-.5878,1.9247Z" style="fill:#455a64;"></path><path d="M390.21229,357.435c-.0865-.0325-.3835,.7659-1.12129,1.46-.72551,.7073-1.53581,.9692-1.50711,1.0574,.0038,.0797,.926-.0655,1.7206-.8345,.8024-.7602,.9873-1.6756,.9078-1.6829Z" style="fill:#fff;"></path><path d="M388.10219,353.9703c-.0841-.0422-.5065,.8911-1.4634,1.6455-.9441,.7708-1.9466,.9804-1.9239,1.0717-.0061,.0788,1.0982-.0043,2.11711-.831,1.02779-.815,1.34849-1.8751,1.27019-1.8862Z" style="fill:#fff;"></path><path d="M386.79389,350.8793c-.0632-.0647-.6877,.4762-1.5604,.9763-.8691,.5072-1.6491,.779-1.6244,.8659,.0163,.0784,.8685-.0685,1.779-.5988,.9131-.5245,1.4656-1.1901,1.4058-1.2434Z" style="fill:#fff;"></path><path d="M367.31159,352.197c-.0169,.0377,.4071,.2736,1.1175,.6026,.70991,.3293,1.709,.7462,2.8346,1.1467,1.1262,.3998,2.1642,.7067,2.9228,.8993,.7589,.193,1.2366,.2777,1.2471,.2376,.0228-.0866-1.8285-.6294-4.06659-1.4278-2.23941-.7926-4.01831-1.5398-4.05541-1.4584Z" style="fill:#fff;"></path></g></g><path d="M313.897,244.1186c-1.40921,1.3045-11.30081,27.3322-1.08971,39.4597,10.2112,12.1274,49.2046,14.303,49.2046,14.303l17.3752-40.7103s-18.75809-1.9789-19.0729-2.5185c-.315-.5397-5.1133-20.4375-5.1133-20.4375,.1498-.5697-41.5481,4.7664-41.2633,4.8414l-.04059,5.0622Z" style="fill:#FF725E;"></path><path d="M332.52139,251.6632c-.0003,.036,.3943,.075,1.1075,.1147,.8257,.0409,1.8333,.0908,3.0189,.1496,2.5477,.1247,6.0648,.3286,9.932,.729,3.8681,.4043,7.3467,.9506,9.852,1.4189,1.1646,.2244,2.1544,.4151,2.9653,.5713,.7004,.1377,1.0924,.1975,1.1013,.1626,.0088-.0348-.3665-.161-1.0541-.3597-.6864-.2025-1.6906-.4554-2.9391-.735-2.49619-.5628-5.9858-1.1701-9.8713-1.576-3.8845-.4023-7.4185-.5486-9.9746-.5792-1.27829-.0158-2.3128-.0085-3.0277,.0157-.7148,.0227-1.11,.0522-1.1102,.0881Z" style="fill:#263238;"></path><path d="M316.49079,242.6786s-9.7574,19.6535,1.2273,29.7408c10.9848,10.0873,48.3917,15.8606,48.3917,15.8606l8.378-19.6298s-46.4969-9.3533-48.2699-12.3919c-1.7731-3.0388,3.7037-17.8484,3.2545-17.7193,0,0-9.5299-.5092-12.6989,.2954-.7658,.1944-.2827,3.8442-.2827,3.8442Z" style="fill:#e0e0e0;"></path><path d="M349.60079,276.1309c.0219,.0284,.3369-.1773,.8887-.5744,.5544-.3935,1.33-.999,2.2637-1.7775,1.8687-1.5542,4.32981-3.8585,6.7667-6.6627,2.4332-2.8094,4.36711-5.5713,5.6419-7.6408,.6389-1.0342,1.1289-1.8874,1.4401-2.4918,.3152-.6022,.4744-.9429,.44311-.9606-.072-.041-.84321,1.2457-2.19231,3.2524-1.3471,2.0075-3.312,4.712-5.7262,7.4994-2.4179,2.7824-4.8177,5.1092-6.6149,6.7263-1.7963,1.619-2.9615,2.5642-2.9108,2.6297Z" style="fill:#263238;"></path><path d="M354.66539,276.5452c.0075,.0351,.3281-.0152,.9055-.1375,.5833-.1002,1.3989-.3631,2.38611-.7469,1.96079-.7919,4.47069-2.4805,6.50849-5.0031,2.0443-2.51,3.428-5.0824,4.44251-6.9105,1.001-1.8408,1.60889-2.9833,1.54639-3.0216-.06-.0369-.7827,1.0438-1.8653,2.8377-1.0955,1.7815-2.5237,4.3069-4.5249,6.7625-1.9958,2.4667-4.3764,4.1353-6.2564,4.9984-1.8869,.8583-3.1697,1.1141-3.1424,1.221Z" style="fill:#263238;"></path><path d="M313.89689,244.1185c.006,.0028,.0129-.1012,.0207-.3112,.0065-.2296,.0151-.5412,.0266-.9486,.0159-.8686,.039-2.1336,.0695-3.8016l-.055-.0739c.12031,.0978-.0518,.1868,.0104,.1405h.0011l.003-.0007,.0183-.0036,.039-.007,.0812-.0131,.1667-.0248c.1125-.0157,.2269-.0317,.3431-.0478,.2331-.0311,.47351-.0631,.7211-.0961,.4965-.0639,1.022-.1317,1.5757-.203,1.1106-.1398,2.3345-.2939,3.66671-.4616,2.672-.3292,5.77739-.7116,9.273-1.1422,6.94859-.8185,15.44619-1.8194,25.13869-2.9611l-.0006,.1018c1.3744,5.7017,2.8508,11.8913,4.5221,18.4442l.329,1.2328c.0652,.2155,.09881,.3929,.19181,.6426l.06389,.1758c.0394,.08,.2284,.1931,.25211,.1853,.12139,.0457,.232,.0745,.33859,.0996,.8595,.1975,1.7088,.3179,2.5716,.4493,1.7223,.2515,3.46881,.474,5.2373,.6915,3.5372,.4324,7.16051,.8409,10.8579,1.2377l-.2066-.3518c-3.1792,7.4434-6.5314,15.2919-9.9757,23.3559-2.5357,5.9444-5.0213,11.7714-7.4023,17.353l.2504-.1554c-6.6107-.4412-13.0106-1.2388-19.0973-2.2924-6.0822-1.0729-11.8733-2.4213-17.1617-4.2992-2.6391-.944-5.1525-2.0254-7.4393-3.3382-2.286-1.3029-4.3437-2.882-5.8206-4.8391-1.5015-1.9403-2.4681-4.1488-3.0649-6.3397-.6069-2.1935-.8836-4.3728-.9867-6.4505-.1864-4.1642,.25431-7.9254,.8329-11.1617,.57941-3.242,1.3086-5.9791,1.9835-8.1812,.6717-2.2049,1.3133-3.8705,1.7836-4.98,.4637-1.1146,.8412-1.6245,.8412-1.6245,0,0-.1318,.0982-.2892,.3675-.1703,.2602-.3795,.6714-.6381,1.2185-.5002,1.1013-1.1714,2.7614-1.8722,4.9635-.7039,2.1999-1.4619,4.9379-2.0692,8.1886-.6061,3.2455-1.0749,7.0221-.9097,11.2249,.0927,2.0973,.3607,4.3028,.9669,6.5337,.5961,2.2275,1.5712,4.4871,3.10361,6.4839,1.51279,2.0198,3.61419,3.6395,5.92439,4.966,2.31361,1.3383,4.8463,2.4358,7.5013,3.3935,5.3197,1.9049,11.13,3.2698,17.2295,4.3566,6.10681,1.0672,12.5104,1.8736,19.1534,2.3224l.1788,.0121,.0717-.1678c2.383-5.5806,4.871-11.4066,7.409-17.35,3.44-8.066,6.788-15.9162,9.9633-23.3613l.13461-.3156-.34141-.0363c-3.6944-.3924-7.3177-.796-10.8515-1.2222-1.7665-.2146-3.5116-.4337-5.2268-.6811-.8537-.1279-1.715-.2504-2.5261-.4351-.10219-.0237-.1983-.0499-.2775-.0794-.0221-.0058-.0513-.0192-.0249-.0074-.0039,.0127,.0327-.0071-.009,.0384-.0307,.0297-.0654,.0554-.1031,.0769,.0345-.0203-.15769,.0904,.0608-.0407,.1282-.0777,.0341-.0262,.0621-.0456l-.0401-.1272c-.057-.1505-.1146-.3909-.1718-.5826l-.3294-1.2236c-1.6827-6.5394-3.177-12.7289-4.5705-18.4233l-.0007,.1014c.0303-.0678-.0354-.2095-.0686-.2218-.0191-.0156-.041-.0296-.0638-.0406-.0508-.0224-.0454-.015-.0712-.023-.0396-.0092-.055-.0083-.0837-.0125l-.1301-.0063-.2405,.002-.4653,.0224-.91489,.0684c-.60451,.0565-1.20411,.1127-1.79881,.1684-1.1865,.1271-2.3533,.2521-3.4999,.3748-2.28929,.2677-4.4977,.5259-6.6195,.774-4.23679,.5283-8.1277,1.0134-11.6284,1.4498-3.4926,.4576-6.59539,.8641-9.2651,1.2139-1.3306,.1817-2.5531,.3486-3.6625,.5001-.553,.0784-1.0779,.1526-1.5737,.223-.2475,.0364-.4878,.0719-.7207,.1062l-.3436,.053-.1679,.0275-.0835,.0149-.0427,.0084-.0222,.0048-.0171,.0048-.0087,.0029c.0582-.0462-.1158,.0454,.004,.1471l-.0551-.0736c.0038,1.6581,.0066,2.9155,.0085,3.7788,.0048,.4114,.0084,.726,.0112,.9577,.0044,.2144,.0095,.3237,.0156,.3262Z" style="fill:#263238;"></path><path d="M414.26089,285.0389c-.0026-.0359-.3213-.0409-.8973-.0192-.5763,.016-1.4075,.0908-2.4292,.2284-2.0428,.2713-4.8463,.8822-7.7989,1.9932-2.9511,1.1182-5.4588,2.5128-7.1711,3.6595-.8577,.572-1.5308,1.0654-1.9738,1.4341-.44659,.3645-.6822,.5788-.6605,.6075,.0513,.0681,1.0815-.675,2.8308-1.7302,1.7472-1.0569,4.2466-2.3801,7.1586-3.4837,2.9137-1.0961,5.66351-1.7552,7.6731-2.1168,2.0102-.3645,3.2748-.4878,3.2683-.5728Z" style="fill:#6f4439;"></path><path d="M329.55759,255.2259c-.01759-.0602-1.0911,.1744-2.7669,.7581-1.6748,.5814-3.9394,1.5495-6.2882,2.9051-2.347,1.3604-4.31549,2.841-5.6546,4.0028-1.3415,1.1616-2.08,1.975-2.0366,2.0203,.0553,.0591,.88071-.6567,2.2696-1.7351,1.3875-1.0795,3.36411-2.4933,5.6824-3.8372,2.32-1.3389,4.5308-2.3473,6.1585-3.0117,1.62721-.6663,2.6595-1.0249,2.6358-1.1023Z" style="fill:#263238;"></path><path d="M330.26289,254.8223c-.004-.0664-.7681-.0936-1.9975,.0114-1.2283,.1038-2.9199,.3629-4.7416,.8485-1.8216,.4886-3.417,1.1084-4.5332,1.6315-1.11759,.5226-1.7659,.9275-1.7363,.987,.0688,.1443,2.8078-1.1655,6.404-2.1154,3.5892-.9714,6.617-1.2037,6.6046-1.363Z" style="fill:#263238;"></path></g><g><path d="M281.186,120.0229c-.09921-.8083-.108-1.6391-.37641-2.4081-.2683-.769-.8738-1.4901-1.6807-1.6006-.807-.1105-1.6925,.6617-1.4694,1.4448-1.924-2.0633-1.3959-5.5854-3.2494-7.7124-1.1913-1.3672-3.1684-1.8471-4.9668-1.6153-2.8856,.3721-5.4739,2.4941-6.4045,5.2507-.8096,2.3977-.3281,5.1721,1.1724,7.2002-1.25619-1.2818-2.97919-2.1506-4.6965-1.7725-2.4082,.5302-3.7499,3.3797-3.3379,5.8111,.4119,2.4313,2.1269,4.4387,4,6.0427,5.45721,4.6723,12.89021,6.957,20.0296,6.1565l5.0353-9.663c-2.2202-1.7191-3.7141-4.3471-4.05569-7.1341Z" style="fill:#263238;"></path><g><path d="M279.98259,129.3763c2.2336-7.5339,7.0416-13.3505,14.2397-16.515,4.0611-1.7851,6.1103-1.6471,9.3893-2.0901,3.2786-.4434,6.5995,.0189,9.4039,1.7725,3.3307,2.0825,6.4767,4.6598,8.3844,8.0924,1.9589,3.5259,3.4178,7.2424,4.4507,11.1412,1.25641,4.7425,1.1012,9.1875,.1812,13.1151l-7.2549,4.1605c-5.1402,2.3682-8.2624,9.5199-13.8425,10.4653-5.5805,.9455-12.5182-1.5325-17.1093-4.838-6.3787-4.5925-10.0762-17.7698-7.8425-25.3039Z" style="fill:#263238;"></path><path d="M320.80249,123.3939c-2.5658-5.9674-11.0973-11.9771-18.5081-8.8953l-3.449,.9996-10.487,10.2869c-1.7793,.8556-2.60839,2.9297-1.908,4.7743l18.2932,37.2176,20.9639,7.0099-2.6588-12.3596-1.2325-3.7386s8.0771-4.3584,6.0593-15.1113c-1.0038-5.3475-4.2223-13.5541-7.073-20.1835Z" style="fill:#ae7461;"></path><path d="M312.10269,147.4875c-.15-.5485-.054-1.1294,.182-1.5999,.4721-.941,1.5241-1.4549,2.542-1.2424,1.018,.2127,1.9394,1.1386,2.2266,2.2384h0c-.1872,.7943-.69229,1.4899-1.41529,1.87-.11251,.059-.22771,.1124-.34641,.1587-.5752,.2242-1.2347,.2753-1.8453,.0387-.6104-.2364-1.1584-.7868-1.3436-1.4635Z" style="fill:#6f4439;"></path><path d="M321.68239,133.0293c.2708,.6811-.0832,1.471-.7892,1.7665-.7047,.295-1.496-.0153-1.7668-.6958-.27039-.6804,.0832-1.4715,.7873-1.7664,.70631-.2961,1.4982,.0156,1.7687,.6957Z" style="fill:#263238;"></path><path d="M319.94509,127.6668c-.101,.228-1.3519-.1502-2.7564,.355-1.4099,.4849-2.1833,1.5757-2.3973,1.4579-.1022-.0493-.0465-.4152,.2855-.9023,.3259-.4832,.9672-1.0686,1.8439-1.3778,.8773-.3075,1.729-.2483,2.2699-.0699,.5506,.1771,.807,.4326,.7544,.5371Z" style="fill:#263238;"></path><path d="M315.64219,142.1407c-.03519-.0775,.7846-.5401,2.13581-1.2266,.34539-.165,.65979-.3578,.633-.6239-.00811-.2894-.29621-.6222-.61921-.9772-.6475-.7474-1.3257-1.5309-2.037-2.3519-2.8624-3.3613-5.0721-6.1774-4.9356-6.2911,.1369-.1142,2.5683,2.5179,5.4311,5.8793,.6969,.8322,1.3628,1.6246,1.9979,2.3838,.2816,.3591,.68,.738,.6889,1.341-.0009,.3029-.195,.591-.4029,.7352-.205,.1524-.4054,.2281-.5791,.3021-1.3975,.5852-2.2792,.9071-2.3129,.8293Z" style="fill:#263238;"></path><path d="M321.82739,158.671s-6.6939,2.8874-14.93839,1.2339c0,0,6.02629,6.2642,15.87969,1.6732l-.9413-2.9071Z" style="fill:#6f4439;"></path><path d="M311.85279,144.5884c.2237-.0946,.7711,1.4285,2.4638,2.0441,1.6909,.6206,3.2561-.1312,3.3443,.0774,.0554,.0881-.2565,.4254-.936,.689-.6651,.2634-1.7258,.3984-2.7611,.0216-1.0339-.3787-1.6927-1.1418-1.968-1.7486-.2857-.6165-.2506-1.0549-.143-1.0835Z" style="fill:#263238;"></path><path d="M317.45619,123.0562c-.1136,.4272-1.2721,.5823-2.49219,1.1357-1.23781,.514-2.14391,1.256-2.53051,1.0458-.1772-.1069-.1591-.49,.1536-.9906,.3066-.4966,.9355-1.0798,1.7803-1.4472,.8449-.3661,1.6973-.4271,2.2667-.3105,.5766,.1143,.8653,.3641,.8221,.5668Z" style="fill:#263238;"></path><path d="M306.54239,138.6142c.2479,.6892,1.0361,1.0475,1.7613,.8015,.7234-.2448,1.1111-1.0011,.8635-1.6904-.2479-.6891-1.0367-1.048-1.7601-.8029-.7252,.2453-1.1124,1.0027-.8647,1.6918Z" style="fill:#263238;"></path><path d="M301.12869,134.9455c.2268,.1041,.9139-1.0071,2.3012-1.5578,1.3778-.5695,2.68-.2636,2.7625-.4934,.0437-.1045-.24039-.3421-.8118-.4876-.5641-.1463-1.4327-.1609-2.2943,.1874-.8614,.3501-1.4606,.958-1.748,1.4494-.2952,.4972-.3185,.8581-.2096,.902Z" style="fill:#263238;"></path><path d="M300.10589,130.2006c.3984,.2053,1.3374-.5483,2.6166-1.0776,1.2627-.5691,2.4588-.7379,2.5778-1.167,.0462-.2036-.2514-.45-.84629-.5575-.58741-.109-1.46831-.0383-2.34221,.3387-.8733,.3782-1.525,.9688-1.843,1.4699-.3252,.5046-.34479,.8881-.1629,.9935Z" style="fill:#263238;"></path><path d="M295.18759,146.5553c-.2723-.757-1.7873-2.2308-2.5783-2.08-2.11129,.4025-5.6594,1.85-3.88,6.9373,2.433,6.9538,8.9195,3.0768,8.8619,2.8731-.0449-.1593-1.4625-5.1159-2.4036-7.7304Z" style="fill:#ae7461;"></path><path d="M294.78219,152.4165c-.03819-.0116-.0916,.1273-.2634,.2925-.1684,.1612-.48979,.3448-.9003,.3358-.8296-.0127-1.8567-.9625-2.3286-2.2044-.2396-.6268-.3176-1.2757-.268-1.8533,.0348-.5832,.2397-1.0536,.5872-1.2486,.3383-.2138,.67791-.0838,.8315,.0816,.1616,.162,.1657,.3164,.2068,.3153,.0255,.0108,.10861-.1686-.0478-.4359-.0772-.1284-.2161-.2642-.42659-.3404-.21431-.0772-.48391-.0605-.73251,.0574-.5237,.225-.834,.8872-.8892,1.521-.0836,.6469-.0108,1.3816,.2578,2.0854,.5348,1.3858,1.7112,2.4459,2.8195,2.3848,.5338-.0437,.8911-.3339,1.0443-.5718,.1558-.2468,.1379-.4153,.1093-.4194Z" style="fill:#6f4439;"></path><path d="M292.34069,144.6108l2.4752,1.0625c4.4512-10.2462,11.5058-34.1826,11.1404-32.7794,0,0-5.9811,.0464-11.1204,3.3138-5.1395,3.2672-14.4753,10.4455-11.57189,16.9006,2.90349,6.4551,9.07669,11.5025,9.07669,11.5025Z" style="fill:#263238;"></path></g><path d="M288.38679,116.5277c-.0223-.0283-.3457,.2045-.91479,.6527-.28921,.2191-.63211,.5003-.99431,.8666-.3665,.3608-.81069,.7488-1.2223,1.2514-.8807,.9544-1.7991,2.2079-2.681,3.6832-.8496,1.4933-1.6432,3.219-2.2341,5.1158-.5661,1.905-.8685,3.7807-.9948,5.4943-.0894,1.7167-.0249,3.2694,.1749,4.5527,.0617,.6466,.21461,1.2162,.3179,1.7201,.09671,.506,.2248,.9304,.343,1.2734,.2229,.6892,.3618,1.0625,.396,1.0515,.1044-.0298-.4142-1.5486-.6914-4.0898-.1504-1.2682-.175-2.7929-.0617-4.4738,.1501-1.6782,.4602-3.511,1.0143-5.3768,.5791-1.8574,1.3424-3.5519,2.1524-5.029,.84211-1.4588,1.7118-2.7113,2.5432-3.6808,1.6458-1.956,2.9227-2.9286,2.8527-3.0115Z" style="fill:#455a64;"></path></g><g><path d="M358.47169,216.1902s-1.4955-20.5927-3.8423-30.4c-2.3466-9.8074-18.0705-27.2507-18.0705-27.2507l-12.2844,3.6462,1.433,12.6012-20.4588-6.4556-11.1065,5.4258,4.6187,35.86,7.173,14.4246c-1.1191,10.1773-4.2447,17.7852,2.5262,21.5566h0c-.20209-3.7121,.8488-6.0969,4.5487-6.4581,20.08621-1.961,34.7719,2.0089,45.2587,5.8753,4.27851,1.5773,.8517-15.0592,.8517-15.0592,0,0,1.4189-1.8492,3.0956-3.9568,1.5891-1.9975-3.7161-9.704-3.7431-9.8093Z" style="fill:#FF725E;"></path><g style="opacity:.3;"><path d="M358.94809,229.8139c-11.9595-1.1945-24.3968-2.3342-35.6913,1.7752,10.6381,.7674,21.3523,.4772,31.9333-.8652"></path></g><path d="M305.51679,223.2029s3.3608,.1475,4.654-8.6124c1.2931-8.7598-13.90979-41.8685-14.0157-41.8168-.1059,.0518-2.0129,.9834-2.0129,.9834l4.40081,35.4221,6.97379,14.0237Z" style="fill:#e0e0e0;"></path><path d="M354.66269,230.8035c-.0022-.0171-.2235-.0075-.6436,.0267-.4712,.0429-1.0803,.0987-1.837,.1677-1.59609,.1499-3.9105,.3516-6.785,.528-5.7457,.3616-13.75009,.5308-22.6489-.1164l.0701,.5034c.6061-.2018,1.25571-.4183,1.91-.6361,2.2351-.6769,4.4654-1.1727,6.64171-1.5248,2.18129-.3201,4.3-.5365,6.32659-.6353,4.0532-.2072,7.71641-.063,10.7851,.1007,3.0701,.1751,5.5521,.3839,7.2684,.5158,.8163,.0596,1.4728,.1076,1.9776,.1445,.4526,.0276,.6912,.0336,.6929,.0157,.0018-.0179-.2332-.0588-.68259-.1202-.50241-.0617-1.15581-.1419-1.96851-.2418-1.7111-.194-4.1899-.4589-7.2644-.6816-3.0735-.2109-6.7494-.3946-10.8316-.2123-2.0409,.0862-4.1786,.2939-6.3817,.6104-2.1987,.3485-4.455,.8461-6.7176,1.5314-.6623,.2209-1.32,.4404-1.9337,.6451l-1.2294,.4102,1.2996,.0933c8.9289,.6413,16.9594,.4103,22.7109-.0453,2.8777-.2233,5.1909-.4799,6.7821-.6901,.79631-.0991,1.4111-.1979,1.8277-.2619,.4164-.0667,.6334-.1099,.6313-.1271Z" style="fill:#263238;"></path><polygon points="303.73279 169.0718 328.11869 178.6677 325.00649 161.9085 323.04869 162.4273 325.70749 174.7869 304.83329 167.5987 303.73279 169.0718" style="fill:#e0e0e0;"></polygon><path d="M333.88039,159.3345l17.7593,19.4803c-2.4372-5.1275-8.0233-12.7316-14.1424-20.7548l-3.6169,1.2745Z" style="fill:#e0e0e0;"></path><path d="M358.26749,245.0155c.0122-.0338-.5767-.2798-1.6528-.6959-1.0776-.4117-2.6455-.9863-4.6052-1.6346-3.914-1.296-9.431-2.8593-15.6849-3.7353-6.2558-.8686-11.9991-.8785-16.11559-.5674-2.05911,.1696-3.72141,.3336-4.86161,.5211-1.1426,.164-1.7711,.2714-1.7663,.3071,.00491,.0356,.6425-.0039,1.7896-.1057,1.1449-.1253,2.807-.2329,4.86-.3548,4.1052-.2158,9.8065-.1473,16.0216,.7155,6.2131,.8703,11.7131,2.3674,15.6458,3.5704,1.9684,.6017,3.552,1.1223,4.6492,1.4749,1.0958,.357,1.708,.5384,1.7202,.5047Z" style="fill:#263238;"></path><path d="M343.03789,192.7993l.8582,3.0474-2.6803,19.3931-5.1076,1.4392,2.64-18.5368-6.7328,1.8975,.9321,3.308-4.1788,1.1778-2.0113-7.1391,16.2805-4.5871Z" style="fill:#e0e0e0;"></path><path d="M349.89119,203.8248c-.0268-.1413-5.1883,.7163-11.5273,1.9153-6.3411,1.1994-11.4584,2.2858-11.4316,2.4271,.02671,.1413,5.1872-.716,11.5284-1.9154,6.3389-1.199,11.4572-2.2857,11.4305-2.427Z" style="fill:#263238;"></path></g><g><g><circle cx="246.498" cy="86.08103" r="23.94939" transform="translate(-14.05421 69.23602) rotate(-15.55092)" style="fill:#FF725E;"></circle><g><path d="M230.26559,79.1781c-.79959-.1541-1.6095-.1626-2.3729-.0352-.0478,.0079-.09569,.0133-.1429,.0233l-.1407,.033c-.0936,.0221-.1866,.0442-.2792,.0662-.18289,.0533-.3623,.1141-.5385,.1753-.34939,.1342-.6756,.3013-.98139,.4842-.30421,.186-.58211,.395-.84211,.6111-.254,.2225-.4924,.4501-.70489,.6892-.79971,.8915-1.319,1.8522-1.67591,2.7247-.0543,.6255-.08409,1.2573-.0889,1.8946,.16-.452,.3511-.9457,.5924-1.4676,.1998-.4272,.4311-.8728,.7191-1.314,.2892-.4402,.6259-.8848,1.031-1.2959,.2005-.2077,.4217-.4017,.6536-.5903,.2369-.1817,.4864-.3555,.7544-.5071,.2694-.1482,.5524-.2817,.8512-.3859,.1512-.0464,.3035-.0932,.4589-.134l.2377-.0486,.1193-.0249c.0401-.0075,.08121-.0103,.1218-.0159,.6495-.0887,1.3415-.0667,2.0351,.0837,.0806,.0178,.1612,.0373,.2418,.0578,.1117-.3119,.227-.6236,.3481-.9348-.1322-.0324-.2645-.0629-.397-.0889Z" style="fill:#263238;"></path><path d="M232.12489,80.9187c1.3334,.7181,2.4852,1.8883,3.46911,3.2654,.987,1.3799,1.81349,2.9752,2.67059,4.6178,.8533,1.6409,1.6672,3.2615,2.4919,4.8132,.4127,.7757,.8244,1.5358,1.2459,2.272,.207,.3697,.4234,.7302,.63261,1.0887,.21709,.3547,.42539,.7084,.64519,1.0503,1.7172,2.7589,3.62,5.0436,5.4535,6.6996,1.82931,1.6688,3.576,2.697,4.8252,3.2707,.3093,.1516,.5967,.2592,.8433,.3555,.1239,.047,.237,.0928,.343,.1284,.0209,.0063,.1261,.0318,.1463,.0379,.1123-.0417,.2209-.0816,.3324-.125-.0063-.0033-.0955-.0301-.10189-.0334l-.26581-.1365c-.0971-.0513-.20119-.1123-.3154-.1743-.2275-.1261-.4937-.2616-.7802-.4392-1.1589-.678-2.7797-1.7713-4.4829-3.4597-1.7091-1.6799-3.4841-3.9341-5.1192-6.6662-.2092-.3381-.4083-.6894-.6159-1.0403-.2003-.3559-.4079-.7125-.6074-1.08-.4055-.7303-.8046-1.4863-1.2073-2.259-.7977-1.5567-1.6235-3.1686-2.4694-4.8195-.8598-1.6456-1.7103-3.2792-2.7741-4.7426-.2675-.3637-.5412-.7199-.8367-1.0555-.1428-.1712-.2992-.3312-.44869-.4946-.15781-.1568-.30921-.3176-.47371-.4651-.3188-.3038-.6607-.5799-1.0134-.8389-.1796-.1238-.3555-.2506-.5417-.3598-.0924-.0554-.1816-.1153-.276-.1662l-.2814-.1533c-.2913-.155-.5893-.2905-.8914-.4083-.124,.3165-.24139,.6335-.3556,.9508,.2567,.1067,.5105,.2288,.7591,.3671Z" style="fill:#263238;"></path><path d="M268.05489,96.1843c-.0722-.1017-.15-.2111-.233-.3281-.0847-.1159-.1786-.2361-.2768-.3647-.199-.2553-.42009-.5391-.6622-.8498-.2471-.3066-.5246-.6322-.8201-.9848-.2924-.3556-.6261-.7168-.9731-1.1068-.3443-.3926-.7279-.7888-1.1269-1.2092-.3946-.4248-.8336-.8444-1.2806-1.2927-.2221-.2255-.46119-.4425-.6996-.6691-.2402-.2249-.4824-.4567-.734-.6868-.2545-.2269-.5133-.4578-.7764-.6924-.132-.1167-.2634-.2364-.399-.3531-.1367-.1156-.2744-.2321-.413-.3495-.2783-.2337-.5578-.4744-.8468-.7114-.2917-.2338-.58739-.4707-.8867-.7106-.297-.243-.61-.4733-.922-.7121-.31369-.2365-.627-.4815-.9555-.7128-.3261-.2346-.6557-.4716-.9886-.711-.3387-.2309-.6807-.464-1.0257-.6993-1.3886-.9286-2.86089-1.839-4.4056-2.7071-1.5494-.8609-3.0967-1.638-4.6157-2.3342-.3812-.1706-.7591-.3397-1.1334-.5071-.3784-.1581-.753-.3146-1.1239-.4696-.3692-.1585-.742-.297-1.108-.4402-.367-.1406-.7271-.2866-1.0899-.4121-.3612-.1293-.7179-.2569-1.0699-.3829-.3534-.1219-.7049-.2339-1.0498-.3483-.17269-.0567-.344-.1128-.5141-.1687-.17059-.0543-.3413-.1035-.51-.1547l-.99659-.2984c-.32791-.0937-.65231-.1785-.96971-.2653-.318-.0843-.6281-.1741-.9366-.2451-.0634-.015-.1253-.0302-.1881-.0454l-.0162,.0266c-.0627,.1109-.12539,.2221-.1883,.3335l-.2262,.4001c.1309,.0371,.2625,.0743,.396,.111,.3016,.0808,.6046,.18,.9153,.2734,.3101,.0957,.6271,.1891,.9475,.2909,.31931,.1054,.644,.2126,.9739,.3214,.1649,.055,.3318,.1077,.4985,.1654,.1661,.0591,.3337,.1186,.5024,.1786,.3371,.1208,.6807,.2387,1.0261,.366,.3441,.1308,.6929,.2635,1.0461,.3977,.3546,.13,.7067,.28,1.0657,.4241,.358,.1467,.7228,.2882,1.0841,.4493,.3629,.1569,.7297,.3154,1.1,.4756,.3666,.1684,.7366,.3385,1.1101,.5102,1.4881,.6982,3.0062,1.4691,4.53,2.3158,1.5191,.8538,2.9708,1.7425,4.345,2.6437,.3418,.2281,.6806,.4541,1.0161,.6779,.3304,.2315,.6576,.4607,.98131,.6876,.32649,.2232,.63809,.4597,.95059,.6876,.3108,.2302,.623,.4514,.9196,.6853,.2995,.2303,.5951,.4579,.8869,.6824,.2894,.2274,.5698,.4582,.8493,.682,.1395,.1123,.2779,.2236,.4153,.3343,.1366,.1116,.2689,.2262,.4021,.3378,.2656,.2238,.5271,.4442,.7841,.6609,.2546,.2195,.5002,.4406,.7443,.6544,.2423,.2158,.4856,.4218,.7125,.6363,.4564,.4261,.9064,.8232,1.3137,1.2252,.4117,.3977,.8098,.771,1.1699,1.1405,.3628,.3669,.7139,.705,1.025,1.0374,.3159,.3284,.61,.634,.88071,.9154,.267,.2852,.51079,.5459,.73039,.7804l.3134,.3301,.2713,.2936c.0578,.0619,.1497,.1848,.202,.2397,.0493-.1005,.11091-.2279,.15891-.3292-.01881-.027-.08641-.0915-.10611-.1196Z" style="fill:#263238;"></path><path d="M233.21929,73.9968c-.16-.0369-.3188-.0721-.4758-.1038-.56249-.1197-1.0967-.239-1.6072-.3267-.5098-.0914-.98829-.1865-1.4406-.2494-.4514-.067-.87069-.133-1.2581-.1828-.3882-.0436-.7428-.0834-1.0619-.1191-.1596-.0164-.31-.0334-.4519-.0449l-.3982-.0266-.0695-.004c-.0618,.0952-.1234,.1905-.1839,.2867,.0667,.0142,.1357,.0287,.2095,.0438l.3889,.0774c.1383,.0294,.2857,.0609,.4417,.0942,.3122,.0641,.6591,.1354,1.0388,.2134,.3784,.0833,.7893,.1738,1.23091,.2709,.44249,.0909,.91059,.213,1.40909,.3299,.4993,.1133,1.0216,.2568,1.5715,.3992,.08141,.0203,.1641,.0427,.2463,.0644l.3666-.6455,.0438-.0771Z" style="fill:#263238;"></path><path d="M237.41479,69.7835c.1036,.0302,.2076,.0599,.3131,.088,.2518,.0678,.5085,.1237,.7707,.1874,.2627,.0581,.5316,.1108,.8052,.1649,1.0964,.2003,2.2798,.3342,3.524,.4036,1.2441,.0665,2.5487,.0743,3.8927,.0444,1.3447-.0265,2.72951-.0898,4.14-.1301,.7053-.0208,1.40051-.0363,2.0841-.0383,.6837-.0041,1.3557,.0042,2.0139,.0302,1.3169,.0455,2.5772,.1682,3.7621,.3637,1.1841,.2034,2.2848,.4864,3.2851,.8458,.9987,.3623,1.894,.7927,2.6718,1.2508,.7778,.4588,1.4403,.9424,1.98451,1.4118,.13619,.1171,.26069,.2376,.38529,.3494,.0609,.0573,.1244,.11,.1803,.1677l.1649,.1689c.1069,.111,.2143,.2136,.3092,.3178l.2659,.302c.1396,.1486,.2506,.2953,.3545,.4256-.3027-.6645-.6352-1.3118-.995-1.9413-.07509-.0825-.1516-.166-.2334-.2489-.5316-.5397-1.1969-1.0971-1.9916-1.6266-.7948-.5289-1.7206-1.0267-2.7615-1.4485-1.04159-.4188-2.2017-.7539-3.434-.9947-1.23459-.2336-2.5451-.3829-3.9-.4449-.67759-.0344-1.3665-.0486-2.06359-.0483-.69751-.0018-1.40321,.012-2.11521,.0329-1.4251,.0409-2.80679,.1119-4.1362,.1529-1.32959,.0446-2.6065,.0584-3.8182,.0218-1.211-.0395-2.3556-.135-3.416-.2883-.4991-.0762-.98139-.1598-1.43939-.2577l-.12341,.1484c-.1608,.1935-.3207,.3904-.4798,.5896Z" style="fill:#263238;"></path><path d="M236.58719,68.6499c-.4135-.1499-.79-.3267-1.1174-.5334-.3253-.2061-.6147-.4399-.8322-.6877-.4455-.503-.674-1.0697-.7638-1.539-.0141-.073-.0232-.143-.0303-.2115-.136,.0843-.2708,.1701-.4049,.2569l.0001,.0047c.033,.5548,.227,1.2386,.7111,1.8863,.4871,.6468,1.2466,1.1846,2.1447,1.5636,.0277,.0119,.05651,.0223,.0846,.0339,.17991-.2239,.36091-.4443,.5432-.6609-.1142-.036-.2262-.0734-.3351-.1129Z" style="fill:#263238;"></path><path d="M234.30739,74.2876l.0162-.0266,.183-.2985c.907-1.5038,1.8885-2.8993,2.9082-4.179,.1587-.1992,.31821-.3961,.4786-.5895l.1232-.1484,.321-.3872c.1511-.1737,.30041-.3473,.4525-.5156,.3016-.3394,.6068-.6663,.9143-.981,.6139-.6304,1.2405-1.2085,1.8774-1.7262,.6351-.5203,1.2859-.9715,1.9358-1.362,.1617-.0992,.32741-.1868,.4883-.2796,.1628-.0808,.3207-.163,.4826-.2388,.1658-.0701,.3282-.1426,.4919-.2092,.1665-.0624,.3311-.1239,.4938-.1847,.65881-.2284,1.3041-.4064,1.9199-.5551,.618-.1389,1.2056-.2572,1.7598-.3361l.0769-.0107c-.92779-.1076-1.8704-.1622-2.825-.1598-.384,.0908-.7767,.1941-1.17879,.3179-.17451,.0586-.35121,.1178-.52971,.1777-.1776,.0654-.3561,.1379-.53729,.2082-.17971,.0769-.36081,.1637-.54291,.2481-.1734,.0928-.3523,.181-.5264,.281-.7004,.3934-1.4006,.8528-2.0799,1.3828-.6815,.5276-1.3482,1.1176-1.9972,1.7589-.325,.3202-.6465,.6525-.9631,.9966-.1597,.1711-.3158,.3467-.474,.5229l-.4643,.5426c-.0636,.0744-.1265,.1512-.1899,.2265-.18229,.2166-.36329,.437-.5432,.6609-.9815,1.2213-1.9256,2.5476-2.8007,3.9752-.0689,.1108-.138,.2218-.2072,.3332-.0506,.088-.10119,.1764-.1519,.2647l-.0442,.0772-.37,.6456-.0244,.0427c-.136,.2281-.2519,.4686-.3785,.7044-.1241,.2372-.2488,.4752-.3739,.7142-.11629,.2433-.2332,.4875-.35029,.7326l-.17551,.3686c-.0596,.1227-.1171,.2465-.16949,.3729-.108,.2514-.21651,.5035-.32531,.7566-.0541,.1265-.1085,.2532-.16269,.3802-.04961,.129-.09931,.2581-.14921,.3874-.0114,.0293-.02179,.0586-.0332,.0878-.1211,.3112-.2364,.6229-.3481,.9348-.6186,1.7284-1.0951,3.4675-1.4249,5.1826-.3988,2.0532-.5747,4.0741-.5769,5.9954-.002,1.922,.1688,3.7454,.4575,5.4273,.2942,1.6818,.7083,3.22,1.1705,4.5926,.3826,1.1676,.8312,2.2035,1.264,3.1212,.3499,.2889,.7072,.569,1.0731,.8378-.0925-.1989-.18579-.4029-.2803-.6156-.4371-1.0359-.9176-2.2239-1.3103-3.5819-.4033-1.3532-.7625-2.8601-1.0096-4.5-.24159-1.6403-.3732-3.4113-.34359-5.2726,.02969-1.8603,.22089-3.8109,.62159-5.7968,.3329-1.6663,.8042-3.357,1.4102-5.0402,.11421-.3173,.2316-.6343,.3556-.9508l.006-.0159,.1443-.3758,.1579-.369c.1051-.2456,.21-.4904,.3145-.7345,.0505-.1228,.1061-.243,.16391-.3622,.05649-.1195,.113-.239,.16949-.3581,.1129-.2383,.2254-.4758,.3376-.7124,.1206-.2325,.2408-.4641,.3605-.6948,.122-.2295,.233-.4638,.3641-.6861l.1532-.2708,.2262-.4001c.06291-.1114,.1256-.2226,.1883-.3335Z" style="fill:#263238;"></path></g></g><path d="M244.07289,109.5924l-3.6176-2.4717s3.7005-4.0283,3.6215-5.4547c-.0862-1.5534-2.1843-1.2498-2.9069-.3357-.4974,.6294-3.6663,4.8546-5.2295,4.4924-1.5631-.3622-1.8166-6.3866-3.79439-7.092-1.97771-.7053-2.90881,2.3447-2.90881,2.3447l-5.10719-8.9786-2.07561-5.7927s-2.56639-1.5417-1.60839,3.2097c.95789,4.7515,4.25359,11.3211,4.25359,11.3211,0,0,10.5826,14.9286,12.5055,16.4036,1.923,1.4749,6.91991,1.7681,7.1725,1.7442,.2526-.0238,4.0336-8.8007,4.0336-8.8007l-4.3383-.5896Z" style="fill:#ae7461;"></path><path d="M294.70169,175.185s13.8687,29.7643,5.9778,34.449c-2.7243,1.6176-7.0194-5.5344-7.0194-5.5344,0,0-39.31509-32.3411-43.0702-40.0123-3.7551-7.671-14.6796-49.0074-14.6796-49.0074,0,0,7.80071-1.9719,6.9463-1.7908,0,0,12.3756,18.6212,15.497,26.0771,1.95841,4.6781,5.5801,14.7747,5.5801,14.7747l19.1515,17.9417s8.0893-1.8331,11.6165,3.1024Z" style="fill:#ae7461;"></path><path d="M295.35219,196.685c.0513-.0172-.21719-1.0089-.984-2.4742-.7604-1.4627-2.0906-3.3629-3.9711-5.06-1.887-1.6912-3.9174-2.8129-5.4524-3.4144-1.5381-.6075-2.5523-.7696-2.5642-.7167-.0244,.0859,.948,.3732,2.4177,1.0545,1.4696,.6765,3.4123,1.817,5.2507,3.4638,1.8313,1.6535,3.1708,3.4645,3.9988,4.8542,.833,1.3896,1.2216,2.3262,1.3045,2.2928Z" style="fill:#6f4439;"></path></g></g></g></svg>
