<svg xmlns="http://www.w3.org/2000/svg" viewBox="0 0 500 500"><g id="freepik--background-complete--inject-103"><rect y="382.4" width="500" height="0.25" style="fill:#ebebeb"></rect><rect x="416.78" y="398.49" width="33.12" height="0.25" style="fill:#ebebeb"></rect><rect x="322.53" y="401.21" width="8.69" height="0.25" style="fill:#ebebeb"></rect><rect x="396.59" y="389.21" width="19.19" height="0.25" style="fill:#ebebeb"></rect><rect x="52.46" y="390.89" width="43.19" height="0.25" style="fill:#ebebeb"></rect><rect x="104.56" y="390.89" width="6.33" height="0.25" style="fill:#ebebeb"></rect><rect x="131.47" y="395.11" width="93.68" height="0.25" style="fill:#ebebeb"></rect><path d="M237,337.8H43.91a5.71,5.71,0,0,1-5.7-5.71V60.66A5.71,5.71,0,0,1,43.91,55H237a5.71,5.71,0,0,1,5.71,5.71V332.09A5.71,5.71,0,0,1,237,337.8ZM43.91,55.2a5.46,5.46,0,0,0-5.45,5.46V332.09a5.46,5.46,0,0,0,5.45,5.46H237a5.47,5.47,0,0,0,5.46-5.46V60.66A5.47,5.47,0,0,0,237,55.2Z" style="fill:#ebebeb"></path><path d="M453.31,337.8H260.21a5.72,5.72,0,0,1-5.71-5.71V60.66A5.72,5.72,0,0,1,260.21,55h193.1A5.71,5.71,0,0,1,459,60.66V332.09A5.71,5.71,0,0,1,453.31,337.8ZM260.21,55.2a5.47,5.47,0,0,0-5.46,5.46V332.09a5.47,5.47,0,0,0,5.46,5.46h193.1a5.47,5.47,0,0,0,5.46-5.46V60.66a5.47,5.47,0,0,0-5.46-5.46Z" style="fill:#ebebeb"></path><circle cx="250" cy="219.98" r="130.93" style="fill:#ebebeb"></circle><circle cx="250" cy="219.98" r="109.25" style="fill:#fafafa"></circle><circle cx="250" cy="219.98" r="71.74" style="fill:#e0e0e0"></circle><circle cx="250" cy="219.98" r="41.52" transform="translate(-65.15 112.42) rotate(-22.5)" style="fill:#fafafa"></circle><rect x="248.92" y="153.4" width="2.16" height="133.16" style="fill:#e0e0e0"></rect><rect x="183.42" y="218.9" width="133.16" height="2.16" style="fill:#e0e0e0"></rect></g><g id="freepik--Shadow--inject-103"><ellipse id="freepik--path--inject-103" cx="250" cy="416.24" rx="193.89" ry="11.32" style="fill:#f5f5f5"></ellipse></g><g id="freepik--curling-stone--inject-103"><path d="M257.54,395l-1.61-6.75a4.91,4.91,0,0,0-4.78-3.77H233.78a1.27,1.27,0,0,0-1.27,1.27h0a1.27,1.27,0,0,0,1.27,1.27H248.5a1.38,1.38,0,0,1,1.37,1.22l.78,6.76Z" style="fill:#407BFF"></path><path d="M257.54,395l-1.61-6.75a4.91,4.91,0,0,0-4.78-3.77H233.78a1.27,1.27,0,0,0-1.27,1.27h0a1.27,1.27,0,0,0,1.27,1.27H248.5a1.38,1.38,0,0,1,1.37,1.22l.78,6.76Z" style="opacity:0.2"></path><path d="M250.52,392.53h6.79a1.26,1.26,0,0,1,1.26,1.26v.66a0,0,0,0,1,0,0h-9.31a0,0,0,0,1,0,0v-.66A1.26,1.26,0,0,1,250.52,392.53Z" style="fill:#263238"></path><path d="M258.14,393.72H230.4a4.51,4.51,0,0,0-4.51,4.51h36.76A4.51,4.51,0,0,0,258.14,393.72Z" style="fill:#407BFF"></path><path d="M260.73,397.15H227.81a10.39,10.39,0,0,0-10.39,10.39h0a10.39,10.39,0,0,0,10.39,10.39h32.92a10.39,10.39,0,0,0,10.39-10.39h0A10.39,10.39,0,0,0,260.73,397.15Z" style="fill:#263238"></path><path d="M271.12,407.55a10.4,10.4,0,0,1-10.39,10.38H227.81a10.37,10.37,0,0,1-7.35-3.05,10.58,10.58,0,0,1-2.2-3.23,10.4,10.4,0,0,1,9.55-14.5h32.92a10.41,10.41,0,0,1,10.39,10.4Z" style="fill:#fff;opacity:0.4"></path><path d="M271.12,407.55a10.41,10.41,0,0,1-.85,4.1h-52a10.45,10.45,0,0,1,0-8.21h52A10.38,10.38,0,0,1,271.12,407.55Z" style="fill:#fff;opacity:0.2"></path></g><g id="freepik--character-2--inject-103"><path d="M407,414.52s12.3-3.63,13.2-8.47a.84.84,0,0,1,1-.71l8.94,1.49a1.19,1.19,0,0,1,.91.8l2.72,8.7-2.52.08-.94-1.25-1.06,1.31c-11.55.36-17.6,1-22.4-.3C406.37,415,407,414.52,407,414.52Z" style="fill:#407BFF"></path><path d="M416.18,330.71c-5.57-36.59-3.58-57-6-74.17l-37.35-.22c0,6.51,4.84,33,21,74,9.3,23.61,25.3,75.76,25.3,75.76l12.08,1.66S428.19,361.43,416.18,330.71Z" style="fill:#263238"></path><path d="M337,415.58s12.86-3.59,14.5-8.43a1,1,0,0,1,1.11-.7l8.71,1.52a1,1,0,0,1,.78.8l1.4,8.7-2.54.07-.74-1.25L359,417.6c-13.79.39-19.73.41-22.35-.37A1.55,1.55,0,0,1,337,415.58Z" style="fill:#407BFF"></path><path d="M391.62,268.06c-1.75,7.56-6.17,13.73-12.12,20.4a0,0,0,0,1,0,0c-4,4.46-8.65,9.15-13.65,14.62a180.55,180.55,0,0,0-19.21,24.58c11.21,29,15.69,80.95,15.69,80.95l-11.55-1.13S341.38,376,333,352.2c-.89-2.55-2.54-6.92-4.23-11.35a34.17,34.17,0,0,1,1.36-27.48c3.16-6.29,6.82-13.51,9.57-18.66,9.69-18.17,19.39-35.38,19.39-35.38Z" style="fill:#263238"></path><path d="M329.66,241.27a231.44,231.44,0,0,1,6,26.59,54.16,54.16,0,0,1,.76,10.13c-.59,10.57-1.64,20.74-3.19,31.11l-.34,2.2-.18,1.09c0,.38-.16.73-1.15,1a11.83,11.83,0,0,1-8.64-.79c-.92-.44-1-.82-1-1.18l0-1.09c0-3.92.25-11.34.37-15.34.21-5.81.41-11.66.36-17.28-.17-4.7-1.83-10.63-3.05-15.54-1.45-5.49-3.08-11.13-4.76-16.54-2.69-10,11.5-14.23,14.72-4.38Z" style="fill:#407BFF"></path><path d="M329.66,241.27a231.44,231.44,0,0,1,6,26.59,54.16,54.16,0,0,1,.76,10.13c-.59,10.57-1.64,20.74-3.19,31.11l-.34,2.2-.18,1.09c0,.38-.16.73-1.15,1a11.83,11.83,0,0,1-8.64-.79c-.92-.44-1-.82-1-1.18l0-1.09c0-3.92.25-11.34.37-15.34.21-5.81.41-11.66.36-17.28-.17-4.7-1.83-10.63-3.05-15.54-1.45-5.49-3.08-11.13-4.76-16.54-2.69-10,11.5-14.23,14.72-4.38Z" style="fill:#fff;opacity:0.6000000000000001"></path><path d="M322.67,312.48l-2.52,10.37,12.79-.59s1.14-9.67-3.9-11.1Z" style="fill:#ebb376"></path><path d="M325.85,332.37l4.45-1a3.69,3.69,0,0,0,2.91-3.8l-.27-5.34-12.79.59,1.29,6.61A3.7,3.7,0,0,0,325.85,332.37Z" style="fill:#ebb376"></path><path d="M337.85,259.33l-18.22,5s-.8-1.78-1.84-4.53a85.92,85.92,0,0,1-3.53-12c-1.07-5.26-1.41-10.67.35-14.36l20.5,6.94.7,4.86,1.05,7.27Z" style="fill:#407BFF"></path><path d="M336.86,252.5c-9.05-1.75-11.66-10.73-11.66-10.73a32.53,32.53,0,0,1,10.61,3.46Z" style="opacity:0.2"></path><path d="M356.54,264l1.32-12.59,50.38-2.1s6.33,6.12,3.41,27.76S356.54,264,356.54,264Z" style="fill:#263238"></path><path d="M408.24,249.26l-51.7,10.07c-4.92-5.29-15.9-8.81-21.43-11.28-10.28-4.57-20.5-14.62-20.5-14.62a59.25,59.25,0,0,1,14.87-18.94,80.23,80.23,0,0,1,23.13-13.17l.08,0a125.41,125.41,0,0,1,16,7.17C400.56,225.65,408.24,249.26,408.24,249.26Z" style="fill:#407BFF"></path><path d="M336.86,241.77c3.05-2.12,17.68-14,17.68-14l6.78,5.63-16.92,12Z" style="fill:#fff;opacity:0.4"></path><path d="M318.26,203.84l3.34,13.33c4.32.92,7.11,4.25,6.87,6.45,0,0,2.65,3,4.49.57,3.74-4.9,1.45-13.63,1.45-13.63C329.94,212,322.72,207.22,318.26,203.84Z" style="fill:#ebb376"></path><path d="M319.63,209.27l2,7.89a18.75,18.75,0,0,1,3,.86c.75-2.24-.12-6.26-2.21-7.56A8.35,8.35,0,0,0,319.63,209.27Z" style="opacity:0.2"></path><path d="M297.83,201.93c.2,3.31,3,9.19,6.4,5.64S297.5,196.24,297.83,201.93Z" style="fill:#263238"></path><path d="M320.64,197.81c1.8,4,3.31,7,4.06,9.87a12.62,12.62,0,0,1-.08,7.3c-2.57,8.4-13.24,9.69-18.76,3.4a23.79,23.79,0,0,1-1.76-2.27c-4.16-6-7.17-15.36-2.27-21.09A11.24,11.24,0,0,1,320.64,197.81Z" style="fill:#ebb376"></path><path d="M318.72,200.85l1,.84a24.25,24.25,0,0,1,5,6,12.62,12.62,0,0,1-.08,7.3c-2.57,8.4-13.24,9.69-18.76,3.4a23.79,23.79,0,0,1-1.76-2.27s2.51,1.83,4,1.9c0,0,.57-3.31,2.43-4.21,0,0,.55-3.54,5.06-4.71A7.37,7.37,0,0,0,318.72,200.85Z" style="fill:#263238"></path><path d="M318.72,200.85l1,.84a24.25,24.25,0,0,1,5,6,12.62,12.62,0,0,1-.08,7.3c-2.57,8.4-13.24,9.69-18.76,3.4a23.79,23.79,0,0,1-1.76-2.27s2.51,1.83,4,1.9c0,0,.57-3.31,2.43-4.21,0,0,.55-3.54,5.06-4.71A7.37,7.37,0,0,0,318.72,200.85Z" style="fill:#fff;opacity:0.5"></path><path d="M320.65,187.89c-1.4-4.93-7.28-3.48-10.44-.39a2.21,2.21,0,0,1-1.27.66l4.85,7.52c.37-.32.74-.64,1-1,0,0,2.29,7.26,7.09,8.8C327.2,197.15,326.6,188.47,320.65,187.89Z" style="fill:#263238"></path><path d="M326.58,202.34a7.65,7.65,0,0,1-1.29,5.74,4.66,4.66,0,0,1-.38.46h0c-2.08.87-5.06-5.8-5.22-6.14h0a3.71,3.71,0,0,1,1.67-2.68A3.51,3.51,0,0,1,326.58,202.34Z" style="fill:#ebb376"></path><path d="M310.72,205.48c.31.58.25,1.22-.14,1.41s-.94-.11-1.25-.7-.25-1.22.14-1.42S310.41,204.89,310.72,205.48Z" style="fill:#263238"></path><path d="M304.06,208.9c.31.59.24,1.23-.14,1.42s-.95-.11-1.26-.7-.24-1.22.14-1.42S303.75,208.32,304.06,208.9Z" style="fill:#263238"></path><path d="M306.33,208.11a22.71,22.71,0,0,1-.32,6.3,3.91,3.91,0,0,0,3.05-1Z" style="fill:#d58745"></path><path d="M311.63,201.56a.37.37,0,0,1-.35.18,3.11,3.11,0,0,0-2.61,1.07.39.39,0,1,1-.64-.46,3.93,3.93,0,0,1,3.29-1.38.38.38,0,0,1,.37.41A.3.3,0,0,1,311.63,201.56Z" style="fill:#263238"></path><path d="M298.75,207.08a.32.32,0,0,1-.18-.13.39.39,0,0,1,.05-.55,3.85,3.85,0,0,1,3.45-.79.4.4,0,0,1,.25.49.37.37,0,0,1-.48.25,3,3,0,0,0-2.73.66A.37.37,0,0,1,298.75,207.08Z" style="fill:#263238"></path><path d="M320.65,187.89c-.47-2-2.55-5.46-7-4s-7.52,4.14-9.1,1.52-4.79-.67-4.18,2c0,0-9.78,1.26-5.38,7.23,0,0-3.71,2.27-2.19,5.35s3.92,4.66,6,2.44,2.5-2.35,3.82-1.21,3.62-.58,3.62-.58-1.54,1-2.28-.28c0,0,2,.68,4-1.52s3.91.1,3.91.1,1.15-1.13-.67-2.3c0,0,4.83.88,7.18-1.46S321.36,190.85,320.65,187.89Z" style="fill:#263238"></path><path d="M314.26,216.32a.34.34,0,0,1-.34-.33c0-.1-.12-2.47,2.72-4.93a.34.34,0,0,1,.45.52c-2.58,2.24-2.49,4.35-2.48,4.37a.36.36,0,0,1-.33.37Z" style="fill:#263238"></path><path d="M286.56,416.19a1.83,1.83,0,0,1-1.65-2.63l90.47-188.31a1.84,1.84,0,1,1,3.31,1.59L288.22,415.15A1.84,1.84,0,0,1,286.56,416.19Z" style="fill:#263238"></path><g style="opacity:0.5"><path d="M286.56,416.19a1.83,1.83,0,0,1-1.65-2.63l90.47-188.31a1.84,1.84,0,1,1,3.31,1.59L288.22,415.15A1.84,1.84,0,0,1,286.56,416.19Z" style="fill:#fff"></path></g><path d="M295.44,412.71H277.69a2.49,2.49,0,0,0-2.5,2.49h0a2.49,2.49,0,0,0,2.5,2.49h17.75a2.49,2.49,0,0,0,2.49-2.49h0A2.49,2.49,0,0,0,295.44,412.71Z" style="fill:#263238"></path><path d="M297.93,415.2a2.69,2.69,0,0,1-.2,1,2.5,2.5,0,0,1-2.29,1.5H277.69a2.48,2.48,0,0,1-1.76-.73,2.3,2.3,0,0,1-.53-.77,2.48,2.48,0,0,1,2.29-3.48h17.75a2.47,2.47,0,0,1,1.76.72A2.5,2.5,0,0,1,297.93,415.2Z" style="fill:#fff;opacity:0.4"></path><path d="M297.73,416.19a2.5,2.5,0,0,1-2.29,1.5H277.69a2.48,2.48,0,0,1-1.76-.73,2.3,2.3,0,0,1-.53-.77Z" style="fill:#263238"></path><path d="M352.18,269.57l-7.78,7.31,11,6.5s6.24-7.48,2.8-11.44Z" style="fill:#ebb376"></path><path d="M344,288l4.25,1.63a3.69,3.69,0,0,0,4.52-1.59l2.7-4.61-11-6.5-2.54,6.23A3.69,3.69,0,0,0,344,288Z" style="fill:#ebb376"></path><path d="M362.89,243.48,357,234.73l-3.58,1-6.34-15.83s1.81-11.7,5.59-18.58a125.41,125.41,0,0,1,16,7.17C382.12,226.1,362.89,243.48,362.89,243.48Z" style="opacity:0.2"></path><path d="M360.67,205.32c3.23,5.74,6.1,11.32,8.78,17.31,2.85,6.87,5.88,13.1,6,21-.46,3.87-2.32,7.37-3.59,10.43a162.81,162.81,0,0,1-11.76,21.06l-.6.92c-.18.32-.44.58-1.47.44a11.81,11.81,0,0,1-7.53-4.31c-.68-.76-.6-1.12-.42-1.41.78-1.68,2.26-5,3-6.68,3.12-7.06,7.05-14.83,8.77-22.17l-.18,1.37a28.66,28.66,0,0,0-1.94-6.43,156.48,156.48,0,0,0-7.86-15.91c-1.45-2.66-3-5.37-4.51-7.88-4.95-9.05,7.8-16.53,13.27-7.74Z" style="fill:#407BFF"></path><path d="M360.67,205.32c3.23,5.74,6.1,11.32,8.78,17.31,2.85,6.87,5.88,13.1,6,21-.46,3.87-2.32,7.37-3.59,10.43a162.81,162.81,0,0,1-11.76,21.06l-.6.92c-.18.32-.44.58-1.47.44a11.81,11.81,0,0,1-7.53-4.31c-.68-.76-.6-1.12-.42-1.41.78-1.68,2.26-5,3-6.68,3.12-7.06,7.05-14.83,8.77-22.17l-.18,1.37a28.66,28.66,0,0,0-1.94-6.43,156.48,156.48,0,0,0-7.86-15.91c-1.45-2.66-3-5.37-4.51-7.88-4.95-9.05,7.8-16.53,13.27-7.74Z" style="fill:#fff;opacity:0.6000000000000001"></path><path d="M352.61,201.32c11.37-2.12,20.25,19.22,20.25,19.22l-18.81,12.89s-7.71-14.81-9.65-19S344.27,202.88,352.61,201.32Z" style="fill:#407BFF"></path><path d="M379.5,288.46a0,0,0,0,1,0,0c-4,4.46-8.65,9.15-13.65,14.62,2.12-12.62,10.58-26.22,10.58-26.22Z" style="opacity:0.2"></path><path d="M356.54,209.27c5-2,10.59,7.52,2.72,10.91S350.07,211.91,356.54,209.27Z" style="fill:#fff;opacity:0.4"></path><path d="M317.79,259.79a85.92,85.92,0,0,1-3.53-12C319.57,246.13,322.28,257.94,317.79,259.79Z" style="fill:#fff;opacity:0.4"></path></g><g id="freepik--character-1--inject-103"><path d="M170.44,312.39c7.48,6.85,15.12,13.89,23.35,19.83,6.17,3.83,12.8,7,19.31,10.54q8,4.19,15.93,8.54a2.59,2.59,0,0,1-2.09,4.73q-8.61-3-17-6.36c-6.34-2.57-12.72-5.17-18.95-8.29a98.67,98.67,0,0,1-13.84-9.29,169.85,169.85,0,0,1-14-12.2c-4.66-4.94,2.18-12,7.27-7.5Z" style="fill:#407BFF"></path><path d="M170.44,312.39c7.48,6.85,15.12,13.89,23.35,19.83,6.17,3.83,12.8,7,19.31,10.54q8,4.19,15.93,8.54a2.59,2.59,0,0,1-2.09,4.73q-8.61-3-17-6.36c-6.34-2.57-12.72-5.17-18.95-8.29a98.67,98.67,0,0,1-13.84-9.29,169.85,169.85,0,0,1-14-12.2c-4.66-4.94,2.18-12,7.27-7.5Z" style="fill:#fff;opacity:0.6000000000000001"></path><path d="M183.59,323.62l-15.14,5.8-7.33-4.65-4.41-2.8,0-.08h0c.24-1,2.87-10.19,17.59-7.38l.1,0,6.6,6.55Z" style="fill:#407BFF"></path><polygon points="115.56 400.58 110.87 411.02 100.39 409.51 92.42 408.35 82.6 406.93 87.66 402.63 95.54 402.05 103.12 401.5 115.56 400.58" style="fill:#eec1bb"></polygon><polygon points="103.12 401.5 100.39 409.51 92.42 408.35 95.54 402.05 103.12 401.5" style="isolation:isolate;opacity:0.2"></polygon><path d="M92.09,402.9c.51.52-6.13,6.48-6.13,6.48s-7.82,0-12.44,2.93-4.82-1.44-.66-5.69l10.31-10.5C86.13,393.1,86.85,397.51,92.09,402.9Z" style="fill:#407BFF"></path><path d="M85.5,409.2h.17l.06,0h0a.21.21,0,0,1,.06.08c0,.1,1,2.08.52,3.29a1.42,1.42,0,0,1-.83.8c-.43.15-.74.12-1-.11s-.21-1.13,0-1.91A3.74,3.74,0,0,1,83,412.66a1,1,0,0,1-.76-.08.87.87,0,0,1-.53-.82,1.21,1.21,0,0,1,.4-.71A11.16,11.16,0,0,1,85.5,409.2Zm-.46.69c-1.32.55-2.81,1.37-2.86,1.91,0,.05,0,.19.29.37a.5.5,0,0,0,.4,0,2.2,2.2,0,0,0,.88-.62A11.21,11.21,0,0,0,85,409.89Zm.83,2.54a3.91,3.91,0,0,0-.3-2.43c-.56,1.3-1,2.69-.69,3,.08.09.31,0,.43,0a.83.83,0,0,0,.36-.23A.87.87,0,0,0,85.87,412.43Z" style="fill:#407BFF"></path><path d="M92.09,402.9c.51.52-6.13,6.48-6.13,6.48s-7.82,0-12.44,2.93-4.82-1.44-.66-5.69l10.31-10.5C86.13,393.1,86.85,397.51,92.09,402.9Z" style="fill:#fff;opacity:0.7000000000000001"></path><path d="M185.1,402.54c-2.19,8.47-8.5,11.08-14.79,11.38-7.65.39-75-3.81-75-3.81l3.54-10.36,59.31-2.34-32.73-18.16s-30.83-4.41-28.38-26.52a62.76,62.76,0,0,1,5.29-20.68c.26-.61,5.54-2.76,5.8-3.36l28.38-3.95.23,1.53,1.78,11.48,3.61,9.69S189.77,384.51,185.1,402.54Z" style="fill:#263238"></path><path d="M143.6,348.59l-41.12,20c8.29,8.56,23,10.66,23,10.66l32.73,18.16-59.31,2.34-3.54,10.36s67.34,4.2,75,3.81c6.29-.3,12.6-2.91,14.79-11.38C189.28,386.4,151.55,355,143.6,348.59Z" style="isolation:isolate;opacity:0.2"></path><polygon points="174.42 382.83 172.8 386.13 166.1 399.72 160.66 410.76 155.49 410.51 158.44 398.42 161.79 384.61 162.55 381.54 174.42 382.83" style="fill:#eec1bb"></polygon><polygon points="172.8 386.13 166.1 399.72 158.44 398.42 161.79 384.61 172.8 386.13" style="isolation:isolate;opacity:0.2"></polygon><path d="M154.79,406.69c0-.73,8.93-.17,8.93-.17s5.48,5.57,10.81,6.82,2.35,4.44-3.6,4.45H156.21C152,417.81,154.62,414.21,154.79,406.69Z" style="fill:#407BFF"></path><path d="M163.91,407l-.08-.05h0l0-.07h0a.17.17,0,0,1,0-.07h0a.29.29,0,0,1,0-.09c0-.11.78-2.17,2-2.67a1.38,1.38,0,0,1,1.16,0c.4.19.6.44.58.75,0,.47-.66.94-1.38,1.32a3.71,3.71,0,0,1,2,.22.93.93,0,0,1,.47.6.85.85,0,0,1-.21.95,1.26,1.26,0,0,1-.79.22A11.28,11.28,0,0,1,163.91,407Zm.81-.15c1.32.56,2.95,1.05,3.37.7,0,0,.15-.12.06-.47a.52.52,0,0,0-.26-.31,2.21,2.21,0,0,0-1-.2A10.42,10.42,0,0,0,164.72,406.82Zm1.23-2.38a3.94,3.94,0,0,0-1.52,1.92c1.32-.5,2.59-1.2,2.61-1.6,0-.12-.19-.24-.31-.3a1,1,0,0,0-.41-.09A1,1,0,0,0,166,404.44Z" style="fill:#407BFF"></path><path d="M154.79,406.69c0-.73,8.93-.17,8.93-.17s5.48,5.57,10.81,6.82,2.35,4.44-3.6,4.45H156.21C152,417.81,154.62,414.21,154.79,406.69Z" style="fill:#fff;opacity:0.7000000000000001"></path><path d="M97.68,350.74s-3.62,22.63,13,24.89c27.21,3.71,52.58-23.12,55.72-23.06s-9.06,43.6-9.06,43.6L169.5,398s22-53.63,16.66-65.19S117,351.12,97.68,350.74Z" style="fill:#263238"></path><path d="M226.85,351l7.51-.78-3,8.3s-5-.95-6.94-5.44Z" style="fill:#eec1bb"></path><polygon points="240.62 354.26 237.22 360.01 231.34 358.56 234.36 350.25 240.62 354.26" style="fill:#eec1bb"></polygon><path d="M167.36,276s-.41-6.62-8.52-10.08-20.77,12.26-18.1,29l8.3-.65s.79-9.83,3.66-13A30.74,30.74,0,0,0,150.33,292s1.78-10.23,6.53-12.8,6.24,1.68,6.24,1.68Z" style="fill:#263238"></path><path d="M137.08,304.57c-9.12,3.18-18.27,6.05-27.91,7.34-15.84,2-11.88-10.56-7.89-20.13a130.09,130.09,0,0,1,7.24-14.58,2.6,2.6,0,0,1,4.75,2.05c-1.54,5-3.1,10.12-4.46,15.12-.84,3.32-2,7.08-1.91,10.26,0,.12,0,.25,0,.16a2.14,2.14,0,0,0-.43-1,3.81,3.81,0,0,0-1.59-1.23c-.13-.05-.09,0,0,0,4.44-.27,9.37-1.87,13.79-3.11,4.94-1.48,10-3.1,14.87-4.71,6.54-2,9.84,7.34,3.46,9.86Z" style="fill:#407BFF"></path><path d="M174.42,314.52s-30.36,15.05-36,25.85l-36-8.32a64.51,64.51,0,0,1,6.08-14.11,55.49,55.49,0,0,1,13.72-16.22A41.11,41.11,0,0,1,139,293.83s15.36,4.76,18.52,6.82C162.13,303.63,174.42,314.52,174.42,314.52Z" style="fill:#407BFF"></path><path d="M136.54,307.31v1.2s-14.87,9.94-28.11,9.43a55.49,55.49,0,0,1,13.72-16.22C128,301.75,133.39,303.31,136.54,307.31Z" style="isolation:isolate;opacity:0.2"></path><path d="M163.28,303.38a8.86,8.86,0,0,0-3.21,3.55,2.26,2.26,0,0,0,0,2.12c-1.54,3.29-6.06,1.66-6.06,1.66-4-7.09-2.73-11.11-2.73-11.11,3.35.58,6.05-1.08,8-3a18,18,0,0,0,3.16-4.29l4.39,8.88A28.71,28.71,0,0,0,163.28,303.38Z" style="fill:#eec1bb"></path><path d="M166.79,301.22a28.71,28.71,0,0,0-3.51,2.16,8.86,8.86,0,0,0-3.21,3.55,13.43,13.43,0,0,1-.83-10.3,18,18,0,0,0,3.16-4.29Z" style="isolation:isolate;opacity:0.2"></path><path d="M137.08,304.57c-9.12,3.18-18.27,6.05-27.91,7.34-15.84,2-11.88-10.56-7.89-20.13a130.09,130.09,0,0,1,7.24-14.58,2.6,2.6,0,0,1,4.75,2.05c-1.54,5-3.1,10.12-4.46,15.12-.84,3.32-2,7.08-1.91,10.26,0,.12,0,.25,0,.16a2.14,2.14,0,0,0-.43-1,3.81,3.81,0,0,0-1.59-1.23c-.13-.05-.09,0,0,0,4.44-.27,9.37-1.87,13.79-3.11,4.94-1.48,10-3.1,14.87-4.71,6.54-2,9.84,7.34,3.46,9.86Z" style="fill:#fff;opacity:0.6000000000000001"></path><path d="M179.44,298s16-13.25,1.17-22.19c-17-10.27-32,9.62-20.7,22.41S179.44,298,179.44,298Z" style="fill:#263238"></path><path d="M162.7,282.67c-3.26,7.87-4.8,11.12-3,17.09,2.71,9,12.72,11.7,18.18,5.08,4.9-6,9.4-17.83,3.69-24.86A10.91,10.91,0,0,0,162.7,282.67Z" style="fill:#eec1bb"></path><path d="M172,281.54c-7.13,2.47-2.93,13.39-10.65,7.88s2.82-14.63,9.2-14.1S172,281.54,172,281.54Z" style="fill:#263238"></path><path d="M170.54,275.42c-2.12,5.43-2.16,7.17,2.94,8.65a5.92,5.92,0,0,1,1.32-3.77,5.68,5.68,0,0,0,.67,4.18,20.11,20.11,0,0,1,4.25,1.22,5.6,5.6,0,0,1,1.14-2.2,5.36,5.36,0,0,0,.33,3,14.26,14.26,0,0,1,3.4,3.18C187.85,284.63,182.86,273.63,170.54,275.42Z" style="fill:#263238"></path><path d="M173,291.09c-.3.64-.23,1.35.17,1.57s1-.13,1.27-.78.22-1.35-.18-1.57S173.34,290.44,173,291.09Z" style="fill:#263238"></path><path d="M180.47,295.33c-.3.65-.22,1.36.17,1.58s1-.13,1.27-.78.23-1.35-.17-1.57S180.77,294.69,180.47,295.33Z" style="fill:#263238"></path><path d="M181.55,294.5l1.67.36S181.9,295.66,181.55,294.5Z" style="fill:#263238"></path><path d="M177.89,295.25a20.87,20.87,0,0,0,.24,5.33,2.84,2.84,0,0,1-2.37-.76Z" style="fill:#d4827d"></path><path d="M157.61,289a5.86,5.86,0,0,0,1.27,4.55c1.35,1.5,3.28.09,4-2.13.6-2,.63-5.19-1.22-5.82S157.86,286.81,157.61,289Z" style="fill:#eec1bb"></path><path d="M173.12,286.59a.35.35,0,0,0,.31.06,3.09,3.09,0,0,1,2.84.61.38.38,0,0,0,.56,0,.46.46,0,0,0,0-.61,3.8,3.8,0,0,0-3.58-.81.42.42,0,0,0-.28.52A.39.39,0,0,0,173.12,286.59Z" style="fill:#263238"></path><path d="M184.3,293a.43.43,0,0,0,.29.08.41.41,0,0,0,.33-.48,4.39,4.39,0,0,0-2.1-3.26.39.39,0,0,0-.53.2.45.45,0,0,0,.2.57,3.5,3.5,0,0,1,1.64,2.6A.5.5,0,0,0,184.3,293Z" style="fill:#263238"></path><path d="M174.11,290.25l1.67.36S174.47,291.41,174.11,290.25Z" style="fill:#263238"></path><path d="M173.91,302.31h-.08c-2.53-.58-3.75-3.57-3.8-3.69a.37.37,0,0,1,.21-.49.36.36,0,0,1,.48.21s1.14,2.74,3.28,3.24a.37.37,0,0,1-.09.74Z" style="fill:#263238"></path><path d="M107.89,279.88l-.69-7.52,8.26,3.13s-1,5-5.54,6.87Z" style="fill:#eec1bb"></path><polygon points="111.29 266.15 116.99 269.62 115.46 275.49 107.2 272.36 111.29 266.15" style="fill:#eec1bb"></polygon><path d="M139,293.83c-6.82-3.1-24.26,4.64-24.26,4.64l5.74,13.61a54.83,54.83,0,0,0,17.87-3.57C147.42,305,143.73,296,139,293.83Z" style="fill:#407BFF"></path><path d="M80.11,414.67a1.84,1.84,0,0,1-2.18-2.22L125.81,209.1a1.83,1.83,0,1,1,3.57.84L81.51,413.3A1.86,1.86,0,0,1,80.11,414.67Z" style="fill:#263238"></path><g style="opacity:0.5"><path d="M80.11,414.67a1.84,1.84,0,0,1-2.18-2.22L125.81,209.1a1.83,1.83,0,1,1,3.57.84L81.51,413.3A1.86,1.86,0,0,1,80.11,414.67Z" style="fill:#fff"></path></g><path d="M88.31,412.71H70.56a2.49,2.49,0,0,0-2.5,2.49h0a2.49,2.49,0,0,0,2.5,2.49H88.31a2.49,2.49,0,0,0,2.49-2.49h0A2.49,2.49,0,0,0,88.31,412.71Z" style="fill:#263238"></path><path d="M90.8,415.2a2.69,2.69,0,0,1-.2,1,2.5,2.5,0,0,1-2.29,1.5H70.56A2.48,2.48,0,0,1,68.8,417a2.3,2.3,0,0,1-.53-.77,2.48,2.48,0,0,1,2.29-3.48H88.31a2.47,2.47,0,0,1,1.76.72A2.5,2.5,0,0,1,90.8,415.2Z" style="fill:#fff;opacity:0.4"></path><path d="M90.6,416.19a2.5,2.5,0,0,1-2.29,1.5H70.56A2.48,2.48,0,0,1,68.8,417a2.3,2.3,0,0,1-.53-.77Z" style="fill:#263238"></path><polygon points="128.03 317.96 134.16 313.01 153.87 321.69 148.41 325.73 128.03 317.96" style="fill:#fff;opacity:0.4"></polygon><path d="M131,296.45c3.39,2.49-5.63,8.56-8.85,5.27S126.65,293.26,131,296.45Z" style="fill:#fff;opacity:0.4"></path><path d="M181,321.07a2.23,2.23,0,0,1-.73,1.19c-3.13,2.68-11.19-3.55-7.49-6.91a3.58,3.58,0,0,1,1.52-.85l.1,0Z" style="fill:#fff;opacity:0.4"></path></g></svg>
