<svg xmlns="http://www.w3.org/2000/svg" viewBox="0 0 500 500"><g id="freepik--background-complete--inject-368"><polygon points="256.75 221.84 256.75 221.85 256.78 221.84 256.75 221.84" style="fill:#f5f5f5"></polygon><polygon points="256.66 221.84 256.73 221.85 256.68 221.82 256.66 221.84" style="fill:#f5f5f5"></polygon><polygon points="256.57 221.78 256.52 221.85 256.65 221.84 256.57 221.78" style="fill:#f5f5f5"></polygon><polygon points="256.46 221.77 256.48 221.76 256.45 221.75 256.46 221.77" style="fill:#f5f5f5"></polygon><polygon points="256.44 221.6 256.43 221.61 256.46 221.63 256.44 221.6" style="fill:#f5f5f5"></polygon><polygon points="256.72 221.77 256.71 221.79 256.73 221.8 256.72 221.77" style="fill:#f5f5f5"></polygon><polygon points="256.41 221.8 256.39 221.73 256.04 221.63 256.36 221.84 256.41 221.8" style="fill:#f5f5f5"></polygon><polygon points="256.42 221.74 256.41 221.8 256.45 221.77 256.42 221.74" style="fill:#f5f5f5"></polygon><polygon points="256.7 221.74 256.65 221.75 256.68 221.77 256.7 221.74" style="fill:#f5f5f5"></polygon><polygon points="256.66 221.81 256.64 221.81 256.65 221.83 256.66 221.81" style="fill:#f5f5f5"></polygon><path d="M226.61,14.49l15,104.16.42-.06,14.57,102.08L271,118.57l.23,0L285.61,16.12A223.49,223.49,0,0,0,250,13.27,225.94,225.94,0,0,0,226.61,14.49Z" style="fill:#f5f5f5"></path><path d="M392,64.56A222.8,222.8,0,0,0,342.1,33.21l-42.53,93.7.23.1-43,94.51Z" style="fill:#f5f5f5"></path><path d="M156.8,192.58h0l99,29h-.39l1,.28h0l.05,0h0l.07,0h0v0l0,0,.05-.07.08.07h-.13l.07.05.05,0v0h.05l.06,0v0l0,0h0l-.06,0,.4.18-.33-.21L356.38,251c0,.08-.05.15-.07.22l110.48,32.47a222.46,222.46,0,0,0,5.3-48.34c0-4.63-.16-9.23-.44-13.79H360.56v.17l-103.74.12h0l0,0v-.09l.46-.13-.38.24.93-.27h-.45l202.23-59.91a221.71,221.71,0,0,0-27.49-53.5L257.26,221.56h-.35l.14-.18-.26.18h0v0l0,0,.09-.56-.19.42,0,.14-.12.09,0-.09h-.09l0-.15-.16-.35.06.46,0,0h0l-.21-.14.11.13h-.35L71.7,102.93a221.68,221.68,0,0,0-30.24,55.88Zm99.95,29.26h0Zm-.09,0,0,0,.05,0Zm.06-.07v0h0Zm0,0,0,0,0,0Zm0,.07v0Zm-.2,0v0h0Zm0-.17,0,0,0,0Zm0,.14,0,0,0,0Zm0,0v.07l-.05,0-.32-.21Z" style="fill:#f5f5f5"></path><path d="M188.38,143.1h0l67.92,78.38-43.08-94.4,0,0-45-98.27a221.85,221.85,0,0,0-53,30Z" style="fill:#f5f5f5"></path><path d="M344.06,278.18a.41.41,0,0,0-.05.09l-87-56,67.85,78.26-.17.15L405.4,394a222.6,222.6,0,0,0,38.93-51.07Z" style="fill:#f5f5f5"></path><polygon points="256.71 222.06 256.7 222.06 256.71 222.07 256.71 222.06" style="fill:#f5f5f5"></polygon><polygon points="256.47 221.87 256.45 221.9 256.42 221.87 256.43 221.95 256.44 221.94 256.43 221.95 256.5 221.93 256.47 221.91 256.49 221.88 256.51 221.88 256.5 221.86 256.52 221.85 256.41 221.85 256.47 221.87" style="fill:#f5f5f5"></polygon><polygon points="256.38 221.96 256.4 221.86 256.37 221.85 255.97 222.09 256.38 221.96" style="fill:#f5f5f5"></polygon><path d="M256.14,222.28l-86.79,56.31a3.45,3.45,0,0,1-.2-.32L59.36,349.32A223.08,223.08,0,0,0,102,401l99.63-115.41Z" style="fill:#f5f5f5"></path><path d="M156.87,251.31l99.47-29.46-228,.24c-.26,4.39-.41,8.81-.41,13.26a222.8,222.8,0,0,0,6.19,52.2l122.77-36.22Z" style="fill:#f5f5f5"></path><path d="M256.29,222.63l-97.87,215.1a220.77,220.77,0,0,0,64.9,18.11Z" style="fill:#f5f5f5"></path><polygon points="256.74 221.9 256.71 221.91 256.73 221.94 256.74 221.9" style="fill:#f5f5f5"></polygon><path d="M256.84,222.61l33,231.26a220.27,220.27,0,0,0,62.74-21.51Z" style="fill:#f5f5f5"></path><polygon points="256.47 222.24 256.58 223.02 256.69 222.27 256.57 222.01 256.47 222.24" style="fill:#f5f5f5"></polygon><polygon points="256.7 221.92 256.68 221.93 256.7 221.94 256.7 221.92" style="fill:#f5f5f5"></polygon></g><g id="freepik--Rock--inject-368"><polygon points="98.62 475.46 116.23 445.16 141.64 438.03 178.17 389.02 306.03 335.55 364.41 329.69 360.62 344.19 333 377.44 377.4 475.46 98.62 475.46" style="fill:#ebebeb"></polygon><polygon points="116.23 445.16 173.79 464.02 178.51 475.46 98.62 475.46 116.23 445.16" style="fill:#e0e0e0"></polygon><polygon points="141.64 438.03 178.51 451.64 178.17 389.02 141.64 438.03" style="fill:#e0e0e0"></polygon><polygon points="288.87 474.26 261.66 429.08 214.59 412.22 274.22 422.74 318.57 475.46 288.87 474.26" style="fill:#e0e0e0"></polygon><path d="M277.14,424.12a5.07,5.07,0,0,1-.64-.09l-1.83-.36L268,422.3c-5.67-1.16-13.51-2.69-22.21-4.21s-16.6-2.73-22.32-3.57l-6.78-1-1.85-.29a2.73,2.73,0,0,1-.63-.13,2.66,2.66,0,0,1,.65,0l1.85.19c1.61.17,3.94.45,6.81.82,5.74.74,13.66,1.9,22.36,3.42s16.54,3.11,22.2,4.36c2.83.62,5.11,1.14,6.68,1.53l1.81.45A2.49,2.49,0,0,1,277.14,424.12Z" style="fill:#263238"></path><path d="M288.87,474.26s-.19-.26-.53-.8l-1.47-2.38c-1.28-2.11-3.15-5.18-5.54-9.09l-19.85-32.8.11.09-47.08-16.81.32-.15-5.63,13.44-20.53,48.9-.21.5-.22-.5-9.91-23,.11.11-26.93-10L144.18,439l-1.9-.73c-.43-.17-.64-.27-.64-.27l.66.22,1.92.68,7.37,2.66,27,9.86.08,0,0,.08,10,22.92h-.43c6.13-14.63,13.1-31.28,20.48-48.92l5.63-13.44.1-.22.23.08,47.06,16.9.07,0,0,.07,19.69,32.89c2.35,3.94,4.18,7,5.45,9.15l1.41,2.42C288.72,474,288.87,474.26,288.87,474.26Z" style="fill:#263238"></path><polygon points="333 377.44 275.33 377.44 364.41 329.69 360.62 344.19 333 377.44" style="fill:#e0e0e0"></polygon><path d="M342,380.06s4.58,5.84,10.35,13.46c20.18,26.65,63,81.94,63,81.94h-38l-45.89-98Z" style="fill:#e0e0e0"></path><path d="M377.4,475.46a3.35,3.35,0,0,1-.2-.37l-.55-1.12c-.48-1-1.18-2.45-2.07-4.3-1.78-3.78-4.34-9.2-7.51-15.88-6.3-13.45-15-32-24.6-52.47l-10.66-22.87.21.15-40.71-1.49-11.76-.53-3.14-.18-.8-.08-.27,0L332,378.1h.15l.06.13L343,401.1c9.54,20.5,18.19,39.07,24.46,52.53l7.36,15.95c.85,1.87,1.51,3.33,2,4.35.21.48.37.86.5,1.14A2,2,0,0,1,377.4,475.46Z" style="fill:#263238"></path><polygon points="318.57 315.67 328.06 305.75 335.95 310.71 318.57 315.67" style="fill:#e0e0e0"></polygon><polygon points="303.75 319.44 303.75 309.39 310 310.71 303.75 319.44" style="fill:#e0e0e0"></polygon><path d="M98.62,475.46l316.77-.25-.2.4L357,399.93l-15.16-19.71.14.09-9-2.63-.38-.11.25-.3L360.42,344l-.05.1q1.92-7.31,3.8-14.5l.27.32-58.38,5.85.07,0L178.24,389.19l.08-.06c-14,18.79-26.28,35.21-36.57,49l0,0h0l-25.42,7.1.06-.05q-17.13,29.3-17.7,30.25l17.52-30.35,0,0h0l25.39-7.16-.07.05,36.49-49,0,0,0,0,127.84-53.52,0,0h0l58.38-5.87.36,0-.09.35q-1.87,7.2-3.79,14.5l0,.06,0,0L333.2,377.6l-.12-.41,9,2.62.08,0,.06.06,15.15,19.71,58.2,75.7.32.4h-.52Z" style="fill:#263238"></path></g><g id="freepik--Plant--inject-368"><path d="M402.21,427.73A9.06,9.06,0,0,1,406.9,433a15.94,15.94,0,0,1,.62,7.2c-.53,4.67-3.18,9.39-6,13.12-3.93-3.43-4.84-9.42-5.1-12.49-.43-4.84,1.75-13.86,5.83-13.14" style="fill:#FF725E"></path><path d="M406.06,461.07a7.71,7.71,0,0,1,2.49-7.34,10.23,10.23,0,0,1,7.57-2.36,4.31,4.31,0,0,1,3.32,1.49,3.32,3.32,0,0,1,.05,3.35,6.83,6.83,0,0,1-2.48,2.44c-3.41,2.14-7.1,3.58-10.95,2.42" style="fill:#FF725E"></path><path d="M401,475.4a5.8,5.8,0,0,1,.14-1c.12-.68.28-1.55.48-2.6a27.05,27.05,0,0,1,2.67-8.28,16.56,16.56,0,0,1,5.95-6.32,11.25,11.25,0,0,1,2.43-1.08,4.76,4.76,0,0,1,.69-.17.7.7,0,0,1,.25,0,18.3,18.3,0,0,0-3.24,1.49,17.15,17.15,0,0,0-5.78,6.28,29.49,29.49,0,0,0-2.74,8.17c-.24,1.09-.43,2-.58,2.58A5.72,5.72,0,0,1,401,475.4Z" style="fill:#263238"></path><path d="M401.16,434.74a2.1,2.1,0,0,1,0,.42c0,.31,0,.71.07,1.21.05,1,.12,2.56.18,4.43.12,3.74.21,8.92.19,14.63s-.17,10.89-.32,14.63c-.08,1.87-.15,3.39-.22,4.43,0,.5-.06.89-.08,1.2a2,2,0,0,1,0,.42,1.91,1.91,0,0,1,0-.42c0-.31,0-.71,0-1.2,0-1.09.06-2.6.11-4.44.09-3.74.19-8.91.22-14.62s0-10.88-.1-14.63c0-1.83,0-3.34-.06-4.43,0-.49,0-.89,0-1.2A2.06,2.06,0,0,1,401.16,434.74Z" style="fill:#263238"></path><path d="M399.25,463.92a18.08,18.08,0,0,0-9.87-13.24c-1.31-.63-3-1-4.11-.06s-.84,2.74-.31,4.1a15.44,15.44,0,0,0,14.2,9.58" style="fill:#FF725E"></path><path d="M390,455.11a4.64,4.64,0,0,1,.84.37,8.15,8.15,0,0,1,.94.5c.35.22.78.44,1.2.75a16,16,0,0,1,1.37,1,17.5,17.5,0,0,1,1.47,1.33,20.22,20.22,0,0,1,2.77,3.56,19.51,19.51,0,0,1,1.83,4.14,17.8,17.8,0,0,1,.47,1.92,14.73,14.73,0,0,1,.23,1.71c.07.52.05,1,.07,1.41a8.69,8.69,0,0,1,0,1.07,4.24,4.24,0,0,1-.11.91c-.07,0,.06-1.3-.17-3.37-.07-.51-.13-1.08-.27-1.67a16.89,16.89,0,0,0-.49-1.88,19.71,19.71,0,0,0-1.82-4.06,21.44,21.44,0,0,0-2.71-3.53,19.21,19.21,0,0,0-1.42-1.33,16,16,0,0,0-1.33-1.05C391.17,455.72,390,455.18,390,455.11Z" style="fill:#263238"></path></g><g id="freepik--Character--inject-368"><polygon points="212.69 253.98 213.64 286.52 224.79 278.29 223.4 252.85 212.69 253.98" style="fill:#FF725E"></polygon><polygon points="212.69 253.84 213.64 286.38 224.79 278.15 223.4 252.71 212.69 253.84" style="opacity:0.30000000000000004"></polygon><path d="M169.8,223.06s21.35,12.95,26.95,20.35,5.38,10,13.61,10.67,32.93-4.25,32.93-4.25L242,237.65s-9.95-19.35-23.55-19.71S169.8,223.06,169.8,223.06Z" style="fill:#FF725E"></path><path d="M169.8,223.06s21.35,12.95,26.95,20.35,5.38,10,13.61,10.67,32.93-4.25,32.93-4.25L242,237.65s-9.95-19.35-23.55-19.71S169.8,223.06,169.8,223.06Z" style="opacity:0.30000000000000004"></path><path d="M243.29,249.83a6,6,0,0,1-1.23.36c-.81.18-2,.43-3.42.71-2.89.55-6.89,1.24-11.34,1.88s-8.48,1.11-11.42,1.32c-1.47.1-2.67.13-3.5.11a4.61,4.61,0,0,1-1.27-.14,7.17,7.17,0,0,1,1.27-.06c.82,0,2-.13,3.46-.28,2.92-.3,6.95-.82,11.39-1.46s8.45-1.28,11.35-1.74L242,250A7.2,7.2,0,0,1,243.29,249.83Z" style="fill:#263238"></path><path d="M210.72,316.77s.3-5.06,1.25-5.55,4.19-2.17,4.19-2.17l-.85-4.3s-4,.05-4.93-2.3c0,0-1.11-4.55-.28-5.22l3.66-3-1.72-4s-3.92.87-5.29-1.25l-1.2-1.8a6.84,6.84,0,0,1,.31-1.34,32.11,32.11,0,0,1,2.66-3.91l-2.8-3.38s-3.51,2-5.43.32c-.73-.62-1.45-1.21-2-1.7a7.92,7.92,0,0,1,.11-1.86,31.46,31.46,0,0,1,2.07-4.25l-3.26-2.94s-3.19,2.44-5.32,1.1c-1.65-1-3.18-1.93-3.8-2.29a8.83,8.83,0,0,1-.92-2,30.42,30.42,0,0,1-.15-4.71l-4.25-1.1s-1.56,3.36-3.92,3.45c-.37-.25-3.54-2.41-4.42-3.72a30.1,30.1,0,0,1-1.71-4.4l-4.37.39s-.38,4-2.82,4.65l-.68.19-.44,0a16.17,16.17,0,0,1-3.76-2.23,31.3,31.3,0,0,1-2.51-4l-4.22,1.2s.38,4-1.89,5.1l-.52.26c-1.05.16-2.09.36-3.14.58a5.85,5.85,0,0,1-1-.53,31.07,31.07,0,0,1-3.15-3.51l-3.95,1.91s.84,3.1-.46,4.81l-1.16.5a14.42,14.42,0,0,1-4,0,31.23,31.23,0,0,1-4.21-2.12l-3,3.22s1.87,2.52,1.36,4.56q-1.82,1.35-3.48,2.83a6.19,6.19,0,0,1-1.35,0,30.83,30.83,0,0,1-4.43-1.63l-2.6,3.54s2.75,2.92,1.63,5.18l-.23.46a19.24,19.24,0,0,1-4.52,2.44,32.06,32.06,0,0,1-4.72,0l-1.21,4.21s3.6,1.79,3.34,4.3c-.1.91-.18,1.78-.24,2.52a14.84,14.84,0,0,1-2.93,2.81,31.09,31.09,0,0,1-4.51,1.39l.06,4.38s4,.67,4.43,3.15c0,0-.3,5.06-1.24,5.55l-4.19,2.17.85,4.3s4,0,4.93,2.3c0,0,1.1,4.56.28,5.23l-3.66,3,1.71,4s3.92-.87,5.3,1.24c.41.64.82,1.26,1.19,1.8a6.3,6.3,0,0,1-.31,1.35,30.88,30.88,0,0,1-2.65,3.9l2.8,3.38s3.5-1.95,5.42-.32c.74.63,1.45,1.21,2,1.7a8,8,0,0,1-.11,1.87,30.82,30.82,0,0,1-2.06,4.24l3.25,2.94s3.19-2.44,5.33-1.09c1.65,1,3.18,1.93,3.79,2.29a8.68,8.68,0,0,1,.93,2,31.88,31.88,0,0,1,.15,4.72l4.24,1.09s1.57-3.36,3.92-3.44c.37.25,3.55,2.41,4.43,3.71a31.79,31.79,0,0,1,1.71,4.4l4.37-.39s.37-4,2.81-4.65l.91-.25a17.34,17.34,0,0,1,4,2.34,30.65,30.65,0,0,1,2.51,4l4.22-1.2s-.39-4,1.88-5.1l2.54-1.27a9.38,9.38,0,0,1,2.13,1,31.25,31.25,0,0,1,3.16,3.51l3.95-1.91s-1-3.68.85-5.23a17.44,17.44,0,0,1,4.71-.08,31.49,31.49,0,0,1,4.22,2.12l3-3.22s-2.4-3.22-1-5.34c.38-.59.75-1.17,1.08-1.7l0,0a13.25,13.25,0,0,1,3.38-.33,31.31,31.31,0,0,1,4.43,1.63l2.59-3.53s-2.74-2.93-1.62-5.19c.08-.15.15-.31.22-.46a19.64,19.64,0,0,1,4.53-2.43,30.71,30.71,0,0,1,4.72,0l1.2-4.22s-3.59-1.78-3.33-4.29c.09-.91.17-1.78.23-2.53a15.47,15.47,0,0,1,2.94-2.81,30.41,30.41,0,0,1,4.51-1.38l-.07-4.39S211.2,319.25,210.72,316.77Zm-38,26.75a35.8,35.8,0,1,1,19.63-46.67A35.81,35.81,0,0,1,172.69,343.52Z" style="fill:#455a64"></path><path d="M128.86,290.86c.07-.13,6.94,3.67,15.34,8.48s15.16,8.82,15.09,8.94-6.94-3.67-15.35-8.48S128.79,291,128.86,290.86Z" style="fill:#263238"></path><path d="M141.83,279.05c.12-.07,4.13,6.41,8.95,14.48s8.63,14.68,8.51,14.75-4.13-6.41-9-14.48S141.7,279.12,141.83,279.05Z" style="fill:#263238"></path><path d="M163,274.77c.14,0-.57,7.53-1.6,16.78s-2,16.75-2.11,16.73.57-7.53,1.6-16.78S162.86,274.76,163,274.77Z" style="fill:#263238"></path><path d="M182,282.79c.11.09-4.89,5.88-11.16,12.92s-11.44,12.67-11.55,12.57,4.89-5.88,11.16-12.92S181.89,282.69,182,282.79Z" style="fill:#263238"></path><path d="M192.43,301.12c0,.14-7.36,1.85-16.51,3.83s-16.6,3.47-16.63,3.33,7.36-1.86,16.52-3.84S192.4,301,192.43,301.12Z" style="fill:#263238"></path><path d="M193.37,320.94c-.05.13-7.72-2.59-17.13-6.09s-17-6.43-17-6.57,7.72,2.59,17.13,6.09S193.42,320.8,193.37,320.94Z" style="fill:#263238"></path><path d="M180,339.49c-.12.08-4.85-6.84-10.57-15.46s-10.26-15.67-10.14-15.75,4.85,6.84,10.58,15.46S180.12,339.41,180,339.49Z" style="fill:#263238"></path><path d="M159.32,346.18c-.14,0-.27-8.49-.27-18.95s.1-19,.24-19,.27,8.48.28,19S159.46,346.18,159.32,346.18Z" style="fill:#263238"></path><path d="M129.75,329.14c-.08-.12,6.46-4.93,14.61-10.75s14.83-10.44,14.91-10.32-6.46,4.93-14.61,10.75S129.83,329.25,129.75,329.14Z" style="fill:#263238"></path><path d="M123.27,311.39a3.61,3.61,0,0,1,.72-.12l2.08-.24,7.68-.79,25.5-2.43.47,0-.22.42-.59,1.13c-4.76,9.15-9.08,17.42-12.23,23.47l-3.77,7.09-1,1.91a3.68,3.68,0,0,1-.4.65,4.66,4.66,0,0,1,.31-.7c.24-.49.56-1.14.95-2l3.62-7.16c3.12-6.06,7.39-14.36,12.1-23.54L159,308l.25.38-25.51,2.27-7.69.63-2.09.14A5,5,0,0,1,123.27,311.39Z" style="fill:#263238"></path><path d="M195.57,306.54s0-.2-.12-.58-.16-1-.29-1.7c-.06-.37-.13-.79-.21-1.25s-.25-.95-.39-1.48a25.52,25.52,0,0,0-1.14-3.64,34.62,34.62,0,0,0-5-9.14,36.23,36.23,0,0,0-26-14.32,31.9,31.9,0,0,0-4.59-.05c-.77.05-1.56.06-2.34.16l-2.36.37c-.4.07-.8.11-1.19.2l-1.18.31c-.78.22-1.58.4-2.37.65a38.72,38.72,0,0,0-9.08,4.45c-.71.49-1.39,1-2.09,1.57a18,18,0,0,0-2,1.71,39.93,39.93,0,0,0-3.69,3.88,40.4,40.4,0,0,0-3.08,4.52l-.7,1.19-.6,1.26-.6,1.26a9.22,9.22,0,0,0-.54,1.29c-.31.88-.63,1.76-1,2.65l-.69,2.76a35.6,35.6,0,0,0,2.38,22.59c.42.86.83,1.71,1.25,2.55s1,1.61,1.48,2.4a7.62,7.62,0,0,0,.8,1.15l.84,1.11.85,1.11.93,1a41.45,41.45,0,0,0,4,3.79,40.28,40.28,0,0,0,4.43,3,17.35,17.35,0,0,0,2.32,1.26c.79.37,1.57.77,2.37,1.1a39.36,39.36,0,0,0,9.81,2.46c.82.09,1.64.09,2.45.14l1.22.06c.4,0,.8,0,1.2-.05l2.39-.12c.78-.07,1.55-.23,2.32-.34a32.74,32.74,0,0,0,4.48-1,36.21,36.21,0,0,0,22.45-19.42,34.42,34.42,0,0,0,3-10,26.93,26.93,0,0,0,.36-3.8c0-.55.07-1.06.07-1.53s0-.89-.06-1.27c0-.74,0-1.31-.06-1.72s0-.59,0-.59,0,.2.06.58.07,1,.12,1.73c0,.38.05.8.08,1.27s0,1-.05,1.54a25.24,25.24,0,0,1-.31,3.82,34.44,34.44,0,0,1-2.93,10.07A36.38,36.38,0,0,1,170,345.26a33.36,33.36,0,0,1-4.52,1c-.78.11-1.56.27-2.36.35l-2.41.13c-.41,0-.82.06-1.22.05l-1.23-.05c-.83,0-1.66-.06-2.49-.14a37.9,37.9,0,0,1-5-.9,40.08,40.08,0,0,1-5-1.57c-.81-.34-1.6-.74-2.4-1.11a17.83,17.83,0,0,1-2.35-1.28,40.54,40.54,0,0,1-4.5-3.06,41.23,41.23,0,0,1-4-3.83l-1-1-.85-1.12-.86-1.13a9.27,9.27,0,0,1-.81-1.16l-1.5-2.44c-.43-.86-.85-1.72-1.27-2.58a36.19,36.19,0,0,1-2.41-22.93c.23-.93.47-1.86.7-2.79s.65-1.8,1-2.69a8.8,8.8,0,0,1,.54-1.31l.61-1.28.6-1.27L128,292a41,41,0,0,1,3.12-4.58,40.07,40.07,0,0,1,3.76-3.93,17.6,17.6,0,0,1,2-1.74c.71-.53,1.4-1.09,2.12-1.59a39.8,39.8,0,0,1,9.22-4.49c.79-.25,1.61-.43,2.4-.65l1.19-.31c.4-.09.81-.13,1.21-.2l2.38-.37c.8-.1,1.59-.1,2.38-.16a34.1,34.1,0,0,1,4.64.07,36.44,36.44,0,0,1,26.2,14.57,34.4,34.4,0,0,1,5,9.25,25.21,25.21,0,0,1,1.1,3.67c.14.54.28,1,.37,1.49s.13.89.18,1.26c.11.74.19,1.31.25,1.72S195.57,306.54,195.57,306.54Z" style="fill:#263238"></path><path d="M201.21,306s-.05-.23-.13-.67-.19-1.12-.33-2l-.24-1.45c-.11-.53-.29-1.09-.45-1.71s-.34-1.29-.53-2-.52-1.43-.79-2.21A39.77,39.77,0,0,0,193,285.36a41.56,41.56,0,0,0-11.8-10.67l-1.94-1.15c-.67-.35-1.38-.66-2.08-1s-1.39-.71-2.15-1l-2.26-.81-1.15-.4-1.19-.3-2.43-.61c-.82-.17-1.67-.26-2.51-.39a22,22,0,0,0-2.57-.31,39.13,39.13,0,0,0-5.31,0c-.9.06-1.81.07-2.72.18l-2.73.43c-.45.08-.92.13-1.37.24l-1.37.35c-.9.25-1.83.46-2.74.75a46,46,0,0,0-10.51,5.15c-.83.57-1.61,1.21-2.42,1.81-.4.32-.83.6-1.2.95l-1.12,1a48,48,0,0,0-4.29,4.49c-.61.85-1.23,1.69-1.86,2.55l-.47.64-.41.68-.81,1.37-.82,1.37-.69,1.45-.69,1.46-.35.74-.27.76c-.37,1-.74,2-1.1,3.07l-.81,3.19a41.37,41.37,0,0,0,2.75,26.16c.49,1,1,2,1.45,2.95s1.15,1.85,1.72,2.77l.43.69.49.65,1,1.28,1,1.28,1.09,1.18,1.08,1.17.55.58.59.52,2.35,2.1a46.48,46.48,0,0,0,5.12,3.51l1.32.78c.44.27.91.45,1.37.68.92.42,1.82.89,2.74,1.27a44.25,44.25,0,0,0,5.66,1.81,45.55,45.55,0,0,0,5.7,1c.95.09,1.9.1,2.84.16l1.41.06c.46,0,.93,0,1.39,0l2.76-.15c.91-.08,1.8-.26,2.69-.39a38,38,0,0,0,5.19-1.16,20.76,20.76,0,0,0,2.45-.83c.79-.31,1.61-.57,2.37-.91l2.25-1.1,1.11-.54,1-.63,2-1.26c.69-.41,1.27-.94,1.9-1.39s1.24-.92,1.83-1.4l1.65-1.53a41.72,41.72,0,0,0,9.33-12.89,39.91,39.91,0,0,0,3.45-11.55,20.68,20.68,0,0,0,.3-2.33c0-.74.08-1.42.11-2.06s.08-1.23.08-1.77,0-1-.06-1.47c0-.86-.07-1.53-.09-2s0-.68,0-.68,0,.22.07.67.07,1.13.13,2q0,.66.09,1.47c0,.54,0,1.13-.05,1.77s-.06,1.34-.09,2.07a20.78,20.78,0,0,1-.28,2.35,39.93,39.93,0,0,1-3.39,11.64,41.85,41.85,0,0,1-9.33,13l-1.67,1.55c-.59.48-1.21.94-1.83,1.42s-1.23,1-1.92,1.4l-2.06,1.28-1,.65-1.11.55-2.27,1.11c-.77.35-1.59.61-2.4.93a22.46,22.46,0,0,1-2.47.85,38.94,38.94,0,0,1-5.23,1.18c-.9.13-1.81.32-2.73.4l-2.78.16c-.47,0-.94.07-1.42.06l-1.42-.07c-.95-.05-1.91-.06-2.87-.16a45.77,45.77,0,0,1-11.49-2.86c-.94-.38-1.85-.85-2.78-1.28-.46-.23-.94-.41-1.38-.68l-1.34-.79a48,48,0,0,1-5.19-3.54L130.57,341l-.6-.53-.55-.59-1.1-1.18-1.1-1.19-1-1.29-1-1.3-.5-.65-.43-.7-1.74-2.81-1.47-3a41.72,41.72,0,0,1-2.78-26.48l.81-3.23c.37-1,.75-2.08,1.12-3.11l.28-.77.35-.74.7-1.48.7-1.47.83-1.39.82-1.39.42-.69.47-.64c.64-.86,1.27-1.72,1.89-2.57a46.76,46.76,0,0,1,4.34-4.54l1.14-1.06c.38-.35.81-.63,1.21-.95.82-.61,1.62-1.26,2.45-1.83a43.2,43.2,0,0,1,5.22-3,45.87,45.87,0,0,1,5.43-2.22c.92-.29,1.86-.5,2.77-.75l1.38-.36c.46-.1.93-.15,1.39-.23l2.76-.43c.92-.11,1.84-.11,2.75-.18a39.85,39.85,0,0,1,5.36.07,20.51,20.51,0,0,1,2.6.32c.85.14,1.71.22,2.54.41l2.44.61,1.21.31,1.16.41,2.28.82c.76.26,1.45.66,2.17,1s1.41.65,2.09,1l1.95,1.16a41.84,41.84,0,0,1,11.84,10.81,39.7,39.7,0,0,1,5.74,10.69,22,22,0,0,1,.77,2.23q.27,1.08.51,2c.15.62.32,1.19.43,1.73s.15,1,.21,1.45c.12.86.22,1.52.28,2S201.21,306,201.21,306Z" style="fill:#263238"></path><path d="M148.67,314.75a11.7,11.7,0,1,0,6.42-15.25A11.7,11.7,0,0,0,148.67,314.75Z" style="fill:#263238"></path><path d="M162.78,310.48s-.05-.26-.19-.69a2.92,2.92,0,0,0-1.08-1.49,2.74,2.74,0,0,0-2.57-.34,2.69,2.69,0,0,0,0,5.05,2.77,2.77,0,0,0,2.57-.35,2.92,2.92,0,0,0,1.08-1.49c.14-.43.15-.69.19-.69s.09.26,0,.74a3,3,0,0,1-1,1.74,3.13,3.13,0,0,1-3,.5,3.15,3.15,0,0,1,0-5.95,3.08,3.08,0,0,1,3,.5,2.91,2.91,0,0,1,1,1.73C162.87,310.22,162.81,310.48,162.78,310.48Z" style="fill:#263238"></path><path d="M303.4,238.54c-.5-3.37-.44-8.42-3.36-10.17-2.05-1.22-3.57-12.38-5.94-12.19-8.38.67-17.54,12.26-25.92,13,0,.12-.15.43-.16.53-7.14,1.37-13.2,3.92-20.35,5.27-2.53-.43-5.21,1.57-6.06,4.09-.94,2.79-.19,5.87.9,8.6s2.52,5.38,3,8.29c.82,5.09-1.35,10.62.78,15.32,2.06,4.53,7.37,6.54,12.26,7.48a60.52,60.52,0,0,0,24.46-.3c5.79-1.27,11.59-3.55,15.59-7.92,3.77-4.12,5.56-9.76,6-15.34S304.22,244.07,303.4,238.54Z" style="fill:#e0e0e0"></path><path d="M243.43,267.13s-80.81,37-86.54,39.75c-4,1.95-2.41,9.73,4.06,7.68s89.15-41.29,89.15-41.29Z" style="fill:#ebebeb"></path><path d="M190.52,247.75c1.79.41,18,4.24,18.45,3.13s1.44-3.41,1.44-3.41,14.15,3.22,19.51,2.2,60.54-30,60.54-30l-7.11-3.45s-51.24,26.16-54.29,27.56c-2.53,1.16-16.27-2.11-16.27-2.11s1.27-4.45.77-5-16.1-2.28-16.1-2.28-9,14.18-8,13.79" style="fill:#e0e0e0"></path><path d="M213.67,237a7.12,7.12,0,0,1-.09,2.17,23.56,23.56,0,0,1-1.33,5.06A36.28,36.28,0,0,1,210,249a8.31,8.31,0,0,1-1.18,1.82c-.16-.08,1.46-3,2.93-6.72A53.08,53.08,0,0,0,213.67,237Z" style="fill:#263238"></path><path d="M298.12,256.41c-.53-1.48-2.55-1.71-4.1-1.42-4.53.86-8.32,3.83-12.25,6.22s-8.71,4.33-13.08,2.84c-1.94-.66-3.62-1.95-5.57-2.59a9,9,0,0,0-5.71,17,10.84,10.84,0,0,0,9.07-2.22c1.11-1,1.42-3.93,2.55-4.86a10.13,10.13,0,0,1,4.76-2.17c7.57-1.59,14.54-5.18,21.42-8.73a7.6,7.6,0,0,0,2.25-1.53A2.61,2.61,0,0,0,298.12,256.41Zm-35,18a5.16,5.16,0,1,1-1-9.59,5.22,5.22,0,0,1,3.73,4A5.31,5.31,0,0,1,263.11,274.38Z" style="fill:none"></path><path d="M263.11,274.38a8.07,8.07,0,0,1,.73-.57,5.42,5.42,0,0,0,1.48-2A5,5,0,0,0,262.1,265h0a5,5,0,0,0-3.45.38,4.82,4.82,0,0,0-2.19,2.11,5,5,0,0,0-.49,2.8,5.15,5.15,0,0,0,.92,2.43,4.75,4.75,0,0,0,1.74,1.45,5.5,5.5,0,0,0,3.28.48c.79-.14,1.2-.36,1.22-.31s-.09.08-.28.18a5,5,0,0,1-.9.33,5.43,5.43,0,0,1-3.48-.35,5.09,5.09,0,0,1-1.93-1.53,5.42,5.42,0,0,1-1-2.63,5.52,5.52,0,0,1,.52-3.08A5.23,5.23,0,0,1,258.4,265a5.52,5.52,0,0,1,3.81-.4h0a4.56,4.56,0,0,1,2.34,1.33,6,6,0,0,1,1.3,2.07,5,5,0,0,1-.21,4,5.25,5.25,0,0,1-1.67,2A2.34,2.34,0,0,1,263.11,274.38Z" style="fill:#263238"></path><path d="M298.12,256.41a1.62,1.62,0,0,1,.14,1,3.34,3.34,0,0,1-1.52,2.31c-1,.71-2.37,1.32-3.9,2.15s-3.31,1.71-5.31,2.66a63.69,63.69,0,0,1-14.71,5.17,8.8,8.8,0,0,0-3.84,2.08c-.89,1.16-1,2.85-2,4.29a10.6,10.6,0,0,1-9.62,2.66h0a9.48,9.48,0,0,1-5.77-6.24,8.83,8.83,0,0,1,.24-6,9.13,9.13,0,0,1,3.87-4.31,9.55,9.55,0,0,1,5.43-1.34,11.56,11.56,0,0,1,5.06,1.77,11.77,11.77,0,0,0,4.63,1.66,12.11,12.11,0,0,0,4.63-.42A27.92,27.92,0,0,0,283,260.2a68.28,68.28,0,0,1,6.07-3.62,18.23,18.23,0,0,1,5.06-1.72,4.4,4.4,0,0,1,3.29.59,2,2,0,0,1,.56.68.92.92,0,0,1,.1.28,2.37,2.37,0,0,0-.73-.88,4.41,4.41,0,0,0-3.19-.47,18.53,18.53,0,0,0-5,1.78c-1.84.94-3.8,2.25-6,3.67a28.32,28.32,0,0,1-7.7,3.76,13,13,0,0,1-4.8.46,12.24,12.24,0,0,1-4.81-1.7,11.28,11.28,0,0,0-4.86-1.7,9.14,9.14,0,0,0-5.15,1.29,8.66,8.66,0,0,0-3.65,4.07,8.36,8.36,0,0,0-.21,5.61,9,9,0,0,0,5.43,5.91h0a11,11,0,0,0,5-.14,9.13,9.13,0,0,0,4.14-2.31c.88-1.26,1-3,2-4.31a9.25,9.25,0,0,1,4.08-2.21,64.88,64.88,0,0,0,14.69-5c2-.92,3.77-1.81,5.32-2.59s2.93-1.4,3.93-2.06a3.29,3.29,0,0,0,1.53-2.18A2.56,2.56,0,0,0,298.12,256.41Z" style="fill:#263238"></path><path d="M256.56,244.14a2.46,2.46,0,0,1,.48-.26l1.41-.67,5.32-2.43L282,232.63l.3-.13.05.32a21.16,21.16,0,0,0,2.95,7.73c.32.52.68,1,1,1.48l.21.29-.34.11c-4.59,1.53-9.11,2.36-12.82,4.15a19.13,19.13,0,0,0-4.84,3.17,12.92,12.92,0,0,0-3,4,11.34,11.34,0,0,0-1.15,3.95,6.71,6.71,0,0,0,.42,3.05,8,8,0,0,0,1.47,2.2,3.76,3.76,0,0,1-.53-.46,5.86,5.86,0,0,1-1.12-1.67,6.7,6.7,0,0,1-.52-3.14,11.49,11.49,0,0,1,1.1-4.09,13,13,0,0,1,3-4.16,19.43,19.43,0,0,1,4.91-3.29c3.78-1.84,8.33-2.7,12.87-4.21l-.13.4c-.35-.47-.71-1-1-1.51a21.43,21.43,0,0,1-3-7.93l.35.19-18.31,8-5.38,2.29-1.45.59A2.32,2.32,0,0,1,256.56,244.14Z" style="fill:#263238"></path><path d="M298.91,245.6c0,.13-5.81,2.41-13.09,5.08s-13.22,4.74-13.27,4.6,5.81-2.41,13.09-5.08S298.86,245.46,298.91,245.6Z" style="fill:#263238"></path><path d="M268.06,229.23l.12,0C268.19,229.15,268.16,229.14,268.06,229.23Z" style="fill:#ebebeb"></path><path d="M429.61,245.2s.38-5.06,1.34-5.53l4.22-2.1-.78-4.32s-4,0-4.89-2.37c0,0-1-4.58-.2-5.23l3.7-2.93-1.65-4.06s-3.93.81-5.27-1.33c-.41-.65-.81-1.27-1.17-1.82a6.65,6.65,0,0,1,.34-1.34,30.65,30.65,0,0,1,2.71-3.86l-2.74-3.42s-3.54,1.9-5.44.23c-.72-.64-1.42-1.23-2-1.73a8.37,8.37,0,0,1,.14-1.87,31,31,0,0,1,2.13-4.21l-3.2-3s-3.23,2.39-5.34,1c-1.64-1.06-3.15-2-3.76-2.35a8.69,8.69,0,0,1-.9-2,30.84,30.84,0,0,1-.07-4.72l-4.23-1.15s-1.62,3.33-4,3.38c-.37-.26-3.51-2.47-4.37-3.79a30.82,30.82,0,0,1-1.64-4.42l-4.37.31s-.44,4-2.89,4.61l-.69.18-.44,0a16.55,16.55,0,0,1-3.73-2.29,31.9,31.9,0,0,1-2.44-4l-4.24,1.14s.32,4-2,5.07l-.53.24q-1.58.22-3.15.54a5.34,5.34,0,0,1-1-.55,31.84,31.84,0,0,1-3.1-3.56l-4,1.85s.78,3.11-.54,4.79l-1.17.49a14.49,14.49,0,0,1-3.94-.06,31.7,31.7,0,0,1-4.19-2.19l-3,3.17s1.83,2.55,1.29,4.59c-1.22.87-2.39,1.8-3.52,2.77a6.71,6.71,0,0,1-1.35,0,31.26,31.26,0,0,1-4.41-1.7l-2.65,3.49s2.7,3,1.54,5.21c-.08.16-.15.31-.23.46a19.38,19.38,0,0,1-4.56,2.36,31,31,0,0,1-4.72-.06l-1.27,4.2s3.56,1.84,3.26,4.35c-.11.91-.2,1.78-.27,2.52a15.14,15.14,0,0,1-3,2.76,30.28,30.28,0,0,1-4.53,1.31v4.39s3.95.73,4.38,3.22c0,0-.38,5.06-1.33,5.53l-4.23,2.1.79,4.32s4,0,4.89,2.38c0,0,1,4.57.19,5.22l-3.7,2.93,1.65,4.06s3.93-.81,5.27,1.33c.41.65.81,1.27,1.17,1.82a6.09,6.09,0,0,1-.33,1.34,31.57,31.57,0,0,1-2.72,3.86l2.75,3.42s3.53-1.9,5.43-.23c.73.64,1.43,1.24,2,1.73a7.81,7.81,0,0,1-.14,1.87,31,31,0,0,1-2.13,4.21l3.21,3s3.22-2.39,5.34-1c1.63,1.06,3.15,2,3.76,2.35a9,9,0,0,1,.89,2,30.84,30.84,0,0,1,.07,4.72l4.23,1.16s1.62-3.33,4-3.38c.36.25,3.5,2.46,4.36,3.78a30.85,30.85,0,0,1,1.64,4.43l4.38-.32s.44-4,2.88-4.61l.92-.24a16.92,16.92,0,0,1,3.94,2.41,30.11,30.11,0,0,1,2.44,4l4.24-1.14s-.32-4,2-5.06l2.56-1.24a9.72,9.72,0,0,1,2.11,1,30.81,30.81,0,0,1,3.1,3.56l4-1.85s-.94-3.7.94-5.21a17.25,17.25,0,0,1,4.71,0,30.47,30.47,0,0,1,4.18,2.18l3-3.17s-2.34-3.26-.94-5.36c.39-.59.77-1.16,1.1-1.68l.05,0a12.46,12.46,0,0,1,3.38-.27,30.52,30.52,0,0,1,4.4,1.69l2.65-3.49s-2.69-3-1.54-5.21l.23-.46a19.44,19.44,0,0,1,4.57-2.36,31,31,0,0,1,4.72.06l1.27-4.2s-3.57-1.84-3.27-4.35c.11-.9.2-1.77.28-2.52a14.87,14.87,0,0,1,3-2.76,31.19,31.19,0,0,1,4.53-1.31v-4.39S430.05,247.69,429.61,245.2Zm-38.45,26.14A35.8,35.8,0,1,1,411.52,225,35.8,35.8,0,0,1,391.16,271.34Z" style="fill:#455a64"></path><path d="M347.85,218.47c.07-.13,6.94,3.68,15.34,8.49s15.16,8.81,15.09,8.94-6.94-3.68-15.35-8.49S347.78,218.59,347.85,218.47Z" style="fill:#263238"></path><path d="M360.82,206.67c.12-.08,4.13,6.41,8.95,14.48s8.63,14.67,8.51,14.75-4.13-6.41-9-14.49S360.69,206.74,360.82,206.67Z" style="fill:#263238"></path><path d="M382,202.38c.14,0-.57,7.54-1.6,16.79s-2,16.74-2.11,16.73.57-7.53,1.6-16.79S381.85,202.37,382,202.38Z" style="fill:#263238"></path><path d="M401,210.4c.11.1-4.89,5.88-11.16,12.92S378.39,236,378.28,235.9,383.17,230,389.44,223,400.88,210.31,401,210.4Z" style="fill:#263238"></path><path d="M411.42,228.73c0,.14-7.36,1.86-16.51,3.84s-16.6,3.47-16.63,3.33,7.36-1.86,16.52-3.84S411.39,228.59,411.42,228.73Z" style="fill:#263238"></path><path d="M412.36,248.55c-.05.13-7.72-2.59-17.13-6.08s-17-6.44-17-6.57,7.72,2.58,17.13,6.08S412.41,248.41,412.36,248.55Z" style="fill:#263238"></path><path d="M399,267.1c-.12.08-4.85-6.84-10.57-15.46S378.16,236,378.28,235.9s4.85,6.84,10.58,15.46S399.11,267,399,267.1Z" style="fill:#263238"></path><path d="M378.31,273.79c-.14,0-.27-8.48-.28-19s.11-18.94.25-18.94.27,8.48.28,18.94S378.45,273.79,378.31,273.79Z" style="fill:#263238"></path><path d="M348.74,256.75c-.08-.12,6.46-4.93,14.61-10.74s14.83-10.44,14.91-10.32-6.46,4.92-14.61,10.74S348.82,256.87,348.74,256.75Z" style="fill:#263238"></path><path d="M342.26,239a3.61,3.61,0,0,1,.72-.12l2.08-.24,7.68-.79,25.49-2.42.48-.05-.22.43c-.19.35-.39.74-.59,1.13l-12.23,23.47-3.77,7.08-1,1.92a5.09,5.09,0,0,1-.4.65,4.66,4.66,0,0,1,.31-.7l1-2,3.62-7.16,12.1-23.54c.2-.39.4-.78.59-1.13l.25.37-25.51,2.27-7.69.63L343,239A3.66,3.66,0,0,1,342.26,239Z" style="fill:#263238"></path><path d="M414.56,234.15s-.05-.19-.12-.57-.16-1-.29-1.7q-.09-.57-.21-1.26c-.1-.45-.25-.94-.39-1.48a25.52,25.52,0,0,0-1.14-3.64,34.62,34.62,0,0,0-5-9.14,36.23,36.23,0,0,0-26-14.32,35.08,35.08,0,0,0-4.59,0c-.78.06-1.56.06-2.35.16l-2.35.37c-.4.07-.8.11-1.19.21l-1.18.31c-.78.21-1.58.39-2.37.64a38.29,38.29,0,0,0-4.63,1.91,36.6,36.6,0,0,0-4.45,2.54c-.71.49-1.39,1.05-2.09,1.57a18.1,18.1,0,0,0-2,1.72,38.81,38.81,0,0,0-3.69,3.88,39.5,39.5,0,0,0-3.08,4.52l-.7,1.19-.6,1.25-.6,1.26a10.35,10.35,0,0,0-.54,1.29c-.31.88-.63,1.77-.95,2.66l-.69,2.75a35.64,35.64,0,0,0,2.38,22.6l1.25,2.55,1.48,2.4a8.78,8.78,0,0,0,.8,1.15l.84,1.11.84,1.1.94,1a42.61,42.61,0,0,0,3.95,3.78,41.83,41.83,0,0,0,4.43,3,18.57,18.57,0,0,0,2.32,1.26c.79.36,1.57.77,2.37,1.1a39.36,39.36,0,0,0,9.81,2.46c.82.08,1.64.09,2.45.14l1.22.06c.4,0,.8,0,1.2-.05l2.39-.13c.78-.07,1.55-.23,2.32-.34a32.74,32.74,0,0,0,4.48-1,35.82,35.82,0,0,0,14.39-8.28A36.22,36.22,0,0,0,411.27,253a34.42,34.42,0,0,0,3-10,26.79,26.79,0,0,0,.36-3.8c0-.55.07-1.06.07-1.53s0-.88-.06-1.26c0-.75-.05-1.32-.06-1.73s0-.59,0-.59,0,.2.06.59.07,1,.12,1.72c0,.38.05.81.08,1.27s0,1-.05,1.54a25.15,25.15,0,0,1-.31,3.82,34.44,34.44,0,0,1-2.93,10.07,36.43,36.43,0,0,1-22.59,19.72,33.34,33.34,0,0,1-4.52,1c-.78.12-1.56.28-2.36.35l-2.41.13c-.41,0-.82.07-1.22.06l-1.23-.06c-.83-.05-1.66-.05-2.49-.13a39.66,39.66,0,0,1-5-.91,36.51,36.51,0,0,1-5-1.57c-.81-.33-1.6-.74-2.4-1.11a18.6,18.6,0,0,1-2.36-1.28,40,40,0,0,1-4.49-3.06,41.23,41.23,0,0,1-4-3.83l-1-1-.85-1.12-.86-1.12a9.38,9.38,0,0,1-.81-1.17l-1.5-2.43c-.43-.86-.85-1.72-1.27-2.59a36.15,36.15,0,0,1-2.41-22.92c.23-.94.47-1.87.7-2.79s.65-1.8,1-2.7a9.26,9.26,0,0,1,.54-1.31l.61-1.27.6-1.28.72-1.2a42.9,42.9,0,0,1,3.12-4.58,42.45,42.45,0,0,1,3.76-3.93,17.6,17.6,0,0,1,2-1.74c.71-.53,1.4-1.09,2.12-1.58a38.46,38.46,0,0,1,4.52-2.57,37.17,37.17,0,0,1,4.7-1.93c.79-.25,1.61-.43,2.4-.64l1.19-.31c.4-.1.81-.14,1.21-.21l2.38-.37c.8-.09,1.59-.1,2.38-.15a34.12,34.12,0,0,1,4.64.06,36.41,36.41,0,0,1,26.2,14.58,34.21,34.21,0,0,1,5,9.24,25.58,25.58,0,0,1,1.1,3.67c.14.54.28,1,.37,1.5s.13.88.18,1.26c.11.74.19,1.3.25,1.71S414.56,234.15,414.56,234.15Z" style="fill:#263238"></path><path d="M420.2,233.56s-.05-.23-.13-.67-.19-1.11-.33-2q-.11-.64-.24-1.44c-.11-.53-.29-1.1-.45-1.72s-.34-1.28-.53-2-.52-1.44-.79-2.22A39.93,39.93,0,0,0,412,213a41.71,41.71,0,0,0-11.8-10.67l-1.94-1.15c-.67-.35-1.38-.65-2.08-1s-1.39-.71-2.15-1l-2.26-.8-1.15-.41-1.19-.3-2.43-.6c-.82-.18-1.67-.26-2.51-.4a20,20,0,0,0-2.57-.3,37.56,37.56,0,0,0-5.31-.06c-.9.07-1.81.07-2.72.18l-2.73.43c-.46.08-.92.13-1.37.24l-1.37.36c-.9.25-1.83.45-2.74.74a46.55,46.55,0,0,0-5.36,2.21,43.4,43.4,0,0,0-5.15,2.94c-.83.57-1.61,1.21-2.42,1.82-.4.31-.83.59-1.2.94l-1.12,1.05a45.67,45.67,0,0,0-4.29,4.49c-.61.84-1.23,1.69-1.86,2.54l-.47.64-.41.68-.81,1.37-.82,1.38-.69,1.45-.69,1.46L340,222l-.28.76-1.09,3.07-.81,3.19a41.37,41.37,0,0,0,2.75,26.16l1.45,3,1.72,2.78.43.69.49.64,1,1.29,1,1.27,1.09,1.18,1.08,1.17.55.58.59.53,2.35,2.1a47.81,47.81,0,0,0,5.12,3.5l1.32.79c.44.26.91.44,1.37.67.92.43,1.82.89,2.74,1.27a42.72,42.72,0,0,0,5.66,1.81,43.8,43.8,0,0,0,5.7,1c.95.1,1.9.11,2.84.16l1.4.07c.47,0,.94,0,1.4-.06l2.76-.14c.91-.09,1.8-.27,2.69-.39a39.54,39.54,0,0,0,5.19-1.16,20.81,20.81,0,0,0,2.45-.84c.79-.31,1.61-.56,2.37-.91l2.25-1.09,1.11-.54c.34-.22.69-.43,1-.64l2-1.26c.69-.4,1.27-.93,1.9-1.38s1.24-.93,1.83-1.41l1.65-1.52a41.76,41.76,0,0,0,9.33-12.9,39.82,39.82,0,0,0,3.45-11.55,23.27,23.27,0,0,0,.3-2.33c0-.73.08-1.42.11-2.06s.08-1.23.08-1.77,0-1-.06-1.47c0-.86-.07-1.52-.09-2s0-.68,0-.68,0,.23.07.68.07,1.13.13,2q0,.66.09,1.47c0,.54,0,1.13-.05,1.78s-.06,1.33-.09,2.07a20.89,20.89,0,0,1-.28,2.34,40,40,0,0,1-3.39,11.65,42,42,0,0,1-9.33,13l-1.67,1.54c-.59.49-1.21.94-1.83,1.42s-1.23,1-1.92,1.41l-2.06,1.28-1.05.64-1.11.55-2.27,1.11c-.77.36-1.59.62-2.4.93a20.54,20.54,0,0,1-2.47.85,40.56,40.56,0,0,1-5.23,1.19c-.9.12-1.81.31-2.73.39l-2.79.16c-.46,0-.93.07-1.41.06L377,280c-.95-.05-1.91-.06-2.87-.15a47,47,0,0,1-5.77-1,45.13,45.13,0,0,1-5.72-1.82c-.94-.39-1.85-.86-2.78-1.29-.46-.23-.94-.41-1.39-.68l-1.33-.79a46.64,46.64,0,0,1-5.19-3.54l-2.38-2.12-.6-.54-.55-.58-1.1-1.19-1.1-1.19-1-1.29-1-1.3-.5-.65-.43-.7-1.74-2.81-1.47-3a41.7,41.7,0,0,1-2.78-26.48l.81-3.23c.37-1,.75-2.07,1.12-3.11l.28-.77.35-.74.7-1.48.7-1.47.83-1.39.82-1.38.42-.69.47-.65c.64-.86,1.27-1.72,1.89-2.57a49.17,49.17,0,0,1,4.34-4.54l1.14-1.05c.38-.36.81-.64,1.21-1,.82-.61,1.62-1.26,2.45-1.83a46,46,0,0,1,10.65-5.19c.92-.29,1.86-.5,2.77-.75l1.38-.36c.46-.11.93-.16,1.39-.24l2.76-.43c.92-.1,1.84-.11,2.75-.17a38.26,38.26,0,0,1,5.36.07,22.5,22.5,0,0,1,2.6.31c.85.14,1.71.23,2.53.41l2.45.62,1.21.3,1.16.42,2.28.82a23.49,23.49,0,0,1,2.17,1c.7.34,1.41.66,2.09,1l1.95,1.17a41.69,41.69,0,0,1,11.84,10.81,39.66,39.66,0,0,1,5.74,10.68,22.86,22.86,0,0,1,.77,2.23q.27,1.08.51,2c.15.63.32,1.2.42,1.73s.16,1,.22,1.46c.12.85.22,1.51.28,2S420.2,233.56,420.2,233.56Z" style="fill:#263238"></path><path d="M367.66,242.37a11.7,11.7,0,1,0,6.42-15.26A11.7,11.7,0,0,0,367.66,242.37Z" style="fill:#263238"></path><path d="M243.43,267.13l.44.38,1.29,1.15,5,4.54.11.1-.14.07c-7.45,3.59-19.78,9.46-35.25,16.76L189.5,302l-14.09,6.5-7.34,3.31-3.76,1.64c-.63.27-1.25.55-1.91.8a11.93,11.93,0,0,1-2,.67,5.41,5.41,0,0,1-2.88,0,4,4,0,0,1-2.31-1.73,4.82,4.82,0,0,1,.18-5.45,5.72,5.72,0,0,1,2.33-1.55l2.45-1.13,4.84-2.22,18.44-8.45,31.24-14.28,21-9.57,5.71-2.57,1.48-.66c.33-.15.5-.21.5-.21s-.17.1-.51.26l-1.49.71-5.71,2.67-21,9.74-31.12,14.37-18.38,8.46-4.82,2.22L158,306.68a5.27,5.27,0,0,0-2.14,1.41,4.33,4.33,0,0,0-.15,4.85,3.42,3.42,0,0,0,2,1.51,5.06,5.06,0,0,0,2.62,0,11.79,11.79,0,0,0,1.92-.66c.63-.23,1.26-.52,1.89-.79l3.75-1.63,7.34-3.31,14.09-6.48,25.41-11.84,35.35-16.56,0,.17-4.9-4.59-1.27-1.2C243.58,267.29,243.43,267.13,243.43,267.13Z" style="fill:#263238"></path><path d="M249.46,278s34.36-4.43,38.9-6.42,11.22-8.16,11.63-13.33-3.44-32.66-3.44-32.66l6,4.86s2.13,23.88,2.86,27.23-2.26,16.38-16.4,20.91-37.19,5.09-37.19,5.09-17.63,15.3-19,15.43-5.94-2.41-4.75-3.67S249.46,278,249.46,278Z" style="fill:#ebebeb"></path><path d="M253.75,229.37c.6-.33,21.67-9.16,26.39-8s14.72,11.86,17,14.31,6.38,34.42,23.07,27.8c0,0-1.17-32.78-3.42-37.6s-12.77-15.08-13.32-15.37-5.34-5.08-13.06-4.56-34.81,15.15-34.81,15.15Z" style="fill:#263238"></path><path d="M310.63,262.73a4.14,4.14,0,0,1-.13-.84l-.27-2.4c-.23-2.09-.53-5.12-1.09-8.83a81.58,81.58,0,0,0-2.9-12.82,45.76,45.76,0,0,0-7.3-14.23,23.35,23.35,0,0,0-6-5.62,14.25,14.25,0,0,0-3.57-1.56,13.47,13.47,0,0,0-3.71-.42,25.54,25.54,0,0,0-6.84,1.31c-2.11.64-4,1.42-5.78,2.06l-8.35,3.06-2.28.81a5.17,5.17,0,0,1-.81.25,6.58,6.58,0,0,1,.77-.34l2.24-.9,8.3-3.23c1.76-.66,3.66-1.46,5.78-2.12a25.51,25.51,0,0,1,7-1.38,13.78,13.78,0,0,1,3.85.42,14.45,14.45,0,0,1,3.71,1.61,23.53,23.53,0,0,1,6.16,5.73,45.52,45.52,0,0,1,7.34,14.4,79,79,0,0,1,2.82,12.92c.51,3.73.75,6.76.92,8.86.07,1,.13,1.82.17,2.41A6,6,0,0,1,310.63,262.73Z" style="fill:#455a64"></path><path d="M253.75,229.37c.6-.33,21.67-9.16,26.39-8s14.72,11.86,17,14.31,6.38,34.42,23.07,27.8c0,0-1.17-32.78-3.42-37.6s-12.77-15.08-13.32-15.37-5.34-5.08-13.06-4.56-34.81,15.15-34.81,15.15Z" style="fill:#263238"></path><path d="M310.63,262.73a4.14,4.14,0,0,1-.13-.84l-.27-2.4c-.23-2.09-.53-5.12-1.09-8.83a81.58,81.58,0,0,0-2.9-12.82,45.76,45.76,0,0,0-7.3-14.23,23.35,23.35,0,0,0-6-5.62,14.25,14.25,0,0,0-3.57-1.56,13.47,13.47,0,0,0-3.71-.42,25.54,25.54,0,0,0-6.84,1.31c-2.11.64-4,1.42-5.78,2.06l-8.35,3.06-2.28.81a5.17,5.17,0,0,1-.81.25,6.58,6.58,0,0,1,.77-.34l2.24-.9,8.3-3.23c1.76-.66,3.66-1.46,5.78-2.12a25.51,25.51,0,0,1,7-1.38,13.78,13.78,0,0,1,3.85.42,14.45,14.45,0,0,1,3.71,1.61,23.53,23.53,0,0,1,6.16,5.73,45.52,45.52,0,0,1,7.34,14.4,79,79,0,0,1,2.82,12.92c.51,3.73.75,6.76.92,8.86.07,1,.13,1.82.17,2.41A6,6,0,0,1,310.63,262.73Z" style="fill:#455a64"></path><path d="M259.46,273c-.13-.08.66-1.49,1.25-3.36s.79-3.46.94-3.45a7,7,0,0,1-.44,3.61A7.1,7.1,0,0,1,259.46,273Z" style="fill:#263238"></path><path d="M264.28,272.43c-.12.1-1.36-1.45-3.34-2.83s-3.85-2-3.8-2.19a10.92,10.92,0,0,1,7.14,5Z" style="fill:#263238"></path><path d="M155.68,216.62l42.16,2.91L256,204l15.15-42c-12,5.95-28.13,24.48-41.52,30.61s-24.24,6.9-38.69,7.21c0,0-27.11-.62-36.21,9.09Z" style="fill:#263238"></path><path d="M360,153.52c-12.73-3.81-36.19,1.64-45.53,4.1l-13-13.08-8.51,7.83c-1.74-3.27-3.24-3.51-8.08-1.39-5.71,2.51-13.91,10.84-13.91,10.84s-3.17,4.17-7.18,9.48h0c-5.89,7.8-13.6,18.06-15.72,21.13a14.23,14.23,0,0,0-1.12,1.9c-7.74,8.7-17.18,16.72-26.12,17.48-7,.6-56.37-4.83-65.93-4.28s-46.73,19.34-47.11,20.07c0,0,28.68-6.24,53.6-9.27a6.78,6.78,0,0,0-.39.73c-.08,0-15.08,16.61-14.81,19.38s25.56,18.53,32.41,17.74,28.52-15.42,33.24-20.53c.92-1,1.84-1.86,2.55-2.7a33.46,33.46,0,0,0,24.54-1l42.25-16.09h0l15.7-2.63c12.54-2.11,23.73-18.14,24.79-29,.24-2.46.44-4.56.62-6.39,15.77-17,50.8-12.38,57.43-11.5,7.29,1,8.16-2.6,8.16-2.6A229,229,0,0,0,360,153.52Z" style="fill:#FF725E"></path><path d="M190.11,251a1.8,1.8,0,0,1,.25-.17l.75-.46,2.89-1.78c2.48-1.58,6-4,10.16-7.22l6.77-5.33a17.32,17.32,0,0,0,3.34-3.34,5.57,5.57,0,0,0,.95-2.19,3.84,3.84,0,0,0-.35-2.37,8.64,8.64,0,0,0-3.77-3.46c-1.59-.86-3.28-1.67-5-2.49-3.41-1.64-7-3.23-10.71-4.75s-7.4-2.91-11-4.05a23,23,0,0,0-10.66-1.14,21.89,21.89,0,0,0-8.88,3.92,36,36,0,0,0-6.33,5.75c-3.42,4-6.21,7.23-8,9.55l-2.08,2.68-.53.7c-.13.16-.19.24-.2.23a1.16,1.16,0,0,1,.15-.26l.5-.73c.45-.63,1.11-1.57,2-2.74,1.76-2.37,4.51-5.63,7.9-9.67a36.7,36.7,0,0,1,6.36-5.87,22.48,22.48,0,0,1,9.05-4,23.57,23.57,0,0,1,10.89,1.13c3.63,1.15,7.3,2.56,11,4.06s7.33,3.12,10.75,4.77c1.71.83,3.37,1.64,5,2.52a9.13,9.13,0,0,1,4,3.68,4.46,4.46,0,0,1,.38,2.66,6.11,6.11,0,0,1-1,2.37,18.29,18.29,0,0,1-3.45,3.42c-2.45,1.91-4.72,3.69-6.82,5.28a118.54,118.54,0,0,1-10.28,7.1c-1.26.76-2.25,1.33-2.93,1.7l-.78.42A1,1,0,0,1,190.11,251Z" style="fill:#263238"></path><path d="M264.48,210.13a3.14,3.14,0,0,1,.55-.4c.36-.25.92-.56,1.59-1a26.65,26.65,0,0,0,5-4.94c3.7-4.67,7.06-12.37,9-21.26.49-2.22.84-4.43,1.34-6.53s1-4.11,1.66-6a58.15,58.15,0,0,1,4.14-9.67c1.48-2.62,2.78-4.66,3.74-6,.49-.69.89-1.2,1.17-1.54a3.43,3.43,0,0,1,.45-.5,3.53,3.53,0,0,1-.37.56c-.25.37-.62.89-1.08,1.59-.9,1.4-2.16,3.47-3.58,6.09a60.36,60.36,0,0,0-4,9.65c-.6,1.88-1.15,3.87-1.62,6s-.84,4.29-1.33,6.53c-1.91,8.94-5.36,16.71-9.18,21.38a25,25,0,0,1-5.16,4.87c-.69.47-1.28.76-1.66,1A4.26,4.26,0,0,1,264.48,210.13Z" style="fill:#263238"></path><path d="M176.85,237.14l-2.62-1.59-2.69,3-3.61-2.19,2.71-2.94-8.6-5.2,2-2.2,15.53-4.44,4,2.44L169,228.29l4.2,2.54,2.4-2.63,3.45,2.08-2.4,2.63,2.62,1.59Z" style="fill:#fff"></path><path d="M190.11,232l-2.71,2.51,1,.58c4,2.42,5,5.27,3.33,8-2.17,3.59-6.61,4-10.94,1.39a10.51,10.51,0,0,1-4.75-5.39l3.42-1.64a7.76,7.76,0,0,0,3.43,4.07c2.19,1.32,3.94,1.23,4.83-.26.69-1.14.24-2.35-2-3.7l-4.33-2.62,8-7.42,9.77,5.91L196.75,236Z" style="fill:#fff"></path><path d="M317.19,193.6a8.51,8.51,0,0,1-1.36-.5c-.86-.36-2.11-.86-3.66-1.45A91.28,91.28,0,0,0,286.91,186c-1.66-.14-3-.22-3.93-.26a8.18,8.18,0,0,1-1.45-.12,7.63,7.63,0,0,1,1.45-.08c.94,0,2.29,0,3.95.09a78.69,78.69,0,0,1,25.37,5.67c1.55.63,2.78,1.19,3.61,1.6A8.33,8.33,0,0,1,317.19,193.6Z" style="fill:#fff"></path><path d="M245.85,228.5a6,6,0,0,1-1.1.68c-.73.41-1.8,1-3.15,1.59a49.19,49.19,0,0,1-11,3.73,34.44,34.44,0,0,1-6.41.64,26,26,0,0,1-5.23-.57A16.32,16.32,0,0,1,217,234a9.24,9.24,0,0,1-1.43-.51,6.58,6.58,0,0,1-1.17-.55c0-.11,1.72.67,4.63,1.23a27.48,27.48,0,0,0,5.15.45,36.37,36.37,0,0,0,6.31-.67,55.94,55.94,0,0,0,11-3.55c1.36-.59,2.45-1.09,3.21-1.44A6.71,6.71,0,0,1,245.85,228.5Z" style="fill:#263238"></path><path d="M386.93,165.16a4.93,4.93,0,0,1-.64-.17l-1.8-.58-1.3-.43-1.57-.42c-1.12-.31-2.39-.68-3.83-1l-2.25-.49-2.45-.42c-1.7-.32-3.53-.47-5.45-.72a106.21,106.21,0,0,0-12.59-.37,112.71,112.71,0,0,0-12.54,1.2c-1.91.34-3.73.61-5.41,1l-2.44.52-2.23.57c-1.43.33-2.69.72-3.81,1.05l-1.56.46-1.3.43-1.8.58a2.67,2.67,0,0,1-.64.17,3.4,3.4,0,0,1,.61-.27l1.77-.67,1.28-.48,1.55-.5c1.11-.35,2.38-.77,3.81-1.13l2.23-.6,2.44-.55c1.68-.41,3.51-.7,5.42-1.06a108.78,108.78,0,0,1,12.6-1.25,102.6,102.6,0,0,1,12.65.42c1.93.26,3.78.43,5.48.78l2.46.44,2.25.53c1.44.31,2.72.7,3.84,1l1.56.47,1.28.47,1.77.67A3,3,0,0,1,386.93,165.16Z" style="fill:#263238"></path><path d="M321.6,184.3a6.63,6.63,0,0,1-.19,1.31c-.07.42-.17.93-.32,1.52s-.3,1.26-.54,2a40.54,40.54,0,0,1-1.88,5,41.38,41.38,0,0,1-7.23,10.94,41.54,41.54,0,0,1-3.88,3.71c-.57.5-1.14.9-1.62,1.27s-.91.67-1.27.9a6,6,0,0,1-1.14.68c0-.08,1.52-1.13,3.79-3.13a47.14,47.14,0,0,0,3.76-3.75,44.7,44.7,0,0,0,7.15-10.82,45.37,45.37,0,0,0,2-4.93C321.15,186.13,321.5,184.28,321.6,184.3Z" style="fill:#263238"></path><path d="M291.38,143.12c1.16.54,71,80.95,86.43,98.6a4.26,4.26,0,0,0,6.21.22h0a4.27,4.27,0,0,0,.22-5.83l-87.34-99Z" style="fill:#ebebeb"></path><path d="M291.38,143.12l.32-.37,1-1.13,4.14-4.6.06-.07.06.07,33.56,37.86L356.24,204l14.42,16.33,7.5,8.51,3.82,4.33,1.93,2.18a9.3,9.3,0,0,1,.94,1.16,4.49,4.49,0,0,1-.22,5.12,4.5,4.5,0,0,1-6.79.49c-.84-.91-1.6-1.81-2.4-2.71l-9.29-10.66-17.54-20.16-29.72-34.14-20.07-23-5.49-6.22-1.44-1.6c-.32-.36-.53-.52-.51-.53l.15.12.39.37c.35.35.84.88,1.49,1.57,1.29,1.39,3.16,3.47,5.56,6.15,4.8,5.37,11.7,13.19,20.2,22.87L349,208.26l17.57,20.14,9.29,10.65c.79.9,1.58,1.83,2.37,2.69a4,4,0,0,0,6.73-3.69,4.15,4.15,0,0,0-.52-1.27,8.76,8.76,0,0,0-.89-1.1l-1.93-2.18-3.82-4.33-7.5-8.51-14.4-16.34-25.66-29.16-33.37-38H297l-4.17,4.5-1.05,1.12Z" style="fill:#263238"></path><rect x="356.57" y="214.98" width="14.11" height="8.29" rx="2.4" transform="translate(-51.76 306.84) rotate(-43)" style="fill:#e0e0e0"></rect><path d="M369.85,219a3,3,0,0,0,.63-1.4,2.31,2.31,0,0,0-.45-1.67c-.45-.53-1.07-1.13-1.69-1.79l-1-1a2.2,2.2,0,0,0-1.28-.58,2.13,2.13,0,0,0-1.44.37c-.41.3-.85.78-1.29,1.17l-5.77,5.41a2.18,2.18,0,0,0-.68,1.67,2.31,2.31,0,0,0,.79,1.6l1.33,1.43a8.35,8.35,0,0,0,1.27,1.26,2.18,2.18,0,0,0,1.55.28,2.44,2.44,0,0,0,1.32-.76l2.22-2,3.24-2.91a9.46,9.46,0,0,1,1.24-1,9.93,9.93,0,0,1-1.1,1.17l-3.13,3-2.18,2.07a2.88,2.88,0,0,1-1.53.9,2.59,2.59,0,0,1-1.87-.32,3.13,3.13,0,0,1-.75-.64l-.65-.69c-.43-.47-.88-.94-1.33-1.42a2.85,2.85,0,0,1-.94-1.93,2.67,2.67,0,0,1,.84-2.07c2.06-1.9,4-3.72,5.8-5.38.47-.41.84-.82,1.36-1.2a2.62,2.62,0,0,1,1.74-.42,2.53,2.53,0,0,1,1.51.72c.37.37.67.73,1,1.07.62.69,1.18,1.27,1.66,1.87a2.47,2.47,0,0,1,.41,1.87,2.34,2.34,0,0,1-.52,1.1A.89.89,0,0,1,369.85,219Z" style="fill:#263238"></path><rect x="322.45" y="175.09" width="14.11" height="8.29" rx="2.4" transform="translate(-33.72 272.87) rotate(-43)" style="fill:#e0e0e0"></rect><path d="M335.74,179.09a3.17,3.17,0,0,0,.63-1.41,2.31,2.31,0,0,0-.45-1.67c-.45-.52-1.07-1.12-1.69-1.79l-1-1a2.18,2.18,0,0,0-2.72-.21c-.41.3-.85.78-1.29,1.17l-5.77,5.42a2.14,2.14,0,0,0-.68,1.66,2.29,2.29,0,0,0,.79,1.6c.45.49.89,1,1.33,1.43a9,9,0,0,0,1.27,1.27,2.21,2.21,0,0,0,1.54.28A2.45,2.45,0,0,0,329,185l2.23-2,3.24-2.91a7.92,7.92,0,0,1,1.24-1,10.49,10.49,0,0,1-1.1,1.16l-3.13,3-2.18,2.08a3,3,0,0,1-1.53.9,2.69,2.69,0,0,1-1.87-.32,3.41,3.41,0,0,1-.75-.65l-.65-.69-1.33-1.42a2.83,2.83,0,0,1-.94-1.93,2.69,2.69,0,0,1,.84-2.07c2.06-1.9,4-3.72,5.8-5.38.47-.41.84-.81,1.36-1.2a2.62,2.62,0,0,1,1.74-.42,2.59,2.59,0,0,1,1.51.72c.37.38.67.73,1,1.07.62.69,1.18,1.27,1.66,1.87a2.49,2.49,0,0,1,.41,1.88,2.3,2.3,0,0,1-.52,1.09A1.26,1.26,0,0,1,335.74,179.09Z" style="fill:#263238"></path><path d="M255.55,208.55,242,269.39a4.64,4.64,0,0,0,3.84,5.59h0a4.62,4.62,0,0,0,5.2-3.61c3.09-14.51,13.07-61.22,13.49-61.24S255.55,208.55,255.55,208.55Z" style="fill:#FF725E"></path><path d="M249.72,269.71s-.08-.29-.28-.75a3.22,3.22,0,0,0-1.37-1.55,3.12,3.12,0,0,0-2.94-.09,3.06,3.06,0,1,0,3.45,5,3.31,3.31,0,0,0,1-1.8c.09-.5.07-.79.11-.79s.12.28.09.82a3.29,3.29,0,0,1-1,2,3.48,3.48,0,0,1-3.23.9,3.51,3.51,0,0,1-.69-6.58,3.47,3.47,0,0,1,3.34.2,3.25,3.25,0,0,1,1.37,1.8A1.45,1.45,0,0,1,249.72,269.71Z" style="fill:#263238"></path><path d="M260.76,226a6.83,6.83,0,0,1,.12-.75c.11-.53.25-1.24.43-2.12.4-1.89,1-4.54,1.66-7.78a24,24,0,0,0,.83-5.36,3.82,3.82,0,0,0-1-2.65,5.82,5.82,0,0,0-2.78-1.32,2.55,2.55,0,0,0-1.52,0,3.4,3.4,0,0,0-1.26,1,10.07,10.07,0,0,0-1.67,3,18.09,18.09,0,0,0-1,3.5c-.25,1.22-.5,2.46-.76,3.72-2.14,10-4.39,19.05-5.88,25.59-.73,3.24-1.33,5.87-1.76,7.76l-.48,2.11a3.67,3.67,0,0,1-.2.73,5.91,5.91,0,0,1,.1-.75c.1-.53.22-1.24.38-2.13.35-1.85.89-4.51,1.6-7.8,1.4-6.57,3.59-15.59,5.73-25.62.26-1.25.51-2.49.77-3.71a18.7,18.7,0,0,1,1-3.59,11,11,0,0,1,1.77-3.16,3.94,3.94,0,0,1,1.48-1.09,3,3,0,0,1,1.79,0,6.22,6.22,0,0,1,3,1.46,4.29,4.29,0,0,1,1.08,2.95,23.67,23.67,0,0,1-.9,5.46c-.76,3.23-1.38,5.86-1.83,7.75-.21.87-.39,1.57-.52,2.1A3.25,3.25,0,0,1,260.76,226Z" style="fill:#263238"></path><path d="M249.46,278l-.2.19-.61.51-2.42,2L237,288.24l-6.55,5.41-1.8,1.54a5.33,5.33,0,0,0-.42.4.54.54,0,0,0-.12.44,1.87,1.87,0,0,0,.62.92,8.31,8.31,0,0,0,2.07,1.38,8.22,8.22,0,0,0,1.19.48c.41.11.84.26,1.14,0a50.76,50.76,0,0,0,4.4-3.32q2.21-1.8,4.52-3.74,4.62-3.88,9.63-8.23l.06-.05h.08c4.77-.16,9.79-.5,15-1a145.29,145.29,0,0,0,16-2.46c1.35-.31,2.72-.63,4.08-1l2-.6,2-.74A24.49,24.49,0,0,0,298.2,273a22.37,22.37,0,0,0,6.69-11.29,10.26,10.26,0,0,0,.2-4.44c-.7-4.62-1.09-9.17-1.55-13.65s-.83-8.87-1.23-13.15l.09.17-6-4.87.41-.23c.89,6.5,1.69,12.79,2.37,18.82.34,3,.65,6,.87,8.85.1,1.45.21,2.87.19,4.3a9.24,9.24,0,0,1-1,4.09,21.93,21.93,0,0,1-5,6.26,21.07,21.07,0,0,1-6.3,4.06,59.64,59.64,0,0,1-6.77,1.53q-3.27.58-6.26,1c-7.95,1.26-14.31,2.1-18.67,2.68l-5,.63-1.29.15c-.29,0-.44,0-.44,0l.44-.08,1.28-.19,5-.71c4.36-.63,10.71-1.52,18.65-2.82q3-.48,6.24-1.09a57.51,57.51,0,0,0,6.71-1.53,20.78,20.78,0,0,0,6.16-4,21.41,21.41,0,0,0,4.88-6.15c1.36-2.41,1-5.3.78-8.16s-.55-5.83-.89-8.84c-.68-6-1.5-12.31-2.4-18.8l-.08-.63.49.4,6,4.87.08.06v.11q.62,6.42,1.24,13.15c.47,4.46.86,9.05,1.55,13.61a10.67,10.67,0,0,1-.2,4.64,22.91,22.91,0,0,1-6.85,11.56,25.07,25.07,0,0,1-7.42,4.68l-2,.76-2.06.6c-1.37.39-2.75.71-4.12,1a146.78,146.78,0,0,1-16.07,2.45c-5.2.52-10.22.85-15,1l.14-.05q-5,4.33-9.66,8.21-2.32,1.94-4.54,3.73a50.74,50.74,0,0,1-4.47,3.33,1.27,1.27,0,0,1-.35.16,1.7,1.7,0,0,1-.39,0,3.93,3.93,0,0,1-.68-.15,8.37,8.37,0,0,1-1.23-.51,8.61,8.61,0,0,1-2.16-1.45,2.17,2.17,0,0,1-.71-1.12.94.94,0,0,1,0-.37,1.26,1.26,0,0,1,.18-.32c.15-.16.31-.29.46-.44l1.81-1.53,6.59-5.37,9.29-7.43,2.46-1.94.64-.49Z" style="fill:#263238"></path><path d="M191.14,98.29a23.82,23.82,0,0,0-13.69-2.71c-7.95.8-46.23,16.54-46.23,16.54L115.67,95.79,98.05,106.7s18.41,26.51,21.34,28.65,74.34-5.18,74.34-5.18Z" style="fill:#263238"></path><path d="M94.13,68.4c-4.28-4.9-9.83-9.93-10.71-11.23l-30,25.48a.55.55,0,0,0,.27,1c4.76.59,22.86-5.06,22.86-5.06s1.14.31,4.55,5.57C84.26,89,95.29,110,95.29,110l23.08-14.91C117,89.56,99.31,74.31,94.13,68.4Z" style="fill:#FF725E"></path><path d="M131.61,112,129.22,110c-4.45,5.07-7.55,11.81-12,16.87a34.58,34.58,0,0,1-2.74,2.72s-.33,4.7,1.1,6.13a12.63,12.63,0,0,0,9.49,3.74c3.64-.07,7.15-1,8.94-4.22A51.39,51.39,0,0,1,131.61,112Z" style="fill:#455a64"></path><path d="M132.2,136.06c-.08.05-.65-.89-1.89-2.11a13.65,13.65,0,0,0-12.41-3.73c-1.71.34-2.7.81-2.74.72a2.32,2.32,0,0,1,.67-.39,11.33,11.33,0,0,1,2-.69,13,13,0,0,1,12.76,3.84,10.68,10.68,0,0,1,1.28,1.67A2.38,2.38,0,0,1,132.2,136.06Z" style="fill:#263238"></path><path d="M125.3,137.27a7,7,0,0,1-3.47,0,7.1,7.1,0,0,1-3.25-1.23,32.59,32.59,0,0,1,3.35.71A34.06,34.06,0,0,1,125.3,137.27Z" style="fill:#263238"></path><path d="M125,134.77a8.82,8.82,0,0,1-3,0,8.79,8.79,0,0,1-2.92-.56,8.87,8.87,0,0,1,3,0A8.76,8.76,0,0,1,125,134.77Z" style="fill:#263238"></path><path d="M155.08,104.79s-18.6,11.1-18.82,10.81S126.74,90,126.74,90l16.83-5.37Z" style="fill:#263238"></path><path d="M176.11,96.21a2.43,2.43,0,0,1-.47.18l-1.35.42-5,1.49c-4.2,1.28-10,3.12-16.28,5.39s-11.93,4.52-16,6.21l-4.79,2-1.31.54a2.15,2.15,0,0,1-.47.16s.14-.11.43-.25l1.27-.63c1.1-.54,2.72-1.28,4.73-2.17,4-1.78,9.63-4.09,16-6.36S165,99.14,169.21,98c2.12-.59,3.83-1,5-1.34l1.38-.32A1.59,1.59,0,0,1,176.11,96.21Z" style="fill:#455a64"></path><path d="M192.16,109.86a2.73,2.73,0,0,1-.61.15l-1.78.33-6.54,1.16c-5.52,1-13.14,2.32-21.55,3.9s-16,3.08-21.51,4.18l-6.51,1.29-1.77.33a2.71,2.71,0,0,1-.63.08,2.62,2.62,0,0,1,.6-.18l1.76-.43c1.52-.36,3.74-.86,6.48-1.45,5.48-1.2,13.07-2.75,21.48-4.33s16-2.88,21.59-3.75c2.77-.44,5-.78,6.57-1l1.79-.23A2.71,2.71,0,0,1,192.16,109.86Z" style="fill:#455a64"></path><path d="M125.43,115.41a19,19,0,0,1-2.16-2.27c-1.28-1.44-3-3.45-5-5.61s-3.88-4-5.3-5.32a31,31,0,0,1-2.31-2.11,2.82,2.82,0,0,1,.73.43c.45.31,1.08.78,1.82,1.4a57.36,57.36,0,0,1,5.44,5.25c2,2.17,3.71,4.22,4.92,5.72A19.43,19.43,0,0,1,125.43,115.41Z" style="fill:#455a64"></path><path d="M80.16,59.78s.43.57,1.22,1.58a45.93,45.93,0,0,0,3.54,4.1C86.49,67.11,88.49,69,90.73,71s4.73,4.29,7.15,6.82a99.07,99.07,0,0,1,11.21,14c1.26,1.92,2.21,3.52,2.85,4.64l.71,1.3a1.84,1.84,0,0,1,.21.47,2.83,2.83,0,0,1-.3-.42l-.79-1.25c-.69-1.08-1.69-2.65-3-4.53A109.51,109.51,0,0,0,97.51,78.19c-2.41-2.53-4.87-4.77-7.1-6.83s-4.21-4-5.76-5.65a39.47,39.47,0,0,1-3.44-4.23c-.37-.52-.63-.95-.81-1.24A2.31,2.31,0,0,1,80.16,59.78Z" style="fill:#263238"></path><path d="M134.28,57.73c-2.29-5.19-5.61-10.83-6-12.14L96.64,59a.48.48,0,0,0,0,.87c3.82,1.74,20.37,1.73,20.37,1.73s.88.56,2.35,5.83c1.36,4.89,5.08,25.29,5.08,25.29l23.12-6.42C147.84,81.33,137.06,64,134.28,57.73Z" style="fill:#FF725E"></path><path d="M124.88,46.92a14.82,14.82,0,0,1,.62,1.62,39.57,39.57,0,0,0,1.89,4.33c.88,1.79,2.06,3.86,3.41,6.14s2.82,4.79,4.18,7.54a86.18,86.18,0,0,1,5.69,14.6c.55,1.93.92,3.52,1.16,4.61a9.19,9.19,0,0,1,.29,1.72,13.52,13.52,0,0,1-.49-1.67c-.3-1.08-.72-2.64-1.31-4.55a97,97,0,0,0-5.8-14.48c-1.35-2.73-2.82-5.24-4.14-7.53s-2.48-4.39-3.32-6.22a34.45,34.45,0,0,1-1.76-4.42c-.17-.53-.27-1-.34-1.25A1.36,1.36,0,0,1,124.88,46.92Z" style="fill:#263238"></path><g style="opacity:0.30000000000000004"><path d="M134.28,57.73c-2.29-5.19-5.61-10.83-6-12.14L96.64,59a.48.48,0,0,0,0,.87c3.82,1.74,20.37,1.73,20.37,1.73s.88.56,2.35,5.83c1.36,4.89,5.08,25.29,5.08,25.29l23.12-6.42C147.84,81.33,137.06,64,134.28,57.73Z"></path></g><path d="M260.36,90l4.26-5.14a11.13,11.13,0,0,0,5.56,1c3-.33,21.2-20.15,21.2-20.15l-30-17.43L251.65,70Z" style="fill:#ffbe9d"></path><path d="M245.14,69.19c-6.65.61-26.53,17-33.77,22.24-6.44,4.63-20.31,5.86-20.31,5.86l2.67,32.88a90.07,90.07,0,0,0,35.4-8.91,75.83,75.83,0,0,0,28.81-24.8s4-6.84,3.82-8.11c-.51-3.41-2.08-7.45-2.67-9.7C258.28,75.56,251.13,68.64,245.14,69.19Z" style="fill:#455a64"></path><path d="M249.84,76.1c-.06.06-.74-.53-2-1.16a10.41,10.41,0,0,0-10.55.74c-1.19.8-1.78,1.49-1.85,1.43A5.41,5.41,0,0,1,237,75.38a10.12,10.12,0,0,1,5.36-2A10,10,0,0,1,248,74.62,5.09,5.09,0,0,1,249.84,76.1Z" style="fill:#263238"></path><path d="M249.92,76.23a9.82,9.82,0,0,0-14,1.11,16,16,0,0,0-2.12,3.43c-3.24,7,1.87,18.16,2.8,21,.72,2.21,6.11,17.94,8.46,24.76a6.5,6.5,0,0,0,4.26,4.11l28.35,8.59,5.58-11.29-24.3-12.35c-.35-1.35-3-27.81-5-33.8A13,13,0,0,0,249.92,76.23Z" style="fill:#263238"></path><path d="M258.8,115.48a57.7,57.7,0,0,0-10.05,3.06c-3.54,1.46-5.52,2.82-5.57,3.76-.15,2.83,1.06,8.08,3.69,9.13,1.13.45,4.75.92,5.73.21l8.64-14.87Z" style="fill:#455a64"></path><path d="M253.93,127.78c-.08,0-.18-.72-.66-1.78a7.52,7.52,0,0,0-7.19-4.5c-1.16,0-1.87.26-1.89.17a3.72,3.72,0,0,1,1.87-.54,7.27,7.27,0,0,1,7.55,4.73A3.68,3.68,0,0,1,253.93,127.78Z" style="fill:#263238"></path><path d="M250,129a3.9,3.9,0,0,1-2.3-1.47,3.85,3.85,0,0,1-1.23-2.44c.14,0,.64,1,1.61,2.09S250.09,128.84,250,129Z" style="fill:#263238"></path><path d="M248.79,131a4.44,4.44,0,0,1-3.65-4,25.35,25.35,0,0,0,1.54,2.24C247.68,130.38,248.85,130.85,248.79,131Z" style="fill:#263238"></path><path d="M280.57,126.59a40.93,40.93,0,0,1-2.63,6,41.11,41.11,0,0,1-3.1,5.77,41.36,41.36,0,0,1,2.63-6A41.61,41.61,0,0,1,280.57,126.59Z" style="fill:#263238"></path><path d="M233,91.43a72.39,72.39,0,0,1,2.86,8,70,70,0,0,1,2.36,8.2,67.84,67.84,0,0,1-2.86-8A70,70,0,0,1,233,91.43Z" style="fill:#263238"></path><path d="M246.11,114.89a4.64,4.64,0,0,1,1.69-1,11.29,11.29,0,0,1,4.63-.73,11.1,11.1,0,0,1,4.52,1.21,4.55,4.55,0,0,1,1.58,1.12,16.43,16.43,0,0,1-1.73-.79,13.33,13.33,0,0,0-4.4-1,13.07,13.07,0,0,0-4.48.56A15.59,15.59,0,0,1,246.11,114.89Z" style="fill:#263238"></path><path d="M231.21,76.32a2.76,2.76,0,0,1-.25.51l-.79,1.4c-.7,1.21-1.71,3-2.9,5.14a67.15,67.15,0,0,0-3.69,7.91,35,35,0,0,0-2.32,10.37c-.21,3.77.09,7.42-.28,10.74a19.9,19.9,0,0,1-1,4.62,19,19,0,0,1-1.81,3.7,33.18,33.18,0,0,1-3.65,4.67c-.47.52-.85.91-1.11,1.17a2.12,2.12,0,0,1-.42.38,2.39,2.39,0,0,1,.34-.45l1-1.23a38.65,38.65,0,0,0,3.48-4.74,18.63,18.63,0,0,0,1.72-3.64,19,19,0,0,0,.92-4.53c.34-3.26,0-6.89.24-10.73a34.92,34.92,0,0,1,2.39-10.5A62.13,62.13,0,0,1,227,83.19c1.23-2.17,2.3-3.89,3.05-5.07l.87-1.35A2.32,2.32,0,0,1,231.21,76.32Z" style="fill:#fff"></path><path d="M226.41,79.72s-8.37,14.62-9.15,21.9a69.33,69.33,0,0,1-4.26,17.9c-1.3,3.43-5.31,9-5.31,9l-5.31.62a48.45,48.45,0,0,0,4.66-9.44c2.33-6.08,3.62-8.67,5.43-17s4.25-15.07,7.17-17.33Z" style="fill:#fff"></path><path d="M240.66,114a2.17,2.17,0,0,1-.4.33l-1.19.86c-1,.74-2.56,1.82-4.47,3.09a53.66,53.66,0,0,1-7,4,83.33,83.33,0,0,1-9.18,3.61,97.35,97.35,0,0,1-17.51,3.75c-2.27.27-4.12.41-5.4.48-.64,0-1.14,0-1.48.05a2,2,0,0,1-.51,0,1.74,1.74,0,0,1,.51-.09l1.46-.14c1.28-.13,3.11-.33,5.38-.65a108.07,108.07,0,0,0,17.39-3.88,88.68,88.68,0,0,0,9.14-3.55,57.06,57.06,0,0,0,7-3.85l4.55-2.94,1.25-.79A1.77,1.77,0,0,1,240.66,114Z" style="fill:#263238"></path><path d="M221.3,98.22s-.17.27-.56.69-1,1-1.71,1.71a60.58,60.58,0,0,1-6.14,5.09,61.73,61.73,0,0,1-6.76,4.24c-.9.49-1.64.86-2.16,1.09a3.29,3.29,0,0,1-.83.32,26.73,26.73,0,0,1,2.81-1.73c1.75-1,4.12-2.53,6.63-4.35s4.67-3.6,6.21-4.93A30.12,30.12,0,0,1,221.3,98.22Z" style="fill:#263238"></path><path d="M247.71,69.37a5.8,5.8,0,0,0-2.47,0,23.77,23.77,0,0,0-6.31,2.52,113.22,113.22,0,0,0-18.38,13.06,66.53,66.53,0,0,1-10.12,7.32A36,36,0,0,1,201,96.08a35.14,35.14,0,0,1-6.82.92c-.81,0-1.44,0-1.87,0a3,3,0,0,1-.65,0,3,3,0,0,1,.65-.07c.42,0,1.05,0,1.86-.12a38.51,38.51,0,0,0,6.74-1.07,36.46,36.46,0,0,0,9.31-3.88,70,70,0,0,0,10-7.3,105,105,0,0,1,18.55-13,22,22,0,0,1,6.45-2.4,5.22,5.22,0,0,1,1.88,0A2,2,0,0,1,247.71,69.37Z" style="fill:#263238"></path><path d="M282.45,129.44c.45,0,3.07,1.59,4.44,1.45s6.95-1.89,8.52-.09a39.82,39.82,0,0,1,3,4.26,4.22,4.22,0,0,1,.27,3.95c-.76,1.71-1.87,4-2.71,4.53-1.39,1-6.37.78-6.48-.24s.66-1.45,2.37-1.63,3.29-.47,3.44-1.29.73-5-2.46-4.7-3,6.43-4.83,6.62-5.9-3.41-7.62-3.35a4,4,0,0,1-2.39-.43Z" style="fill:#455a64"></path><path d="M296.8,138a4.1,4.1,0,1,1-4.5-3.65A4.1,4.1,0,0,1,296.8,138Z" style="fill:#FF725E"></path><path d="M290.92,69.76a3.55,3.55,0,0,0,.83-2.19l6.16-.65s.48-3.37-.56-5.34-14.56-14.67-18.21-16.5c-3.18-1.59-15.66-6.66-21.84-2.27s-11.8,15.5-11.8,15.5l-1.89,8.37s10.24,6.54,13.18,9.42,10.78,11.74,11.53,14.84a8.18,8.18,0,0,0,3.12,4.66s11.1-1,13.32-8.88l-.48-3.27s-4,.42-4.85,0-11.14-8.52-12.44-13c-.21-.71-.36-1.34-.48-1.92a4.78,4.78,0,0,1,6.66-5.31l.13.06c3.39,1.64,11.09,4.43,13.93,6.84A2.59,2.59,0,0,0,290.92,69.76Z" style="fill:#FF725E"></path><path d="M297.7,66.82c-.07.06-1.05-1-2.84-2.58a34,34,0,0,0-16.52-7.74c-2.33-.4-3.81-.44-3.8-.54a4.24,4.24,0,0,1,1,0,21.63,21.63,0,0,1,2.82.21A30.88,30.88,0,0,1,295.1,64a20.43,20.43,0,0,1,2,2A3.56,3.56,0,0,1,297.7,66.82Z" style="fill:#263238"></path><path d="M291.5,61.24a9,9,0,0,1,.93,4.53,6.73,6.73,0,0,1-.69,3.25c-.45.77-1,1-1,1s.36-.38.68-1.12a7.92,7.92,0,0,0,.5-3.08C291.92,63.27,291.35,61.28,291.5,61.24Z" style="fill:#263238"></path><path d="M254.19,45.6a19.69,19.69,0,0,0,7.55,2c4.8.46,9.65.24,14.44.72a25.85,25.85,0,0,1,13.43,5.34l3.89,3.72s-9.67-5-15.68-5.17c-4.95-.14-16.17,3.91-26.13-3.66h0Z" style="fill:#fff"></path><path d="M264.31,84.6a44.39,44.39,0,0,0,10.11,0,31.44,31.44,0,0,0,4.31,2.17s-8.16,2.61-11.64,1.66Z" style="fill:#fff"></path><g style="opacity:0.2"><path d="M288.43,67.18a12.25,12.25,0,0,0-3-1.58l-7.52-3.06A21.19,21.19,0,0,0,271,60.59a7.2,7.2,0,0,0-6.34,2.75,7.07,7.07,0,0,0-.76,5.5,19.44,19.44,0,0,0,2.29,5.2c2.06,3.66,4.3,7.32,7.53,10s7,3.87,11,2.71l0-.13-.47-3.17s-4,.42-4.85,0-11.14-8.52-12.44-13c-.21-.71-.36-1.34-.48-1.92a4.78,4.78,0,0,1,6.66-5.31l.13.06c3.39,1.64,11.09,4.43,13.93,6.84a2.62,2.62,0,0,0,2.74.37l.15-.46A4.17,4.17,0,0,0,288.43,67.18Z"></path></g><path d="M295.57,59.46a7.76,7.76,0,0,1-1.36-.52l-3.6-1.62a38.36,38.36,0,0,0-5.45-2,25.88,25.88,0,0,0-7.05-.7c-2.54,0-4.95.22-7.16.33a47.83,47.83,0,0,1-5.89,0,22.53,22.53,0,0,1-3.92-.63,7.84,7.84,0,0,1-1.37-.47,37.4,37.4,0,0,0,5.32.73,53.6,53.6,0,0,0,5.83-.1c2.2-.13,4.62-.35,7.18-.37a25.34,25.34,0,0,1,7.18.76A34.16,34.16,0,0,1,290.76,57c1.51.73,2.7,1.35,3.54,1.77A7.84,7.84,0,0,1,295.57,59.46Z" style="fill:#fff"></path><path d="M273.09,83.57a17.82,17.82,0,0,1-11.24-2c.06-.14,2.44.88,5.55,1.44S273.08,83.41,273.09,83.57Z" style="fill:#fff"></path><path d="M284.71,86.75a7.89,7.89,0,0,1-2.52.53,11.42,11.42,0,0,1-6.74-1.75A23.54,23.54,0,0,1,268.27,78c-1.07-1.64-2.09-3.41-3.12-5.29a12,12,0,0,1-1.75-6.39,6.36,6.36,0,0,1,1.08-3.25A6.16,6.16,0,0,1,267.1,61a9.64,9.64,0,0,1,6.16-.35,35.61,35.61,0,0,1,5.24,1.87L283,64.4c1.36.58,2.59,1.07,3.67,1.56a7.52,7.52,0,0,1,2.5,1.73,3.94,3.94,0,0,1,.92,1.68,2.26,2.26,0,0,1,.07.49.74.74,0,0,1,0,.17A4.3,4.3,0,0,0,289,67.82a7.37,7.37,0,0,0-2.47-1.59c-1.07-.46-2.32-.93-3.69-1.48L278.34,63a35.5,35.5,0,0,0-5.19-1.8,9.14,9.14,0,0,0-5.85.35,5.62,5.62,0,0,0-2.39,1.9,5.83,5.83,0,0,0-1,3,11.63,11.63,0,0,0,1.68,6.11c1,1.86,2,3.64,3.08,5.27a23.52,23.52,0,0,0,7,7.44,11.41,11.41,0,0,0,6.54,1.85A19.9,19.9,0,0,0,284.71,86.75Z" style="fill:#263238"></path><path d="M278.68,80.5l8.88-8.92a41.6,41.6,0,0,0-8.11-4.76A44.51,44.51,0,0,0,273.26,65l-4.38,4.26s1.91,6,4.44,8.65a4.58,4.58,0,0,0,3.85,1.34h.41a1.07,1.07,0,0,1,1.1,1.22Z" style="fill:#455a64"></path><path d="M252.33,47.33l-3.27,4.91c1,1,21.46,19,21.46,19l4.61-4.77S254.71,49.59,252.33,47.33Z" style="fill:#455a64"></path><path d="M279.67,79.51s.13-.18.15-.51a.64.64,0,0,0-.82-.7,6.2,6.2,0,0,1-2.32.08,5.7,5.7,0,0,1-2.58-1.3,9.78,9.78,0,0,1-1.81-2.21,20.34,20.34,0,0,1-1.1-2,5.62,5.62,0,0,1-.68-2,17.24,17.24,0,0,1,1,1.84c.31.56.7,1.22,1.18,1.92a9.87,9.87,0,0,0,1.74,2.08,5.56,5.56,0,0,0,2.33,1.23,6.86,6.86,0,0,0,2.21,0,1.24,1.24,0,0,1,.53,0,.76.76,0,0,1,.38.32A1,1,0,0,1,280,79C279.91,79.44,279.67,79.53,279.67,79.51Z" style="fill:#263238"></path><path d="M286.25,72.77a48.9,48.9,0,0,0-5.31-4A21.72,21.72,0,0,0,277,67.07a3.77,3.77,0,0,0-2.95-.25,4.47,4.47,0,0,0-1.87,1.72,4,4,0,0,0-1,2.09,4.78,4.78,0,0,0,.46,2.77,15.47,15.47,0,0,0,2.75,3.44,4.63,4.63,0,0,0,3.75,1.41,3.36,3.36,0,0,1,1.22-.11c.4.08.76.52.58.89Z" style="fill:#e0e0e0"></path><path d="M286.25,72.77c-.12.14-2.25-1.93-5.33-3.75a27.86,27.86,0,0,0-6-2.4,5.31,5.31,0,0,1,1.93.2,15.69,15.69,0,0,1,4.35,1.75,22.49,22.49,0,0,1,3.75,2.78A6.38,6.38,0,0,1,286.25,72.77Z" style="fill:#263238"></path><path d="M278.06,75.35s0,.09,0,.2l-.06.15-.1-.18a12.68,12.68,0,0,1-.79-2.41,7.33,7.33,0,0,1-.42-2.7,7.44,7.44,0,0,1,.92,2.57,13.66,13.66,0,0,1,.47,2.5l-.17,0C278,75.37,278,75.33,278.06,75.35Z" style="fill:#263238"></path><path d="M279.18,76.59a14.49,14.49,0,0,1-1.05-3.69,14.34,14.34,0,0,1-.54-3.81,14.48,14.48,0,0,1,1.05,3.7A14.29,14.29,0,0,1,279.18,76.59Z" style="fill:#263238"></path><polygon points="251.44 48.67 249.72 51.25 270.51 68.72 272.28 66.62 251.44 48.67" style="fill:#fff"></polygon><path d="M273.11,65.16a5.5,5.5,0,0,1-1.49,2.77,5.52,5.52,0,0,1-2.49,1.92c-.09-.12,1-1,2.09-2.26S273,65.09,273.11,65.16Z" style="fill:#263238"></path><path d="M140.32,386.28c.06.13-20.11,9.83-45,21.66S50.05,429.25,50,429.12,70.1,419.3,95,407.46,140.26,386.15,140.32,386.28Z" style="fill:#263238"></path><path d="M133.5,383.45c.06.13-8.89,4.18-20,9.05s-20.15,8.71-20.21,8.57,8.89-4.18,20-9.05S133.45,383.32,133.5,383.45Z" style="fill:#263238"></path></g><g id="freepik--Floor--inject-368"><path d="M462,475.46c0,.14-94.92.26-212,.26s-212-.12-212-.26,94.9-.26,212-.26S462,475.32,462,475.46Z" style="fill:#263238"></path></g></svg>