<svg xmlns="http://www.w3.org/2000/svg" viewBox="0 0 750 500"><g id="freepik--background-complete--inject-117"><path d="M294.64,109.86c.57-4.17-5.32-7.6-9.74-8-2.11-.16-4.3.16-6.3-.54-4.32-1.51-6.05-7.1-10.28-8.88-3.15-1.33-6.79-.15-9.85,1.39s-6.09,3.48-9.51,3.7c-3,.19-6.2-.91-8.81.54-1.94,1.08-3,3.32-4.74,4.64s-4,1.56-6.2,1.68-4.42.14-6.39,1-3.61,3-3.2,5.13Z" style="fill:#f5f5f5"></path><path d="M409.81,65.41c.46-3.36-4.28-6.13-7.85-6.42-1.7-.13-3.46.13-5.07-.44-3.49-1.21-4.89-5.72-8.29-7.16-2.55-1.07-5.48-.12-8,1.13s-4.91,2.8-7.67,3c-2.39.15-5-.74-7.1.43-1.56.88-2.38,2.68-3.82,3.74a9.17,9.17,0,0,1-5,1.36,14,14,0,0,0-5.16.84c-1.59.73-2.91,2.41-2.58,4.14Z" style="fill:#ebebeb"></path><path d="M674.28,59.66c.46-3.36-4.29-6.12-7.85-6.41-1.7-.14-3.47.12-5.08-.44-3.49-1.22-4.88-5.73-8.29-7.16-2.55-1.08-5.48-.12-7.95,1.12s-4.9,2.81-7.66,3c-2.4.16-5-.73-7.1.44-1.57.87-2.39,2.68-3.83,3.74a9.08,9.08,0,0,1-5,1.35,14.14,14.14,0,0,0-5.15.85c-1.6.73-2.91,2.41-2.58,4.13Z" style="fill:#ebebeb"></path><path d="M124.46,51.32c.46-3.36-4.28-6.12-7.85-6.41-1.7-.14-3.47.12-5.08-.44-3.49-1.22-4.88-5.73-8.29-7.16-2.54-1.08-5.48-.12-7.94,1.12s-4.91,2.81-7.67,3c-2.4.16-5-.73-7.1.44-1.57.87-2.39,2.68-3.83,3.74a9.08,9.08,0,0,1-5,1.35,14.14,14.14,0,0,0-5.15.85C65,48.52,63.64,50.2,64,51.92Z" style="fill:#ebebeb"></path><path d="M545,102.07c.66-4.79-6.11-8.74-11.19-9.15-2.43-.19-4.94.18-7.24-.62-5-1.74-7-8.17-11.82-10.21-3.63-1.53-7.81-.17-11.33,1.6s-7,4-10.93,4.25c-3.42.22-7.13-1-10.12.62-2.23,1.25-3.4,3.82-5.45,5.33s-4.64,1.8-7.13,1.93S464.67,96,462.4,97s-4.15,3.44-3.68,5.89Z" style="fill:#f5f5f5"></path><rect x="622.85" y="121.38" width="71.38" height="104.58" style="fill:#f5f5f5"></rect><rect x="628.43" y="124.44" width="59.68" height="13.94" style="fill:#ebebeb"></rect><polygon points="683.64 121.38 677.36 138.38 688.11 138.38 688.11 121.38 683.64 121.38" style="fill:#e0e0e0"></polygon><rect x="628.43" y="141.43" width="59.68" height="13.94" style="fill:#ebebeb"></rect><polygon points="683.64 138.38 677.36 155.37 688.11 155.37 688.11 138.38 683.64 138.38" style="fill:#e0e0e0"></polygon><rect x="628.43" y="158.76" width="59.68" height="13.94" style="fill:#ebebeb"></rect><polygon points="683.64 155.71 677.36 172.7 688.11 172.7 688.11 155.71 683.64 155.71" style="fill:#e0e0e0"></polygon><rect x="628.43" y="175.73" width="59.68" height="13.94" style="fill:#ebebeb"></rect><polygon points="683.64 172.68 677.36 189.67 688.11 189.67 688.11 172.68 683.64 172.68" style="fill:#e0e0e0"></polygon><rect x="628.43" y="192.7" width="59.68" height="13.94" style="fill:#ebebeb"></rect><polygon points="683.64 189.65 677.36 206.65 688.11 206.65 688.11 189.65 683.64 189.65" style="fill:#e0e0e0"></polygon><rect x="628.43" y="209.67" width="59.68" height="13.94" style="fill:#ebebeb"></rect><polygon points="683.64 206.62 677.36 223.62 688.11 223.62 688.11 206.62 683.64 206.62" style="fill:#e0e0e0"></polygon><rect x="337.73" y="166.82" width="285.13" height="3.4" style="fill:#ebebeb"></rect><rect x="337.73" y="170.32" width="285.13" height="24.08" style="fill:#f5f5f5"></rect><rect x="337.97" y="196.97" width="285.13" height="24.08" style="fill:#f5f5f5"></rect><rect x="337.73" y="133.97" width="285.13" height="32.72" style="fill:#f5f5f5"></rect><rect x="337.73" y="130.97" width="285.13" height="3.4" style="fill:#ebebeb"></rect><rect x="337.97" y="193.41" width="285.13" height="3.4" style="fill:#ebebeb"></rect><rect x="337.97" y="220.2" width="356.27" height="44.14" style="fill:#ebebeb"></rect><rect x="36.67" y="121.38" width="71.38" height="104.58" transform="translate(144.72 347.35) rotate(180)" style="fill:#f5f5f5"></rect><rect x="42.8" y="124.44" width="59.68" height="13.94" transform="translate(145.27 262.81) rotate(180)" style="fill:#ebebeb"></rect><polygon points="47.26 121.38 53.54 138.38 42.8 138.38 42.8 121.38 47.26 121.38" style="fill:#e0e0e0"></polygon><rect x="42.8" y="141.43" width="59.68" height="13.94" transform="translate(145.27 296.81) rotate(180)" style="fill:#ebebeb"></rect><polygon points="47.26 138.38 53.54 155.37 42.8 155.37 42.8 138.38 47.26 138.38" style="fill:#e0e0e0"></polygon><rect x="42.8" y="158.76" width="59.68" height="13.94" transform="translate(145.27 331.46) rotate(180)" style="fill:#ebebeb"></rect><polygon points="47.26 155.71 53.54 172.7 42.8 172.7 42.8 155.71 47.26 155.71" style="fill:#e0e0e0"></polygon><rect x="42.8" y="175.73" width="59.68" height="13.94" transform="translate(145.27 365.41) rotate(180)" style="fill:#ebebeb"></rect><polygon points="47.26 172.68 53.54 189.67 42.8 189.67 42.8 172.68 47.26 172.68" style="fill:#e0e0e0"></polygon><rect x="42.8" y="192.7" width="59.68" height="13.94" transform="translate(145.27 399.35) rotate(180)" style="fill:#ebebeb"></rect><polygon points="47.26 189.65 53.54 206.65 42.8 206.65 42.8 189.65 47.26 189.65" style="fill:#e0e0e0"></polygon><rect x="42.8" y="209.67" width="59.68" height="13.94" transform="translate(145.27 433.29) rotate(180)" style="fill:#ebebeb"></rect><polygon points="47.26 206.62 53.54 223.62 42.8 223.62 42.8 206.62 47.26 206.62" style="fill:#e0e0e0"></polygon><rect x="108.05" y="166.82" width="285.13" height="3.4" transform="translate(501.23 337.03) rotate(180)" style="fill:#ebebeb"></rect><rect x="108.05" y="170.32" width="285.13" height="24.08" transform="translate(501.23 364.73) rotate(180)" style="fill:#f5f5f5"></rect><rect x="107.81" y="196.97" width="285.13" height="24.08" transform="translate(500.74 418.03) rotate(180)" style="fill:#f5f5f5"></rect><rect x="108.05" y="133.97" width="285.13" height="32.72" transform="translate(501.23 300.66) rotate(180)" style="fill:#f5f5f5"></rect><rect x="108.05" y="130.97" width="285.13" height="3.4" transform="translate(501.23 265.33) rotate(180)" style="fill:#ebebeb"></rect><rect x="107.81" y="193.41" width="285.13" height="3.4" transform="translate(500.74 390.21) rotate(180)" style="fill:#ebebeb"></rect><rect x="36.67" y="220.2" width="356.27" height="44.14" transform="translate(429.6 484.53) rotate(180)" style="fill:#ebebeb"></rect></g><g id="freepik--Floor--inject-117"><path d="M700.72,261.79c0,.15-145.84.26-325.7.26s-325.74-.11-325.74-.26,145.81-.26,325.74-.26S700.72,261.65,700.72,261.79Z" style="fill:#263238"></path></g><g id="freepik--Grass--inject-117"><path d="M262.09,253.05a12.19,12.19,0,0,1,4.41,3.68,12,12,0,0,1,2.66,5.09,46.81,46.81,0,0,0-3.07-4.77A46.63,46.63,0,0,0,262.09,253.05Z" style="fill:#263238"></path><path d="M273.57,250.46c.15,0-.6,2.59-1,5.81s-.2,5.88-.35,5.89a21.54,21.54,0,0,1,1.31-11.7Z" style="fill:#263238"></path><path d="M282.13,253.92c.11.11-1.53,1.72-3.13,4s-2.56,4.4-2.71,4.34a13.06,13.06,0,0,1,2.28-4.64A12.81,12.81,0,0,1,282.13,253.92Z" style="fill:#263238"></path><path d="M66.52,253a12.19,12.19,0,0,1,4.41,3.68,12,12,0,0,1,2.65,5.09A44.94,44.94,0,0,0,70.52,257,49.55,49.55,0,0,0,66.52,253Z" style="fill:#263238"></path><path d="M78,250.13c.15,0-.61,2.59-1,5.82s-.2,5.87-.36,5.88a17,17,0,0,1-.16-5.94A16.62,16.62,0,0,1,78,250.13Z" style="fill:#263238"></path><path d="M86.56,253.59c.11.11-1.54,1.72-3.14,4S80.87,262,80.72,262A13.06,13.06,0,0,1,83,257.33,12.81,12.81,0,0,1,86.56,253.59Z" style="fill:#263238"></path><path d="M442.8,262c-.14.06-1-1.63-2.41-3.53s-2.67-3.31-2.57-3.42a10.76,10.76,0,0,1,3,3.11A10.51,10.51,0,0,1,442.8,262Z" style="fill:#263238"></path><path d="M445.59,252.34a43.82,43.82,0,0,1,.11,9.44,20.86,20.86,0,0,1-.32-4.71A21.14,21.14,0,0,1,445.59,252.34Z" style="fill:#263238"></path><path d="M453.32,255.18c.12.1-1,1.48-1.82,3.46s-1.05,3.73-1.2,3.71a7.08,7.08,0,0,1,.73-3.92A7.17,7.17,0,0,1,453.32,255.18Z" style="fill:#263238"></path><path d="M650.66,256.48s.08-.09.27-.1a1.18,1.18,0,0,1,.71.3A6.31,6.31,0,0,1,653,258.6a5.28,5.28,0,0,1,.78,3.2c-.15,0-.43-1.41-1.24-3a10.91,10.91,0,0,0-1.18-1.88C651,256.52,650.67,256.55,650.66,256.48Z" style="fill:#263238"></path><path d="M658.28,254.08a25.25,25.25,0,0,1-.93,3.91,25.63,25.63,0,0,1-1,3.89,11.17,11.17,0,0,1,.53-4A11.35,11.35,0,0,1,658.28,254.08Z" style="fill:#263238"></path><path d="M662.46,258.1c.09.12-.72.82-1.51,1.85s-1.27,2-1.41,1.92a3.68,3.68,0,0,1,1-2.24C661.38,258.53,662.38,258,662.46,258.1Z" style="fill:#263238"></path><path d="M255.6,319.3A12.19,12.19,0,0,1,260,323a12.06,12.06,0,0,1,2.66,5.09,47,47,0,0,0-3.06-4.76A46.91,46.91,0,0,0,255.6,319.3Z" style="fill:#263238"></path><path d="M267.08,316.71c.15,0-.6,2.59-.95,5.82s-.2,5.87-.36,5.89a21.56,21.56,0,0,1,1.31-11.71Z" style="fill:#263238"></path><path d="M275.64,320.17c.11.11-1.53,1.73-3.13,4s-2.56,4.41-2.7,4.35a16.92,16.92,0,0,1,5.83-8.39Z" style="fill:#263238"></path><path d="M690.6,307.7a14.68,14.68,0,0,1,7.07,8.77,26.51,26.51,0,0,0-7.07-8.77Z" style="fill:#263238"></path><path d="M702.08,305.11c.15,0-.6,2.59-1,5.82s-.2,5.87-.36,5.88a16.38,16.38,0,0,1-.16-5.94A16.58,16.58,0,0,1,702.08,305.11Z" style="fill:#263238"></path><path d="M710.64,308.57c.11.11-1.53,1.73-3.13,4S705,317,704.81,317a17,17,0,0,1,5.83-8.38Z" style="fill:#263238"></path><path d="M443.15,417.58a14.7,14.7,0,0,1,7.07,8.76,48.72,48.72,0,0,0-3.07-4.76A46.63,46.63,0,0,0,443.15,417.58Z" style="fill:#263238"></path><path d="M454.63,415c.15,0-.6,2.6-1,5.82s-.2,5.88-.35,5.89a16.41,16.41,0,0,1-.16-5.94A16.68,16.68,0,0,1,454.63,415Z" style="fill:#263238"></path><path d="M463.19,418.45c.11.11-1.53,1.72-3.13,4s-2.56,4.4-2.71,4.34a13.19,13.19,0,0,1,2.28-4.64A12.81,12.81,0,0,1,463.19,418.45Z" style="fill:#263238"></path><path d="M599.45,397.74a11.9,11.9,0,0,1,4.4,3.67,12.11,12.11,0,0,1,2.66,5.09,26.48,26.48,0,0,0-7.06-8.76Z" style="fill:#263238"></path><path d="M610.93,395.14c.15.05-.61,2.59-1,5.82s-.2,5.87-.36,5.89a16.48,16.48,0,0,1-.16-6A16.2,16.2,0,0,1,610.93,395.14Z" style="fill:#263238"></path><path d="M619.48,398.6c.11.11-1.53,1.73-3.13,4s-2.56,4.41-2.7,4.35a17,17,0,0,1,5.83-8.39Z" style="fill:#263238"></path><path d="M76.54,412.84A12.19,12.19,0,0,1,81,416.52a12,12,0,0,1,2.65,5.09,44.94,44.94,0,0,0-3.06-4.76A49.55,49.55,0,0,0,76.54,412.84Z" style="fill:#263238"></path><path d="M88,410.25c.15,0-.61,2.59-1,5.82s-.2,5.87-.36,5.89a16.75,16.75,0,0,1-.16-5.95A16.45,16.45,0,0,1,88,410.25Z" style="fill:#263238"></path><path d="M96.58,413.71c.1.11-1.54,1.73-3.14,4s-2.55,4.41-2.7,4.35A13.06,13.06,0,0,1,93,417.45,12.83,12.83,0,0,1,96.58,413.71Z" style="fill:#263238"></path><path d="M276.32,437.68a14.7,14.7,0,0,1,7.07,8.76,49.68,49.68,0,0,0-3.06-4.76A45.85,45.85,0,0,0,276.32,437.68Z" style="fill:#263238"></path><path d="M287.8,435.08c.15.05-.6,2.59-.95,5.82s-.2,5.88-.36,5.89a21.56,21.56,0,0,1,1.31-11.71Z" style="fill:#263238"></path><path d="M296.36,438.54c.11.12-1.53,1.73-3.13,4s-2.56,4.4-2.7,4.34a12.85,12.85,0,0,1,2.27-4.64A13.1,13.1,0,0,1,296.36,438.54Z" style="fill:#263238"></path><path d="M404,297.92a14.71,14.71,0,0,1,7.06,8.77,47,47,0,0,0-3.06-4.76A49.55,49.55,0,0,0,404,297.92Z" style="fill:#263238"></path><path d="M415.51,295.33c.15,0-.61,2.59-1,5.82s-.2,5.87-.36,5.88a21.42,21.42,0,0,1,1.32-11.7Z" style="fill:#263238"></path><path d="M424.06,298.79c.11.11-1.53,1.73-3.13,4s-2.56,4.41-2.7,4.35a16.92,16.92,0,0,1,5.83-8.39Z" style="fill:#263238"></path></g><g id="freepik--tennis-court--inject-117"><polygon points="371.42 461.91 337.58 280.04 343.71 278.64 377.54 460.52 371.42 461.91" style="fill:#e0e0e0"></polygon><path d="M733,464.67H17L67.05,273.15h574L642,275Zm-707.7-6.91h697.3l-85.28-177.7H71.75Z" style="fill:#e0e0e0"></path></g><g id="freepik--Net--inject-117"><path d="M379.56,232.51c-.14.06-10.09-24.82-22.22-55.57s-21.87-55.74-21.73-55.8S345.7,146,357.84,176.72,379.7,232.45,379.56,232.51Z" style="fill:#263238"></path><path d="M379.56,254c-.14.06-10.09-24.82-22.22-55.58s-21.87-55.74-21.73-55.8,10.09,24.83,22.23,55.59S379.7,253.89,379.56,254Z" style="fill:#263238"></path><path d="M379.56,275.39c-.14.06-10.09-24.83-22.22-55.58s-21.87-55.74-21.73-55.8,10.09,24.82,22.23,55.59S379.7,275.33,379.56,275.39Z" style="fill:#263238"></path><path d="M379.56,294.3c-.14.06-10.09-24.83-22.22-55.58s-21.87-55.74-21.73-55.8,10.09,24.82,22.23,55.58S379.7,294.24,379.56,294.3Z" style="fill:#263238"></path><path d="M348.2,216.49c-.15,0-.27-14.2-.27-31.72s.12-31.72.27-31.72.28,14.2.28,31.72S348.35,216.49,348.2,216.49Z" style="fill:#263238"></path><path d="M355.69,234.19a2.25,2.25,0,0,1-.05-.61c0-.47,0-1.05-.05-1.77,0-1.54,0-3.76,0-6.51,0-5.49.15-13.08.36-21.46s.39-15.89.53-21.45c.05-2.69.1-4.89.13-6.5,0-.72,0-1.3.06-1.77a2.29,2.29,0,0,1,.05-.62,2.29,2.29,0,0,1,.05.62c0,.47,0,1,0,1.77,0,1.53,0,3.76,0,6.5,0,5.5-.14,13.09-.36,21.47s-.39,15.89-.52,21.45c-.06,2.68-.1,4.89-.14,6.5,0,.72,0,1.3-.05,1.77A2.45,2.45,0,0,1,355.69,234.19Z" style="fill:#263238"></path><path d="M365.18,258.84c-.15,0-.27-14-.27-31.18s.12-31.18.27-31.18.27,14,.27,31.18S365.33,258.84,365.18,258.84Z" style="fill:#263238"></path><path d="M373.93,278.76c-.15,0-.27-13.55-.27-30.26s.12-30.26.27-30.26.27,13.55.27,30.26S374.08,278.76,373.93,278.76Z" style="fill:#263238"></path><path d="M379.56,460.18h-2.14V232.9c0-.84,1-1.52,2.14-1.52h0c1.18,0,2.13.68,2.13,1.52V458.66C381.69,459.5,380.74,460.18,379.56,460.18Z" style="fill:#263238"></path><path d="M337.75,280.73h0c-1.18,0-2.14-.58-2.14-1.29V119.63c0-.71,1-1.29,2.14-1.29h0c1.18,0,2.14.58,2.14,1.29V279.44C339.89,280.15,338.93,280.73,337.75,280.73Z" style="fill:#263238"></path></g><g id="freepik--character-2--inject-117"><path d="M569,296.74c-.35.92-6,54.26-.95,66s68.82,19.88,68.82,19.88l4.93-12.51s-23.08-11.06-29-14.29c-7.18-3.94-18.78-6.66-18.78-6.66l8.62-42.89Z" style="fill:#ffbf9d"></path><polygon points="619.85 358.62 642.06 367.65 650.5 378.14 646.67 385.11 616.07 379.68 619.85 358.62" style="fill:#e0e0e0"></polygon><path d="M637.35,384.31l1.12.25s3.34,21,6.9,22l8.32-38.38L641,366A22.79,22.79,0,0,1,637.35,384.31Z" style="fill:#455a64"></path><g style="opacity:0.6000000000000001"><path d="M644.19,370.75a1.56,1.56,0,0,1,2-.7,1.54,1.54,0,0,1,.69,2,1.65,1.65,0,0,1-2.11.73,1.6,1.6,0,0,1-.49-2.16" style="fill:#fff"></path></g><g style="opacity:0.6000000000000001"><path d="M653.69,368.2l-3.05-.54-6.86,37s.36,1.87,1.59,1.93Z" style="fill:#fff"></path></g><path d="M638.55,384.72c.18,0,.47-.89,1.26-1.68s1.68-1.11,1.64-1.3-1.16-.14-2.1.83S638.37,384.72,638.55,384.72Z" style="fill:#263238"></path><path d="M639.31,389.1c.17.08.66-.66,1.58-1.13s1.78-.47,1.81-.66-1-.53-2.11.07S639.14,389.06,639.31,389.1Z" style="fill:#263238"></path><path d="M643.56,392.42c.07-.16-.79-.62-1.91-.36s-1.7,1.05-1.57,1.16.8-.31,1.72-.51S643.5,392.6,643.56,392.42Z" style="fill:#263238"></path><path d="M620.07,380.39a24,24,0,0,1,.71-2.92c.47-1.8,1.06-4.29,1.58-7.07s.89-5.32,1.11-7.16a22.94,22.94,0,0,1,.41-3,13.65,13.65,0,0,1,0,3,66.22,66.22,0,0,1-1,7.21,64.39,64.39,0,0,1-1.74,7.08A14,14,0,0,1,620.07,380.39Z" style="fill:#455a64"></path><path d="M622.14,380.76a21.6,21.6,0,0,1,.7-2.86c.46-1.76,1-4.2,1.55-6.91s.87-5.21,1.08-7a21.68,21.68,0,0,1,.4-2.92,14.31,14.31,0,0,1,0,3,60.61,60.61,0,0,1-.94,7.06,58.18,58.18,0,0,1-1.71,6.92A13.67,13.67,0,0,1,622.14,380.76Z" style="fill:#455a64"></path><path d="M583.91,353.36a13.5,13.5,0,0,1,4.83-3.08,13.66,13.66,0,0,1,5.57-1.31c0,.16-2.5.57-5.37,1.79S584,353.49,583.91,353.36Z" style="fill:#ff9a6c"></path><path d="M532.27,287c-1.7.56-38.82,18.13-40.52,24.36s9.08,70.08,9.08,70.08h15.58s3.31-31.94,3.32-41.08c0-9.37-1.85-14-1.85-14l37.62-17.51Z" style="fill:#ffbf9d"></path><polygon points="518.43 360.24 516.6 382.73 509.7 393.66 502.18 392.35 497.57 362.87 518.43 360.24" style="fill:#e0e0e0"></polygon><path d="M500,383.64l.12,1.1s-18,9.58-17.85,13.12l37.46-4.41-2-12.2A21.86,21.86,0,0,1,500,383.64Z" style="fill:#455a64"></path><g style="opacity:0.6000000000000001"><path d="M514.45,385.62a1.51,1.51,0,0,1,1.26,1.59,1.49,1.49,0,0,1-1.6,1.25,1.59,1.59,0,0,1-1.32-1.69,1.53,1.53,0,0,1,1.8-1.12" style="fill:#fff"></path></g><g style="opacity:0.6000000000000001"><path d="M519.73,393.45l-.47-2.93-35.73,5.3s-1.58.91-1.26,2Z" style="fill:#fff"></path></g><path d="M500,384.85c0,.18.95.16,1.92.63s1.54,1.17,1.7,1.08-.24-1.1-1.42-1.65S499.94,384.69,500,384.85Z" style="fill:#263238"></path><path d="M496.26,386.92c0,.17.81.39,1.52,1.08s1,1.47,1.16,1.44.18-1.06-.72-1.9S496.24,386.74,496.26,386.92Z" style="fill:#263238"></path><path d="M494.57,391.8c.17,0,.32-.91-.27-1.84s-1.48-1.22-1.54-1.06.53.62,1,1.39S494.39,391.81,494.57,391.8Z" style="fill:#263238"></path><path d="M498.17,366.72a23.09,23.09,0,0,1,2.88-.27c1.78-.13,4.22-.38,6.91-.77s5.11-.85,6.85-1.22a18.94,18.94,0,0,1,2.84-.55,13,13,0,0,1-2.75.91A62.21,62.21,0,0,1,508,366.2a60.53,60.53,0,0,1-7,.62A12.22,12.22,0,0,1,498.17,366.72Z" style="fill:#455a64"></path><path d="M498.49,368.72a19.62,19.62,0,0,1,2.81-.27c1.74-.13,4.13-.36,6.76-.74s5-.84,6.7-1.2a20.1,20.1,0,0,1,2.77-.55,11.42,11.42,0,0,1-2.69.9,57.73,57.73,0,0,1-6.7,1.36,59.57,59.57,0,0,1-6.82.6A12.29,12.29,0,0,1,498.49,368.72Z" style="fill:#455a64"></path><path d="M510.47,320.3a18.42,18.42,0,0,1,8,6.47c-.12.1-1.65-1.62-3.85-3.4S510.4,320.44,510.47,320.3Z" style="fill:#ff9a6c"></path><path d="M523.31,290.06S538.89,283.19,541,279l8.55-15.66.5-4.76,42.51-2.84,1.64,5a57.38,57.38,0,0,1,9.45,22.59c1.56,8.54,1.65,38.12,1.65,38.12s-40.27-3.23-49.64-5.72S531.34,305.08,523.31,290.06Z" style="fill:#263238"></path><path d="M557.24,309a3.27,3.27,0,0,1,.15-.54c.14-.39.31-.89.51-1.49l1.89-5.49c.8-2.32,1.73-5.09,2.83-8.14.55-1.53,1.14-3.13,1.81-4.76.34-.82.68-1.65,1.06-2.49.19-.42.4-.83.6-1.25a1.8,1.8,0,0,1,.19-.35.7.7,0,0,1,.45-.27.76.76,0,0,1,.84.51,1.44,1.44,0,0,1,0,.44v.35l0,.7c0,.46-.08.92-.11,1.38-.1.91-.22,1.81-.37,2.68-.28,1.75-.61,3.43-1,5-.69,3.17-1.4,6-2,8.39s-1,4.31-1.33,5.65c-.14.62-.25,1.13-.34,1.54a3.09,3.09,0,0,1-.15.54,2.13,2.13,0,0,1,0-.56c0-.35.12-.88.24-1.56.24-1.35.64-3.3,1.17-5.69s1.2-5.24,1.86-8.41c.34-1.58.66-3.25.93-5,.14-.86.25-1.75.35-2.65,0-.45.09-.91.11-1.36l0-.69a3.2,3.2,0,0,0,0-.61.23.23,0,0,0-.25-.16c-.11,0-.15.09-.27.34-.19.42-.4.82-.58,1.24-.38.82-.73,1.65-1.07,2.46-.67,1.62-1.26,3.22-1.83,4.73l-2.93,8.1c-.84,2.31-1.53,4.17-2,5.44-.25.64-.46,1.13-.6,1.46A2.59,2.59,0,0,1,557.24,309Z" style="fill:#455a64"></path><path d="M594.15,260.71a12.37,12.37,0,0,1-1.7.47c-1.11.27-2.72.63-4.73,1a147.66,147.66,0,0,1-15.78,2.08,102.23,102.23,0,0,1-15.92.08c-1-.08-1.94-.17-2.74-.29s-1.49-.19-2-.31a11,11,0,0,1-1.73-.39,11.72,11.72,0,0,1,1.76.19c.56.08,1.25.14,2.06.22s1.71.16,2.73.21a118.73,118.73,0,0,0,15.85-.23c6.18-.48,11.75-1.25,15.76-1.92,2-.33,3.62-.63,4.74-.84A10.35,10.35,0,0,1,594.15,260.71Z" style="fill:#455a64"></path><path d="M600.75,212.27c.8,1,13.67,21.14,13.67,21.14l11.84,7.67,2.6,5.09-.7,9.86-10.65-8.87s-9.29-.73-11.07-2.72S590.31,224,590.31,224Z" style="fill:#ffbf9d"></path><path d="M612.63,234.62a16.51,16.51,0,0,0-3.16,1.71,16.14,16.14,0,0,0-2.36,2.71,5.94,5.94,0,0,1,5.52-4.42Z" style="fill:#ff9a6c"></path><path d="M668.05,187.38c0-.11,8.56,2.63,19,6.12S706,199.92,706,200s-8.56-2.63-19-6.13S668,187.49,668.05,187.38Z" style="fill:#e0e0e0"></path><path d="M671.13,184.9c0-.11,7.62,2.32,16.94,5.42s16.85,5.73,16.81,5.84-7.62-2.32-16.94-5.43S671.09,185,671.13,184.9Z" style="fill:#e0e0e0"></path><path d="M674.78,182.82c0-.11,6.41,1.91,14.23,4.51s14.13,4.8,14.09,4.92-6.41-1.91-14.23-4.51S674.74,182.93,674.78,182.82Z" style="fill:#e0e0e0"></path><path d="M679.24,181.63c0-.11,4.81,1.38,10.67,3.33s10.57,3.62,10.53,3.73-4.81-1.38-10.67-3.33S679.2,181.74,679.24,181.63Z" style="fill:#e0e0e0"></path><path d="M666.52,190.14c0-.11,8.85,2.73,19.67,6.34s19.57,6.63,19.53,6.74-8.84-2.72-19.67-6.33S666.48,190.26,666.52,190.14Z" style="fill:#e0e0e0"></path><path d="M663.93,192.52c0-.12,9.52,2.89,21.18,6.72s21.08,7,21,7.13-9.52-2.9-21.18-6.72S663.89,192.63,663.93,192.52Z" style="fill:#e0e0e0"></path><path d="M662.2,195.56c0-.12,10.06,3.13,22.39,7.24s22.29,7.54,22.25,7.65-10.06-3.13-22.39-7.24S662.16,195.67,662.2,195.56Z" style="fill:#e0e0e0"></path><path d="M660.66,198.5c0-.12,10.21,3.13,22.71,7.24s22.6,7.55,22.57,7.66-10.2-3.13-22.71-7.25S660.62,198.61,660.66,198.5Z" style="fill:#e0e0e0"></path><path d="M659,201.16c0-.11,10.37,3.2,23.07,7.38s23,7.68,22.94,7.79S694.67,213.14,682,209,659,201.28,659,201.16Z" style="fill:#e0e0e0"></path><path d="M657.52,203.94a2,2,0,0,1,.47.11l1.32.39,4.84,1.52L680,211.14l15.87,5.28,4.8,1.64,1.29.46.45.19-.47-.1-1.33-.39-4.83-1.51c-4.08-1.3-9.71-3.12-15.91-5.16s-11.81-3.92-15.86-5.3l-4.79-1.65-1.3-.47A2.56,2.56,0,0,1,657.52,203.94Z" style="fill:#e0e0e0"></path><path d="M657.55,207.05c0-.11,9.54,2.94,21.22,6.81s21.13,7.11,21.09,7.22-9.54-2.94-21.22-6.81S657.52,207.16,657.55,207.05Z" style="fill:#e0e0e0"></path><path d="M658.07,210.38c0-.12,8.84,2.72,19.67,6.33s19.57,6.63,19.53,6.75-8.84-2.73-19.67-6.34S658,210.49,658.07,210.38Z" style="fill:#e0e0e0"></path><path d="M655.48,212.75c0-.11,8.84,2.72,19.67,6.34s19.57,6.63,19.53,6.74-8.84-2.72-19.67-6.34S655.44,212.86,655.48,212.75Z" style="fill:#e0e0e0"></path><path d="M654.58,215.69c0-.11,8.47,2.6,18.82,6.05s18.73,6.35,18.69,6.47-8.46-2.6-18.82-6.06S654.54,215.8,654.58,215.69Z" style="fill:#e0e0e0"></path><path d="M654,218.63c0-.11,8,2.47,17.82,5.77s17.72,6.07,17.68,6.18-8-2.47-17.82-5.77S654,218.74,654,218.63Z" style="fill:#e0e0e0"></path><path d="M652.55,221.17c0-.12,7.3,2.22,16.21,5.22s16.1,5.53,16.07,5.64-7.3-2.23-16.21-5.23S652.52,221.28,652.55,221.17Z" style="fill:#e0e0e0"></path><path d="M650.83,223.87a6.36,6.36,0,0,1,1.18.3l3.17,1,10.45,3.2c4.09,1.24,7.77,2.42,10.42,3.32,1.33.46,2.4.83,3.13,1.1a5.8,5.8,0,0,1,1.13.47,8.7,8.7,0,0,1-1.18-.31L676,232l-10.46-3.2c-4.08-1.24-7.77-2.42-10.42-3.32-1.32-.45-2.39-.83-3.13-1.1A6.37,6.37,0,0,1,650.83,223.87Z" style="fill:#e0e0e0"></path><path d="M649.59,226.56a4.61,4.61,0,0,1,1,.24l2.65.8,8.72,2.65c3.42,1,6.49,2,8.7,2.78,1.1.39,2,.7,2.6.94a5.56,5.56,0,0,1,.94.39,3.94,3.94,0,0,1-1-.24l-2.65-.8-8.72-2.65c-3.42-1-6.49-2-8.7-2.78-1.1-.38-2-.7-2.6-.93A4.6,4.6,0,0,1,649.59,226.56Z" style="fill:#e0e0e0"></path><path d="M650,235.8c-.11-.05,5.87-12.27,13.34-27.29S677,181.34,677.07,181.4s-5.87,12.27-13.34,27.3S650.11,235.86,650,235.8Z" style="fill:#e0e0e0"></path><path d="M650.38,228.22a1.79,1.79,0,0,1,.18-.47l.59-1.3c.55-1.17,1.31-2.78,2.23-4.75L660.7,206c2.87-6.13,5.49-11.67,7.44-15.66,1-2,1.79-3.59,2.36-4.7l.66-1.26a3,3,0,0,1,.26-.43,1.79,1.79,0,0,1-.18.47l-.59,1.3c-.55,1.17-1.31,2.78-2.23,4.75l-7.33,15.71c-2.86,6.14-5.48,11.67-7.44,15.66-1,2-1.78,3.6-2.35,4.7l-.66,1.26A2.36,2.36,0,0,1,650.38,228.22Z" style="fill:#e0e0e0"></path><path d="M655.68,209.9c-.11-.05,2.13-4.78,5-10.56S666,188.91,666.07,189s-2.13,4.79-5,10.57S655.78,210,655.68,209.9Z" style="fill:#e0e0e0"></path><path d="M653.56,234.68c-.1-.05,5.77-11.87,13.12-26.39s13.4-26.25,13.51-26.19-5.77,11.86-13.12,26.39S653.67,234.73,653.56,234.68Z" style="fill:#e0e0e0"></path><path d="M657.58,233.41c-.1,0,5.58-11.58,12.7-25.75s13-25.61,13.09-25.55-5.58,11.58-12.7,25.75S657.69,233.47,657.58,233.41Z" style="fill:#e0e0e0"></path><path d="M661.65,233.06c-.11-.06,5.59-11.53,12.73-25.63s13-25.49,13.13-25.44-5.6,11.53-12.74,25.63S661.75,233.11,661.65,233.06Z" style="fill:#e0e0e0"></path><path d="M665,233.26c-.11-.06,5.46-11.28,12.44-25.08s12.72-24.94,12.83-24.88-5.47,11.28-12.44,25.08S665.14,233.31,665,233.26Z" style="fill:#e0e0e0"></path><path d="M668.88,233.67c-.11,0,5.22-11.08,11.9-24.63s12.19-24.5,12.29-24.44-5.22,11.08-11.9,24.63S669,233.72,668.88,233.67Z" style="fill:#e0e0e0"></path><path d="M672.32,233.74a2,2,0,0,1,.19-.5c.17-.35.38-.82.64-1.39.6-1.24,1.42-3,2.43-5.07l8.15-16.69c3.22-6.47,6.13-12.34,8.26-16.64l2.54-5,.7-1.35.27-.47-.19.5-.63,1.4c-.59,1.24-1.41,3-2.42,5.08-2.06,4.28-4.93,10.18-8.14,16.69l-8.27,16.63c-1.05,2.08-1.92,3.78-2.55,5l-.71,1.35A3,3,0,0,1,672.32,233.74Z" style="fill:#e0e0e0"></path><path d="M675.49,233.31c-.11-.05,4.9-10.24,11.19-22.74S698.14,188,698.25,188s-4.9,10.23-11.19,22.74S675.6,233.37,675.49,233.31Z" style="fill:#e0e0e0"></path><path d="M679.24,233.1c-.11-.06,4.53-9.6,10.37-21.32s10.64-21.18,10.75-21.13S695.82,200.25,690,212,679.35,233.15,679.24,233.1Z" style="fill:#e0e0e0"></path><path d="M682.63,233.18c-.1-.06,4.32-9.16,9.88-20.34s10.15-20.2,10.26-20.14-4.31,9.15-9.88,20.33S682.74,233.23,682.63,233.18Z" style="fill:#e0e0e0"></path><path d="M687.77,230.88c-.1,0,3.6-7.72,8.26-17.13s8.55-17,8.65-16.95-3.59,7.73-8.26,17.14S687.88,230.94,687.77,230.88Z" style="fill:#e0e0e0"></path><path d="M691.42,229.14c-.11-.06,2.85-6.18,6.61-13.68s6.89-13.55,7-13.49-2.85,6.18-6.61,13.68S691.52,229.19,691.42,229.14Z" style="fill:#e0e0e0"></path><path d="M697.21,225.21a19,19,0,0,1,1.18-2.74c.76-1.67,1.87-4,2.92-6.55s2.21-4.88,3-6.52c.42-.82.78-1.47,1-1.92a2.82,2.82,0,0,1,.43-.68,22.42,22.42,0,0,1-1.18,2.74c-.77,1.67-1.87,4-2.92,6.55s-2.22,4.88-3.05,6.51c-.42.82-.77,1.48-1,1.93A3.25,3.25,0,0,1,697.21,225.21Z" style="fill:#e0e0e0"></path><path d="M640.27,241.76a6.64,6.64,0,0,1,1.55-1.29c1.08-.76,2.72-1.83,4.91-3.06A55.67,55.67,0,0,1,655,233.5a18.53,18.53,0,0,1,5.75-1.12,46.24,46.24,0,0,1,6.46.35,48.56,48.56,0,0,0,6.89.34,37.5,37.5,0,0,0,7.35-1,33.8,33.8,0,0,0,14.33-7.49,39,39,0,0,0,3.13-3,28.79,28.79,0,0,0,2.68-3.51,22.64,22.64,0,0,0,3.29-8.37,29.92,29.92,0,0,0,.11-9.4,19.67,19.67,0,0,0-1.32-4.56,18.37,18.37,0,0,0-2.49-4.07,21.92,21.92,0,0,0-3.47-3.34,30,30,0,0,0-4.09-2.55,24.73,24.73,0,0,0-8.95-2.69,20,20,0,0,0-8.86,1.14,21.11,21.11,0,0,0-2,.86c-.63.36-1.29.66-1.89,1.08a28.68,28.68,0,0,0-3.48,2.57A35.3,35.3,0,0,0,659.2,202a43.41,43.41,0,0,0-2.21,7.12c-.53,2.35-.94,4.67-1.48,6.87a29.24,29.24,0,0,1-2.14,6.16,23,23,0,0,1-3.3,4.8,65,65,0,0,1-6.52,6.46c-1.91,1.64-3.47,2.82-4.55,3.57a6.39,6.39,0,0,1-1.75,1c-.09-.14,2.13-1.78,5.73-5.22a72.21,72.21,0,0,0,6.16-6.61,22.69,22.69,0,0,0,3-4.62,29.34,29.34,0,0,0,1.88-5.92c.48-2.15.84-4.46,1.34-6.87a45.4,45.4,0,0,1,2.18-7.43,36.67,36.67,0,0,1,9.61-14.11,29.48,29.48,0,0,1,3.71-2.79c.64-.45,1.37-.8,2.06-1.2s1.44-.71,2.21-1a22,22,0,0,1,9.77-1.31,26.45,26.45,0,0,1,9.73,2.88,30.92,30.92,0,0,1,4.42,2.75,23.48,23.48,0,0,1,3.84,3.69,20.07,20.07,0,0,1,2.79,4.57,20.94,20.94,0,0,1,1.46,5.07,26,26,0,0,1,.33,5.12,34.82,34.82,0,0,1-.47,5,24.73,24.73,0,0,1-3.64,9.12,30.81,30.81,0,0,1-2.92,3.75,39.76,39.76,0,0,1-3.33,3.18,43.55,43.55,0,0,1-3.56,2.72,35.44,35.44,0,0,1-3.79,2.2,36.11,36.11,0,0,1-7.86,2.8,38.1,38.1,0,0,1-7.71.94,48.52,48.52,0,0,1-7.11-.49,47.12,47.12,0,0,0-6.25-.49,17.51,17.51,0,0,0-5.4.89,62.25,62.25,0,0,0-8.31,3.51C642.66,240.37,640.36,241.9,640.27,241.76Z" style="fill:#263238"></path><path d="M638.26,237.14l-18.91,14.67s-.62,3.87,4.72,5.73l17.28-16.1-3.09-4.3Z" style="fill:#263238"></path><path d="M639.24,248.06a28.26,28.26,0,0,0-2.89-5.48c-.73-.8-5.36-2.76-5.36-2.76l-9.61,1.56s-1.61,3.83,1.57,5.51,8.85-2.63,8.85-2.63l2.39.57S636.66,249.23,639.24,248.06Z" style="fill:#ffbf9d"></path><path d="M636.85,247.81a2.32,2.32,0,0,1,0,2.76s-.32.41-1.67.15a2.2,2.2,0,0,1-1.49,2l-1.51,0a1.91,1.91,0,0,1-2,2.05s0,2.12-2.55,2.1a14,14,0,0,1-2.68-.11s1.22-1.25,1.23-1.64c0-1.4-1.4-2.55-.46-4.22l.55-.43s-2.57-1.65-1.79-3.16,1.66-.74,1.66-.74-.76-1.65.58-1.89a4,4,0,0,1,2.7.83s-.17-1.38,1.15-1.29a19.31,19.31,0,0,1,4.1,1.25Z" style="fill:#ffbf9d"></path><path d="M629.9,254.89c-.11.05-.66-1.13-1.66-2.35s-2-2-2-2.11a7,7,0,0,1,3.63,4.46Z" style="fill:#ff9a6c"></path><path d="M632.07,252.58a15.19,15.19,0,0,0-6.05-6,9.25,9.25,0,0,1,6.05,6Z" style="fill:#ff9a6c"></path><path d="M625.24,249.67s-.12,0-.28-.2a2.51,2.51,0,0,1-.57-.79,1.82,1.82,0,0,1,0-1.54,1.4,1.4,0,0,1,.7-.72,1.52,1.52,0,0,1,1.11,0l-.22.3a1.56,1.56,0,0,1-.31-1,1.52,1.52,0,0,1,.49-1,1.4,1.4,0,0,1,1.17-.28,4.2,4.2,0,0,1,1.09.35,7.74,7.74,0,0,1,1.52,1c.46.35.89.7,1.29,1a23.3,23.3,0,0,1,2,2,18.68,18.68,0,0,1,1.2,1.46,2,2,0,0,1,.36.59c-.06,0-.67-.72-1.78-1.84-.55-.56-1.23-1.2-2-1.87-.4-.33-.83-.67-1.28-1a7.43,7.43,0,0,0-1.45-.92c-.62-.29-1.4-.51-1.79-.15a1.09,1.09,0,0,0-.38.73,1.13,1.13,0,0,0,.21.74l.36.51-.58-.21a1.22,1.22,0,0,0-.84,0,1.09,1.09,0,0,0-.54.54,1.59,1.59,0,0,0-.06,1.31A7.49,7.49,0,0,0,625.24,249.67Z" style="fill:#ff9a6c"></path><path d="M635,250.62a4.66,4.66,0,0,0,.54.15,1.45,1.45,0,0,0,1.27-.52,2.06,2.06,0,0,0,.22-2,4.75,4.75,0,0,0-1.71-2,11.82,11.82,0,0,0-2.46-1.28c-.39-.15-.79-.32-1.13-.44a5.08,5.08,0,0,0-1-.19,1.15,1.15,0,0,0-1.12.71,2.64,2.64,0,0,0-.17.52s-.13-.22,0-.59a1.72,1.72,0,0,1,.39-.59,1.23,1.23,0,0,1,.38-.27,1.51,1.51,0,0,1,.51-.08,4.47,4.47,0,0,1,1.11.15c.39.12.76.26,1.18.41a11.83,11.83,0,0,1,2.56,1.29,5,5,0,0,1,1.84,2.26,2.36,2.36,0,0,1-.37,2.35,1.56,1.56,0,0,1-1.53.48C635.07,250.83,634.94,250.64,635,250.62Z" style="fill:#ff9a6c"></path><path d="M616.77,250.17a11.46,11.46,0,0,1,4.78-8.11,30.61,30.61,0,0,0-2.89,3.76A32.65,32.65,0,0,0,616.77,250.17Z" style="fill:#ff9a6c"></path><path d="M627,257.18s1.31-1.62.93-2.55-5.63-6-7.17-6.77-16.46-1-16.69-1.16L599.79,257h2.53s4,3.46,8.91,3.23l2.77,1.16s1.55,2.15,2.55,1.61a2.32,2.32,0,0,0,1.08-1.77s2.31.62,2.77-.08a3.05,3.05,0,0,0,.38-1.69s2,1.54,2.42.08-2-5.24-2-5.24l2,.7,1.82,1.3s-1.46.23-.77,1.08A1.74,1.74,0,0,0,627,257.18Z" style="fill:#ffbf9d"></path><path d="M626.7,257.54a7.23,7.23,0,0,1,.5-1,10.27,10.27,0,0,0,.53-1.2,1.58,1.58,0,0,0,.11-.37.18.18,0,0,0,0-.16.24.24,0,0,0-.05-.16,4,4,0,0,0-.47-.75,26.36,26.36,0,0,0-3.12-3.3,24.15,24.15,0,0,0-2.07-1.71,5.33,5.33,0,0,0-2.49-1.18c-1.94-.28-3.86-.35-5.58-.45l-4.58-.2-3.1-.14a4.32,4.32,0,0,1-1.13-.12,5.41,5.41,0,0,1,1.14-.08c.73,0,1.79,0,3.1,0s2.86,0,4.59.09a56.26,56.26,0,0,1,5.64.42,5,5,0,0,1,.77.16,5.1,5.1,0,0,1,.71.32,8.13,8.13,0,0,1,1.23.8,23.57,23.57,0,0,1,2.1,1.77,23.31,23.31,0,0,1,3.09,3.44,3.57,3.57,0,0,1,.48.85.76.76,0,0,1,0,.51,3.54,3.54,0,0,1-.14.39,9.21,9.21,0,0,1-.63,1.2A3.73,3.73,0,0,1,626.7,257.54Z" style="fill:#ff9a6c"></path><path d="M550.7,192.09c-.93.15-12.1,7-12.1,7s8.43,57.4,10.57,58.73,2.23.72,2.23.72l40.14-2.26,2.61-2.32-.42-34.2-.91-18.59L579.9,188.88h-9.14Z" style="fill:#455a64"></path><path d="M530.29,222c-.25.85,13.2,29.13,24.31,31.71S602.32,257,602.32,257s2.18-9.52,2.08-10.12-43.46-7.7-43.46-7.7L545.3,216S531.88,216.59,530.29,222Z" style="fill:#ffbf9d"></path><path d="M530.9,236.85s-3.43-14-3.48-18.92c-.08-6.41,1.53-11.6,4.94-14.45a31.67,31.67,0,0,1,7.61-5s12.68,28.48,13.07,29S530.9,236.85,530.9,236.85Z" style="fill:#455a64"></path><path d="M577.26,189.24A12.2,12.2,0,0,1,590.64,195C595,201.88,604,214.8,604,214.8l-13,12.26-13.17-25.84Z" style="fill:#455a64"></path><path d="M586.74,198.83a7.86,7.86,0,0,1,.82,1.2c.26.4.56.89.87,1.47s.69,1.24,1,2a43.67,43.67,0,0,1,2.22,5.45,50.2,50.2,0,0,1,1.76,7,51,51,0,0,1,.66,7.18,46.63,46.63,0,0,1-.29,5.88c-.08.83-.22,1.58-.32,2.23s-.22,1.22-.33,1.68a7,7,0,0,1-.38,1.4,8.26,8.26,0,0,1,.18-1.44c.08-.46.17-1,.24-1.68s.19-1.4.24-2.23a49.94,49.94,0,0,0,.18-5.83,49.7,49.7,0,0,0-2.39-14,54.3,54.3,0,0,0-2.1-5.45c-.33-.76-.68-1.42-1-2s-.56-1.1-.78-1.5A7.42,7.42,0,0,1,586.74,198.83Z" style="fill:#263238"></path><path d="M541.47,205.68c.12-.06,2.85,4.93,6.09,11.16s5.76,11.32,5.63,11.39-2.85-4.93-6.09-11.15S541.34,205.75,541.47,205.68Z" style="fill:#263238"></path><path d="M622.18,157.41c-2.07.52-3.68,2.22-5.57,3.27-3.55,2-7.89,1.52-11.31,0s-6.21-4-9.29-6.07-5.53-4.15-10-4.5c-7.79-.61-15.53,6.35-11.92,12.13l6.57,2.21a40.83,40.83,0,0,0,17.73,21.71,8.7,8.7,0,0,0,5.55,1.6c2-.28,4.09-2.25,3.64-4.1,3.25.63,6.58,1.23,10,.68s6.88-2.48,8.35-5.54.09-7.1-3.18-7.65c3-1.88,5.55-4.93,5.7-8.21S625.57,156.57,622.18,157.41Z" style="fill:#263238"></path><path d="M582.09,156.88a14.63,14.63,0,0,0-2.87-8.42c-2.54-3.52-5.28-4.9-8-6.29a19.3,19.3,0,0,0-9.64-2.43c-3.76.23-7.6.84-10.87,2.71-5.31,3.05-8.36,9.13-9.06,15.21s.64,12.22,2.38,18.09l24.8,5.42a15.73,15.73,0,0,0,12.22-12.4C581.78,164.69,582.46,162,582.09,156.88Z" style="fill:#263238"></path><path d="M572.56,150.17l-11.12-6.42-1.23.89c-7-1-13.68,3.38-15.27,12-1.16,6.2-2.24,12.52-1.92,17.27.64,9.54,7.75,11.39,7.75,11.39s-.32,3.61-.59,7l14.6,11.18c1.08-2.69,5.38-14.5,5.38-14.5l5.06-35.18A3.32,3.32,0,0,0,572.56,150.17Z" style="fill:#ffbf9d"></path><path d="M557.9,165.22a1.22,1.22,0,0,0,1.05,1.33,1.18,1.18,0,0,0,1.35-1,1.22,1.22,0,0,0-1.06-1.32A1.15,1.15,0,0,0,557.9,165.22Z" style="fill:#263238"></path><path d="M546.3,163.85a1.22,1.22,0,0,0,1.06,1.33,1.16,1.16,0,0,0,1.34-1,1.21,1.21,0,0,0-1.05-1.32A1.16,1.16,0,0,0,546.3,163.85Z" style="fill:#263238"></path><path d="M545.82,159.25c.14.17,1.11-.42,2.41-.3s2.19.86,2.35.71-.05-.36-.44-.7a3.3,3.3,0,0,0-1.86-.77,3.27,3.27,0,0,0-1.94.44C545.91,158.9,545.75,159.17,545.82,159.25Z" style="fill:#263238"></path><path d="M558.89,161.23c.15.16,1.06-.53,2.37-.54s2.26.62,2.4.46-.08-.35-.51-.65a3.3,3.3,0,0,0-1.93-.57,3.24,3.24,0,0,0-1.88.63C559,160.88,558.81,161.16,558.89,161.23Z" style="fill:#263238"></path><path d="M553.06,170a8.26,8.26,0,0,0-2.08-.58c-.33-.06-.63-.15-.67-.39a1.71,1.71,0,0,1,.31-1c.39-.77.79-1.59,1.21-2.44a43.59,43.59,0,0,0,2.8-6.4,43.66,43.66,0,0,0-3.31,6.16l-1.17,2.46a1.94,1.94,0,0,0-.29,1.29.88.88,0,0,0,.5.53,2.93,2.93,0,0,0,.56.13A8.84,8.84,0,0,0,553.06,170Z" style="fill:#263238"></path><path d="M550.77,185.27a24.07,24.07,0,0,0,12.91-2.22s-3.76,6.23-13.1,4.5Z" style="fill:#ff9a6c"></path><path d="M553.32,173.16a2.35,2.35,0,0,1,2.18-.67,2.12,2.12,0,0,1,1.4.92,1.37,1.37,0,0,1,0,1.56,1.56,1.56,0,0,1-1.74.27,4.76,4.76,0,0,1-1.58-1.14,1.3,1.3,0,0,1-.33-.41.45.45,0,0,1,0-.49" style="fill:#ff9a6c"></path><path d="M556.8,171.23c-.21,0-.34,1.38-1.64,2.27s-2.78.6-2.81.8.31.3.94.37a3.53,3.53,0,0,0,2.34-.58,3.09,3.09,0,0,0,1.28-1.91C557,171.59,556.9,171.23,556.8,171.23Z" style="fill:#263238"></path><path d="M558.36,156c.14.36,1.44.17,3,.34s2.77.57,3,.25c.09-.16-.13-.49-.63-.82a4.9,4.9,0,0,0-2.21-.75,5,5,0,0,0-2.31.3C558.59,155.58,558.31,155.86,558.36,156Z" style="fill:#263238"></path><path d="M545.94,154.89c.2.32,1.12.09,2.2.18s2,.37,2.21.08,0-.45-.39-.76a3.17,3.17,0,0,0-3.55-.21C546,154.45,545.85,154.74,545.94,154.89Z" style="fill:#263238"></path><path d="M572.67,170.16s-6.89,1.12-8.33-15.71c-.49-5.75-5-11-5-11l2.19-.33s12.5,5.51,12.7,5.7,2.33,7.2,2.33,7.2Z" style="fill:#263238"></path><path d="M571.13,169.32c.06-.7,1-2.28,1.73-2.32,1.87-.12,5.19.33,4.79,5-.53,6.42-6.87,4.56-6.86,4.37S570.9,171.74,571.13,169.32Z" style="fill:#ffbf9d"></path><path d="M573,174.13s.11.08.29.19a1.11,1.11,0,0,0,.83.08,2.77,2.77,0,0,0,1.49-2.37,3.62,3.62,0,0,0-.18-1.63,1.27,1.27,0,0,0-.77-.93.56.56,0,0,0-.68.25c-.1.17-.07.31-.11.31s-.13-.12-.05-.38a.68.68,0,0,1,.28-.38.91.91,0,0,1,.64-.11,1.6,1.6,0,0,1,1.08,1.09,3.91,3.91,0,0,1,.24,1.83,2.91,2.91,0,0,1-1.87,2.63,1.24,1.24,0,0,1-1-.25C573,174.28,572.93,174.14,573,174.13Z" style="fill:#ff9a6c"></path><path d="M568.63,166.41a8.62,8.62,0,0,1-.93-.33,5.78,5.78,0,0,1-2.08-1.64,7.93,7.93,0,0,1-1-1.55,10.22,10.22,0,0,1-.7-2,39.94,39.94,0,0,1-.72-4.82c-.21-1.73-.48-3.36-.81-4.83a26.5,26.5,0,0,0-1.16-3.84,17.67,17.67,0,0,0-1.14-2.44c-.15-.28-.29-.49-.37-.63a1.07,1.07,0,0,0-.15-.21l.12.23c.07.15.2.36.34.64a20.56,20.56,0,0,1,1.09,2.46,27.49,27.49,0,0,1,1.11,3.82c.33,1.47.59,3.1.8,4.82a38.59,38.59,0,0,0,.73,4.84,10.2,10.2,0,0,0,.73,2,7.74,7.74,0,0,0,1,1.57,5.6,5.6,0,0,0,2.15,1.62A3.61,3.61,0,0,0,568.63,166.41Z" style="fill:#263238"></path></g><g id="freepik--character-1--inject-117"><path d="M137.45,82.05s29.09,24,27.39,32.69-20.4-3.95-20.4-3.95L126.07,84.34Z" style="fill:#ae7461"></path><path d="M65.4,118.48c-.08.09-6.52-6.13-14.38-13.89S36.85,90.48,36.93,90.4s6.53,6.13,14.39,13.89S65.49,118.4,65.4,118.48Z" style="fill:#e0e0e0"></path><path d="M61.54,119.35c-.08.09-5.82-5.44-12.81-12.34S36.13,94.45,36.21,94.36,42,99.8,49,106.7,61.62,119.27,61.54,119.35Z" style="fill:#e0e0e0"></path><path d="M57.35,119.61c-.09.08-4.91-4.54-10.79-10.32S36,98.75,36.08,98.66,41,103.2,46.87,109,57.43,119.52,57.35,119.61Z" style="fill:#e0e0e0"></path><path d="M52.82,118.71c-.08.08-3.71-3.36-8.11-7.69s-7.89-7.91-7.81-8,3.72,3.35,8.11,7.68S52.9,118.62,52.82,118.71Z" style="fill:#e0e0e0"></path><path d="M68,116.67c-.09.09-6.74-6.34-14.86-14.35S38.49,87.74,38.57,87.65,45.31,94,53.43,102,68.07,116.59,68,116.67Z" style="fill:#e0e0e0"></path><path d="M71.36,115.69c-.08.08-7.27-6.8-16-15.37S39.49,84.72,39.57,84.64s7.27,6.79,16,15.37S71.44,115.6,71.36,115.69Z" style="fill:#e0e0e0"></path><path d="M74.26,113.72c-.09.09-7.65-7.24-16.91-16.37s-16.68-16.6-16.6-16.68S48.4,87.91,57.66,97,74.34,113.64,74.26,113.72Z" style="fill:#e0e0e0"></path><path d="M76.93,111.76c-.08.09-7.78-7.31-17.18-16.51s-17-16.74-16.89-16.83,7.78,7.31,17.19,16.52S77,111.68,76.93,111.76Z" style="fill:#e0e0e0"></path><path d="M79.57,110.09c-.08.08-7.9-7.44-17.45-16.8S44.88,76.27,45,76.19,52.86,83.62,62.42,93,79.66,110,79.57,110.09Z" style="fill:#e0e0e0"></path><path d="M82.15,108.26a2.19,2.19,0,0,1-.37-.31l-1-.93-3.66-3.5-12-11.65L53.19,80.13l-3.58-3.58-1-1a4,4,0,0,0-.33-.36l.38.29,1,.94,3.68,3.48c3.09,3,7.33,7.08,12,11.65s8.87,8.72,11.9,11.74l3.57,3.6,1,1A2.19,2.19,0,0,1,82.15,108.26Z" style="fill:#e0e0e0"></path><path d="M83.49,105.45c-.08.09-7.27-6.84-16-15.46S51.62,74.29,51.7,74.21s7.27,6.84,16,15.47S83.58,105.37,83.49,105.45Z" style="fill:#e0e0e0"></path><path d="M84.49,102.24c-.08.09-6.73-6.34-14.86-14.36S55,73.3,55.08,73.22s6.73,6.34,14.86,14.36S84.58,102.16,84.49,102.24Z" style="fill:#e0e0e0"></path><path d="M87.87,101.25c-.09.09-6.74-6.34-14.86-14.36S58.36,72.31,58.45,72.23s6.73,6.34,14.86,14.36S88,101.17,87.87,101.25Z" style="fill:#e0e0e0"></path><path d="M90,99c-.09.08-6.45-6.06-14.23-13.73s-14-14-13.92-14S68.27,77.3,76.05,85,90.05,98.93,90,99Z" style="fill:#e0e0e0"></path><path d="M91.79,96.62c-.08.09-6.11-5.75-13.45-13S65.11,70.33,65.19,70.25s6.11,5.75,13.45,13S91.87,96.54,91.79,96.62Z" style="fill:#e0e0e0"></path><path d="M94.2,95c-.08.08-5.56-5.22-12.24-11.84S69.94,71.09,70,71s5.57,5.21,12.25,11.84S94.29,94.9,94.2,95Z" style="fill:#e0e0e0"></path><path d="M97,93.32a6.1,6.1,0,0,1-.93-.79L93.6,90.26l-8-7.48c-3.12-2.91-5.91-5.6-7.89-7.58-1-1-1.79-1.79-2.33-2.36a5.76,5.76,0,0,1-.8-.91,6.42,6.42,0,0,1,.92.79L78,75l8,7.49c3.12,2.91,5.91,5.6,7.89,7.57,1,1,1.79,1.8,2.33,2.37A7.23,7.23,0,0,1,97,93.32Z" style="fill:#e0e0e0"></path><path d="M99.24,91.45a4.52,4.52,0,0,1-.78-.65c-.55-.5-1.22-1.14-2-1.88l-6.66-6.23c-2.62-2.42-4.93-4.67-6.58-6.33-.82-.83-1.48-1.51-1.92-2a4.56,4.56,0,0,1-.67-.77,4.52,4.52,0,0,1,.78.65l2,1.89,6.66,6.23C92.68,84.79,95,87,96.64,88.7c.83.83,1.49,1.5,1.93,2A5.08,5.08,0,0,1,99.24,91.45Z" style="fill:#e0e0e0"></path><path d="M103,83c.07.1-10.68,8.44-24,18.62S54.74,120,54.66,119.87s10.68-8.43,24-18.62S102.88,82.88,103,83Z" style="fill:#e0e0e0"></path><path d="M99.27,89.62a2.61,2.61,0,0,1-.37.33l-1.11.91L93.7,94.15,80.2,105c-5.28,4.24-10.07,8.06-13.58,10.77-1.76,1.36-3.19,2.44-4.19,3.18l-1.15.84a2.29,2.29,0,0,1-.42.27,1.88,1.88,0,0,1,.36-.34l1.11-.9,4.1-3.29,13.5-10.87C85.2,100.44,90,96.62,93.51,93.91c1.75-1.36,3.18-2.45,4.18-3.18l1.16-.84C99.11,89.7,99.26,89.6,99.27,89.62Z" style="fill:#e0e0e0"></path><path d="M86.43,103.72c.07.1-4,3.36-9.15,7.28s-9.34,7-9.41,6.93,4-3.35,9.15-7.27S86.36,103.63,86.43,103.72Z" style="fill:#e0e0e0"></path><path d="M99.25,82.41c.08.1-10.41,8.11-23.41,17.9S52.24,118,52.17,117.87s10.41-8.11,23.41-17.9S99.18,82.32,99.25,82.41Z" style="fill:#e0e0e0"></path><path d="M95.09,81.78c.07.09-10.12,7.93-22.75,17.51s-22.94,17.27-23,17.17S59.44,108.53,72.08,99,95,81.68,95.09,81.78Z" style="fill:#e0e0e0"></path><path d="M91.28,80.31c.07.09-10.1,7.88-22.73,17.38s-22.92,17.14-23,17,10.11-7.88,22.73-17.39S91.21,80.21,91.28,80.31Z" style="fill:#e0e0e0"></path><path d="M88.34,78.63c.07.1-9.88,7.72-22.23,17S43.7,112.43,43.63,112.34s9.88-7.72,22.22-17S88.26,78.54,88.34,78.63Z" style="fill:#e0e0e0"></path><path d="M85.06,76.57c.07.09-9.57,7.64-21.54,16.86S41.78,110,41.71,110s9.57-7.65,21.54-16.87S85,76.47,85.06,76.57Z" style="fill:#e0e0e0"></path><path d="M82,75a3.07,3.07,0,0,1-.4.36l-1.19,1L76,79.8,61.33,91.18,46.59,102.47l-4.49,3.39-1.23.91-.45.3.39-.36,1.18-1,4.41-3.5c3.74-2.93,8.93-7,14.67-11.39L75.82,79.56l4.5-3.38,1.24-.9A2.93,2.93,0,0,1,82,75Z" style="fill:#e0e0e0"></path><path d="M79,74c.07.1-8.91,7-20.07,15.49S38.65,104.69,38.57,104.6s8.92-7,20.07-15.49S78.9,73.88,79,74Z" style="fill:#e0e0e0"></path><path d="M75.51,72.52c.07.09-8.3,6.61-18.7,14.56s-18.9,14.32-19,14.22,8.3-6.61,18.71-14.56S75.44,72.42,75.51,72.52Z" style="fill:#e0e0e0"></path><path d="M72.5,71c.07.09-7.91,6.32-17.83,13.9S36.65,98.5,36.58,98.4s7.91-6.31,17.83-13.9S72.43,70.85,72.5,71Z" style="fill:#e0e0e0"></path><path d="M66.87,70.74c.08.09-6.63,5.35-15,11.74S36.75,94,36.67,93.87s6.63-5.35,15-11.74S66.8,70.64,66.87,70.74Z" style="fill:#e0e0e0"></path><path d="M62.83,70.7c.08.09-5.28,4.29-12,9.36s-12.15,9.12-12.23,9,5.29-4.29,12-9.37S62.76,70.6,62.83,70.7Z" style="fill:#e0e0e0"></path><path d="M55.9,71.67a20.2,20.2,0,0,1-2.26,1.94c-1.42,1.16-3.42,2.73-5.51,4.59S44,81.61,42.52,82.71c-.73.55-1.34,1-1.76,1.28a3.28,3.28,0,0,1-.69.42,21.45,21.45,0,0,1,2.26-1.94c1.43-1.16,3.43-2.73,5.52-4.59s4.13-3.41,5.6-4.51c.74-.55,1.35-1,1.77-1.28A3.41,3.41,0,0,1,55.9,71.67Z" style="fill:#e0e0e0"></path><path d="M114.31,81.92a6.93,6.93,0,0,1-2,.47c-1.31.2-3.25.45-5.76.59a56.86,56.86,0,0,1-9.18-.16,18.48,18.48,0,0,1-5.66-1.53,46.25,46.25,0,0,1-5.64-3.16,48.5,48.5,0,0,0-6-3.35,38,38,0,0,0-7-2.32,33.52,33.52,0,0,0-16.16.4,39.35,39.35,0,0,0-4.15,1.35,29.13,29.13,0,0,0-4,2,22.68,22.68,0,0,0-6.64,6.07,30,30,0,0,0-4.24,8.39,19,19,0,0,0-.82,4.67,18.6,18.6,0,0,0,.43,4.75,22.51,22.51,0,0,0,1.65,4.53,29.26,29.26,0,0,0,2.55,4.1A24.73,24.73,0,0,0,48.54,115,20,20,0,0,0,57,117.92c.73.11,1.47.07,2.19.11s1.45,0,2.18-.13a28.57,28.57,0,0,0,4.26-.78,35.15,35.15,0,0,0,14.16-7.84,43.3,43.3,0,0,0,5.13-5.41c1.51-1.87,2.9-3.77,4.36-5.51a29.07,29.07,0,0,1,4.63-4.59A23.51,23.51,0,0,1,99,90.91a65.44,65.44,0,0,1,8.7-2.91,55,55,0,0,1,5.66-1.2,6.71,6.71,0,0,1,2-.16c0,.17-2.7.66-7.45,2.16A75.18,75.18,0,0,0,99.46,92a22.74,22.74,0,0,0-4.73,2.84,28.71,28.71,0,0,0-4.3,4.47c-1.37,1.72-2.71,3.64-4.23,5.59a44.62,44.62,0,0,1-5.23,5.7A36.67,36.67,0,0,1,66.12,119a29.5,29.5,0,0,1-4.55.87c-.77.12-1.58.11-2.38.17s-1.61,0-2.41-.12a22,22,0,0,1-9.34-3.12A26.72,26.72,0,0,1,40,110a32,32,0,0,1-2.76-4.41,24.76,24.76,0,0,1-1.82-5,20.48,20.48,0,0,1-.48-5.34A21.39,21.39,0,0,1,35.83,90a27.15,27.15,0,0,1,2-4.74A35.32,35.32,0,0,1,40.42,81a24.53,24.53,0,0,1,7.29-6.58A29.49,29.49,0,0,1,52,72.33a41.22,41.22,0,0,1,4.39-1.39c1.47-.36,2.92-.66,4.4-.87a34.14,34.14,0,0,1,4.37-.3,36.06,36.06,0,0,1,8.29.94,39.18,39.18,0,0,1,7.34,2.56,48.66,48.66,0,0,1,6.16,3.58,47.6,47.6,0,0,0,5.4,3.2,17.34,17.34,0,0,0,5.24,1.57,60.71,60.71,0,0,0,9,.52C111.55,82.11,114.29,81.75,114.31,81.92Z" style="fill:#263238"></path><path d="M114.07,87l23.45-4.83s2.26-3.2-1.72-7.23l-22.61,6.84.88,5.22Z" style="fill:#263238"></path><path d="M118,76.72a28.59,28.59,0,0,0,.17,6.19c.31,1,3.6,4.84,3.6,4.84l9.32,2.84s3.13-2.73,1-5.64-9.1-1.54-9.1-1.54l-1.9-1.57S120.84,76.81,118,76.72Z" style="fill:#ae7461"></path><path d="M120,78a2.34,2.34,0,0,1,1.25-2.47s.46-.22,1.56.6A2.22,2.22,0,0,1,125.07,75l1.36.64a1.9,1.9,0,0,1,2.71-1s.93-1.91,3.22-.77a12.86,12.86,0,0,1,2.36,1.29s-1.66.58-1.83.93c-.63,1.26.13,2.9-1.45,4l-.69.14s1.58,2.62.22,3.62-1.82-.06-1.82-.06,0,1.81-1.35,1.44a4,4,0,0,1-2.07-1.94,1.06,1.06,0,0,1-1.6.65A19,19,0,0,1,121,81.06Z" style="fill:#ae7461"></path><path d="M129.4,74.7c.13,0,.1,1.31.46,2.85s.95,2.7.84,2.76a6.92,6.92,0,0,1-1.3-5.61Z" style="fill:#6f4439"></path><path d="M126.44,75.82a23.17,23.17,0,0,0,.81,4.24,22.28,22.28,0,0,0,2,3.83,7.68,7.68,0,0,1-2.38-3.69A7.78,7.78,0,0,1,126.44,75.82Z" style="fill:#6f4439"></path><path d="M131.28,81.44s.09.1.17.31a2.66,2.66,0,0,1,.17,1A1.85,1.85,0,0,1,131,84.1a1.37,1.37,0,0,1-.94.34,1.51,1.51,0,0,1-1-.48l.33-.16a1.53,1.53,0,0,1-.17,1,1.47,1.47,0,0,1-.89.69,1.39,1.39,0,0,1-1.17-.26,4.15,4.15,0,0,1-.82-.8,7.58,7.58,0,0,1-.94-1.54c-.26-.51-.49-1-.7-1.5a23.52,23.52,0,0,1-.92-2.64c-.22-.77-.35-1.4-.43-1.84a2,2,0,0,1-.06-.69c.06,0,.28.95.78,2.44.25.74.58,1.62,1,2.57.21.47.45,1,.7,1.47a8.2,8.2,0,0,0,.9,1.46c.43.54,1,1.07,1.54.93a1.07,1.07,0,0,0,.8-1.25l-.09-.62.42.45a1.23,1.23,0,0,0,.75.38,1,1,0,0,0,.72-.24,1.59,1.59,0,0,0,.63-1.15A5.52,5.52,0,0,0,131.28,81.44Z" style="fill:#6f4439"></path><path d="M123,76.3s-.13-.17-.42-.36a1.44,1.44,0,0,0-1.37-.09,2.06,2.06,0,0,0-1.09,1.71,4.84,4.84,0,0,0,.64,2.58,12.52,12.52,0,0,0,1.65,2.23c.28.31.56.64.82.89a4.42,4.42,0,0,0,.82.62,1.17,1.17,0,0,0,1.32-.14c.29-.2.34-.41.37-.4s0,.26-.26.53a1.67,1.67,0,0,1-.61.36,1.09,1.09,0,0,1-.46.07,1.34,1.34,0,0,1-.49-.15,4.07,4.07,0,0,1-.93-.62c-.31-.28-.57-.57-.88-.89a11.73,11.73,0,0,1-1.73-2.29,5,5,0,0,1-.65-2.84,2.32,2.32,0,0,1,1.36-1.94,1.57,1.57,0,0,1,1.59.24C123,76.07,123,76.3,123,76.3Z" style="fill:#6f4439"></path><path d="M139.1,84.73a9.4,9.4,0,0,1-3.37,3.43,9.59,9.59,0,0,1-4.49,1.74,31.06,31.06,0,0,0,4.26-2.1A31.2,31.2,0,0,0,139.1,84.73Z" style="fill:#6f4439"></path><path d="M135.32,250c-.72.82-26.7,35.83-26.7,35.83S70.32,294.74,58,301.6l4.6,13.13s53.7-5.31,60.29-8.48,38.14-39,38.14-39Z" style="fill:#ae7461"></path><polygon points="80.25 293.08 56.66 301.11 48.27 310.06 51.62 317.27 82.39 312.76 80.25 293.08" style="fill:#e0e0e0"></polygon><path d="M61.08,318l-1.14.17s-4.74,20.74-8.36,21.51L45.86,300.8l12.9-.56C57,306.41,57.47,311.71,61.08,318Z" style="fill:#455a64"></path><g style="opacity:0.6000000000000001"><path d="M55.17,304a1.57,1.57,0,0,0-1.94-.84,1.55,1.55,0,0,0-.82,2,1.65,1.65,0,0,0,2.06.87,1.62,1.62,0,0,0,.63-2.12" style="fill:#fff"></path></g><g style="opacity:0.6000000000000001"><path d="M45.86,300.8l3.08-.32,4.36,37.36s-.49,1.84-1.72,1.82Z" style="fill:#fff"></path></g><path d="M59.86,318.31c-.19,0-.42-.92-1.15-1.76s-1.6-1.23-1.55-1.41,1.17-.07,2,1S60,318.32,59.86,318.31Z" style="fill:#263238"></path><path d="M58.8,322.63c-.18.07-.61-.71-1.5-1.23s-1.74-.6-1.76-.79,1-.46,2.1.22S59,322.6,58.8,322.63Z" style="fill:#263238"></path><path d="M54.34,325.65c-.06-.16.83-.57,1.92-.23s1.64,1.16,1.49,1.27-.77-.37-1.67-.63S54.39,325.84,54.34,325.65Z" style="fill:#263238"></path><path d="M78.35,313.31a12.3,12.3,0,0,1-.83-2.62,52.92,52.92,0,0,1-1.19-6.53,52.3,52.3,0,0,1-.39-6.62,12.44,12.44,0,0,1,.18-2.75,17,17,0,0,1,.19,2.74c.08,1.69.23,4,.53,6.57s.72,4.85,1,6.51A19.19,19.19,0,0,1,78.35,313.31Z" style="fill:#455a64"></path><path d="M76.27,313.67a12.27,12.27,0,0,1-.82-2.62,53.05,53.05,0,0,1-1.2-6.53,52.18,52.18,0,0,1-.38-6.63,11.59,11.59,0,0,1,.18-2.74,19.6,19.6,0,0,1,.18,2.73c.08,1.69.23,4,.54,6.58s.71,4.85,1,6.51A16.42,16.42,0,0,1,76.27,313.67Z" style="fill:#455a64"></path><path d="M138.12,82.92a5.14,5.14,0,0,0-4.55.25,2.87,2.87,0,0,1-1.76.68,4,4,0,0,1-1.22-.6,2.6,2.6,0,0,0-3.49,1.36,3.07,3.07,0,0,1-.39,1c-.9,1.08-3.06-.53-3.95.56a3,3,0,0,1,1.7.47,1.33,1.33,0,0,1,.5,1.57c-.67,1.39-3.32,0-4.18,1.31-.47.69-.1,1.82-.77,2.32a2.79,2.79,0,0,1-.91.3,2.15,2.15,0,0,0-1.38,2.58c.28.88,1.14,1.74.74,2.57a2,2,0,0,1-1.42.86,5.62,5.62,0,0,0,1.5,2,3.35,3.35,0,0,0,.72,4.59,7.17,7.17,0,0,0-1,2.58,2.49,2.49,0,0,0,1,2.43,2.4,2.4,0,0,1,.53.34,1.28,1.28,0,0,1,.27.62,11.22,11.22,0,0,0,.51,2.59,1.69,1.69,0,0,0,2.12,1c.18-.09.36-.25.57-.21a.62.62,0,0,1,.35.29,6.05,6.05,0,0,1,.61,1.78,2.57,2.57,0,0,0,1,1.58,1.08,1.08,0,0,0,1.58-.45l.45,3c.09.59.25,1.29.81,1.52.73.29,1.48-.5,1.61-1.28s-.09-1.58.06-2.36a3.81,3.81,0,0,0,.18-.94,1.56,1.56,0,0,1,0-.75c.23-.46,1-.19,1.16.3a2.82,2.82,0,0,1-.22,1.5,1.29,1.29,0,0,0,.25,1.41c.2.15.46.19.66.34.67.53-.06,1.62.15,2.45.16.61.8,1,1.38,1.19s1.86.28,1.91-.49c0-.26-.14-.51-.15-.78a1.9,1.9,0,0,1,.28-.88,4,4,0,0,0,.33-2.28c-.28,1-.5,2.23.28,2.91a4.27,4.27,0,0,0,1.16.55c.78.34,1.42.93,2.2,1.27a2,2,0,0,0,2.33-.3,1.9,1.9,0,0,0,3.67.5c.09-.22.83-.73,1-.9s-.25.06,0,0a4.13,4.13,0,0,0,3-3l-.8,0a9.67,9.67,0,0,0,3.44-2.82,3.29,3.29,0,0,0-.22-4.12c-.49-.43-1.21-.78-1.22-1.43a1.57,1.57,0,0,1,.68-1.1l4.15-3.78a4.92,4.92,0,0,0,1.63-2.14,1.71,1.71,0,0,0-1.06-2.18,4.76,4.76,0,0,1,.92-2.54c.6-.83,1.46-1.45,2.1-2.25a2.79,2.79,0,0,0,.6-2.86c-.46-.92-2.07-1.1-2.43-.14-.47-1.47,2-2.63,1.65-4.14-.31-1.22-2-1.2-3.15-1.76,0-.46.28-.89.28-1.35,0-1-1.2-1.44-2.18-1.48s-2.12,0-2.68-.81-.24-2.15-1.05-2.73a1.08,1.08,0,0,0-1.47.23c-1.35-1.37-3.91,1.17-5.45,0a.68.68,0,0,1-.28-.35.86.86,0,0,1,0-.39,8,8,0,0,1,.93-1.62,1.52,1.52,0,0,0,0-1.74c-.43-.44-1.44,0-1.18.57a1.37,1.37,0,0,0-1.73,1.3,1.47,1.47,0,0,0-1.77.56,4.33,4.33,0,0,0-.63,1.9" style="fill:#263238"></path><path d="M138,104.32c-.42-2.58.57-5.2,1.93-7.44a6.74,6.74,0,0,1,2.17-2.42,2.83,2.83,0,0,1,3.1,0l.53,1.76c1.28,2.62.09,5.71.09,8.63,0,1.26.16,2.72-.73,3.61a2.74,2.74,0,0,1-1.82.7C140.64,109.3,138.42,106.9,138,104.32Z" style="fill:#FF725E"></path><path d="M142.68,116.91a5.83,5.83,0,0,1-2.16-7.17c-1.47-.88-1.84-3-1.3-4.58a11.35,11.35,0,0,1,3-4.13,7.87,7.87,0,0,1,6.55-8.62c.85-3.51,4.74-5.48,8.34-5.76a9.18,9.18,0,0,0,2.62-.39,16.44,16.44,0,0,0,1.7-.92c3.14-1.7,7.3-.61,9.75,2a6.58,6.58,0,0,0,1.25,1.17c.63.39,1.38-.32,2.12.69A6.22,6.22,0,0,0,176.12,92a25.07,25.07,0,0,0,3.55,4,20.48,20.48,0,0,1,1.6,1.29c1.28,1.54,0,4.08,1.06,5.77a10,10,0,0,0,.76,1,3.55,3.55,0,0,1,.66,2.36,4.91,4.91,0,0,0-.1,1.9,5.34,5.34,0,0,0,.77,1.24c.63,1-.14,6.12-.86,7.07l-28.14,10.9a5.63,5.63,0,0,1-5.79-3,2.07,2.07,0,0,0-.66-.94,2.36,2.36,0,0,0-1-.21c-2.18-.29-3.34-2.71-3.93-4.83a2.58,2.58,0,0,0-.34-.86A3.4,3.4,0,0,0,142.68,116.91Z" style="fill:#263238"></path><path d="M150.8,114a16.17,16.17,0,0,1,3-16.21,19.83,19.83,0,0,1,6.55-4.46,12.26,12.26,0,0,1,7.19-1.12c1.69-.22,9.37,2.85,11.8,8.41,2.71,6.17,5.76,13.81,6.73,18.8,2,10-4.86,13.88-4.86,13.88s2.07,4.85,2.07,4.85l7.48,13.63-22.26-2-3.37-.56Z" style="fill:#ae7461"></path><path d="M172.09,122.75a1.9,1.9,0,0,1,.15-1.39,2,2,0,0,1,2.2-1.09c.88.17,1.31.94,1.57,1.89h0c-.16.69-.22,1.34-.84,1.67l-.3.14a2.18,2.18,0,0,1-1.61,0A1.94,1.94,0,0,1,172.09,122.75Z" style="fill:#6f4439"></path><path d="M179.39,109.24a1.3,1.3,0,0,1-.73,1.66,1.24,1.24,0,0,1-1.65-.64,1.3,1.3,0,0,1,.72-1.66A1.25,1.25,0,0,1,179.39,109.24Z" style="fill:#263238"></path><path d="M178.52,105c-.09.22-1.26-.13-2.57.35s-2,1.49-2.23,1.38,0-.39.26-.85a3.56,3.56,0,0,1,1.71-1.29,3.32,3.32,0,0,1,2.12-.08C178.33,104.62,178.57,104.86,178.52,105Z" style="fill:#263238"></path><path d="M174.64,118.07a9.45,9.45,0,0,1,2-1.15c.32-.16.61-.34.59-.59a1.79,1.79,0,0,0-.59-.91l-1.91-2.18a46.32,46.32,0,0,1-4.65-5.84c.13-.11,2.41,2.33,5.11,5.45l1.88,2.21a2.1,2.1,0,0,1,.65,1.25.92.92,0,0,1-.37.69,2.63,2.63,0,0,1-.54.29A8.67,8.67,0,0,1,174.64,118.07Z" style="fill:#263238"></path><path d="M181.23,133.2a25.76,25.76,0,0,1-14,1.27s5.82,5.45,15,1.1Z" style="fill:#6f4439"></path><path d="M177.67,102c-.1.4-1.18.55-2.32,1.07s-2,1.19-2.35,1c-.17-.1-.15-.46.14-.93a4,4,0,0,1,3.76-1.67C177.44,101.61,177.71,101.84,177.67,102Z" style="fill:#263238"></path><path d="M165.13,115.25a1.31,1.31,0,0,0,1.65.74,1.26,1.26,0,0,0,.8-1.59,1.31,1.31,0,0,0-1.65-.74A1.25,1.25,0,0,0,165.13,115.25Z" style="fill:#263238"></path><path d="M160.81,112c.21.09.85-1,2.14-1.47s2.5-.26,2.57-.48-.22-.32-.76-.45a3.58,3.58,0,0,0-2.14.19,3.39,3.39,0,0,0-1.62,1.37C160.73,111.62,160.71,112,160.81,112Z" style="fill:#263238"></path><path d="M159.15,108.35c.37.19,1.24-.52,2.44-1s2.28-.71,2.39-1.11c0-.19-.24-.42-.79-.51A3.93,3.93,0,0,0,161,106a3.87,3.87,0,0,0-1.71,1.38C159,107.89,159,108.25,159.15,108.35Z" style="fill:#263238"></path><path d="M155.59,122.33c-.26-.71-1.69-2.07-2.42-1.93-2,.39-5.27,1.76-3.58,6.5,2.32,6.48,8.34,2.82,8.29,2.63S156.48,124.76,155.59,122.33Z" style="fill:#ae7461"></path><path d="M155.25,127.8s-.09.12-.25.28a1.21,1.21,0,0,1-.84.32c-.77,0-1.73-.89-2.18-2.05a3.81,3.81,0,0,1-.26-1.73,1.38,1.38,0,0,1,.53-1.17.61.61,0,0,1,.78.08c.15.15.16.29.2.29s.1-.16,0-.41a.73.73,0,0,0-.4-.31.87.87,0,0,0-.68.06,1.65,1.65,0,0,0-.82,1.42,4.07,4.07,0,0,0,.25,2,3.09,3.09,0,0,0,2.65,2.2,1.26,1.26,0,0,0,1-.54C155.29,128,155.27,127.81,155.25,127.8Z" style="fill:#6f4439"></path><path d="M175.63,93.29a14.69,14.69,0,0,0-4.37-2.78,15.78,15.78,0,0,0-4.26-.78c-3.8-.32-7.89-.26-11.08,1.84a19.06,19.06,0,0,0-4.27,4.37,20.77,20.77,0,0,0-2.6,3.91,15.57,15.57,0,0,0-1.15,4,21.26,21.26,0,0,0,.4,9.75c.94,3.14-1.22,6.29,1.51,8.1.21.14,4.53,0,4.78,0,.6,0,1-.77.75-1.33a2.22,2.22,0,0,0-1.34-1.11,1.67,1.67,0,0,0,.65-2.2,4.49,4.49,0,0,0-1.8-1.76.67.67,0,0,1-.25-.22c-.13-.26.11-.55.29-.77a2.31,2.31,0,0,0-1-3.48,3.11,3.11,0,0,0,.6-4.43c-.17-.2-.39-.42-.36-.68s.26-.43.47-.58a4,4,0,0,0,.9-5.09,9.88,9.88,0,0,0,2.63-1.12,3.36,3.36,0,0,0,1.53-2.32,3.73,3.73,0,0,0,6-1.91,9.61,9.61,0,0,0,4.15-2.35,4.63,4.63,0,0,0,3.95,2,.81.81,0,0,1,1.12.65c.29.92,1.05,1.07,1.82,1.64s2.07,1.35,2.84.78a4,4,0,0,0,3.32,2.71l-.44-1A18.34,18.34,0,0,0,175.63,93.29Z" style="fill:#263238"></path><path d="M151.28,89.88s.13-.16.39-.43a4.47,4.47,0,0,1,1.25-.93,4.32,4.32,0,0,1,2.24-.47,4.49,4.49,0,0,1,2.57,1,3.4,3.4,0,0,1,.59.61.87.87,0,0,1,.21.7l-.08.28.23-.17a2.85,2.85,0,0,1,2.09-.5,2.77,2.77,0,0,1,1.53.79,2.9,2.9,0,0,1,.64,1,2.8,2.8,0,0,0,.16.4.87.87,0,0,0,0-.11,2.38,2.38,0,0,0-.08-.31,2.87,2.87,0,0,0-2.22-1.91,3,3,0,0,0-2.23.5l.16.11a1,1,0,0,0-.23-.87,4.23,4.23,0,0,0-.62-.65,4.65,4.65,0,0,0-2.7-1.07,4.39,4.39,0,0,0-2.31.53,4.22,4.22,0,0,0-1.25,1,2.36,2.36,0,0,0-.26.35C151.29,89.83,151.27,89.88,151.28,89.88Z" style="fill:#455a64"></path><path d="M143.53,101.15a1,1,0,0,0,.31.14,4.4,4.4,0,0,0,.92.24,3.24,3.24,0,0,0,1.43-.08,2.47,2.47,0,0,0,1.42-1.08l-.15,0,.29.2.31.17a4.13,4.13,0,0,0,2,.41,4.29,4.29,0,0,0,1.61-.37,4.12,4.12,0,0,0,.94-.61,3.16,3.16,0,0,0,.27-.3,6.46,6.46,0,0,1-1.26.77A4.23,4.23,0,0,1,150,101a4.09,4.09,0,0,1-1.89-.41,2.69,2.69,0,0,1-.29-.16l-.27-.18-.1-.07-.06.1a2.31,2.31,0,0,1-1.3,1,3.45,3.45,0,0,1-1.35.13C144,101.31,143.54,101.11,143.53,101.15Z" style="fill:#455a64"></path><path d="M142.32,108.39l.06.11a1,1,0,0,0,.26.26,1.83,1.83,0,0,0,1.3.31,3.56,3.56,0,0,0,1.77-.88c.28-.24.58-.48.87-.78a1.83,1.83,0,0,0,.59-1.14v-.12l-.13.11a8,8,0,0,0,2.33.44,3.62,3.62,0,0,0,1.89-.48,2.61,2.61,0,0,0,.93-.92,1.55,1.55,0,0,0,.14-.32.39.39,0,0,0,0-.12,4.1,4.1,0,0,0-.24.4,2.74,2.74,0,0,1-.94.84,3.5,3.5,0,0,1-1.8.41,8.21,8.21,0,0,1-2.28-.45l-.13,0v.24a1.64,1.64,0,0,1-.53,1,9.79,9.79,0,0,1-.84.77,3.41,3.41,0,0,1-1.67.88,1.83,1.83,0,0,1-1.23-.22A3.77,3.77,0,0,1,142.32,108.39Z" style="fill:#455a64"></path><path d="M126.93,87.88s.11,0,.32,0a1.5,1.5,0,0,1,.89.2,2,2,0,0,1,.94,1,6.08,6.08,0,0,1,.41,1.85V91l.11,0a3.92,3.92,0,0,1,2.48-.14,3,3,0,0,1,2.06,1.81,2.83,2.83,0,0,1-.15,2.5l-.15.25.27-.11a3.58,3.58,0,0,1,2.85.18,3.4,3.4,0,0,1,1.55,1.68,3.76,3.76,0,0,1,.31,1.5c0,.36-.05.56,0,.56a.63.63,0,0,0,0-.14,4.12,4.12,0,0,0,.06-.42,3.68,3.68,0,0,0-.26-1.55,3.49,3.49,0,0,0-1.59-1.78,3.68,3.68,0,0,0-3-.21l.12.14a3,3,0,0,0,.17-2.68,3.12,3.12,0,0,0-.89-1.25,3.58,3.58,0,0,0-1.3-.67,4.1,4.1,0,0,0-2.61.17l.12.07a5.89,5.89,0,0,0-.45-1.89,2.16,2.16,0,0,0-1-1.08,1.55,1.55,0,0,0-.94-.17,1.64,1.64,0,0,0-.25.07Z" style="fill:#455a64"></path><path d="M120.55,106.11s0,0,.13,0a2.91,2.91,0,0,0,.38,0,4.88,4.88,0,0,0,1.41-.18,5.41,5.41,0,0,0,1.94-1,5.2,5.2,0,0,0,1.65-2.23l-.15,0a4.37,4.37,0,0,0,3.64.92,3.32,3.32,0,0,0,2.58-2.89l-.17,0a2.73,2.73,0,0,0,1.18.81,3.65,3.65,0,0,0,1.28.21,5,5,0,0,0,2-.51,10.06,10.06,0,0,0,1.19-.68,2,2,0,0,0,.4-.28,3.32,3.32,0,0,0-.43.23,11.6,11.6,0,0,1-1.21.62,5.12,5.12,0,0,1-2,.46,3,3,0,0,1-2.31-1l-.16-.19v.24a3.15,3.15,0,0,1-2.44,2.71,4.2,4.2,0,0,1-3.47-.88l-.11-.08,0,.13a5,5,0,0,1-1.58,2.16,5.58,5.58,0,0,1-1.87,1A6.64,6.64,0,0,1,120.55,106.11Z" style="fill:#455a64"></path><path d="M130.8,113.06s0,0,.12.09a.69.69,0,0,0,.42,0,3.16,3.16,0,0,0,1.34-.76,3.74,3.74,0,0,0,1.14-2,3.82,3.82,0,0,0-.47-2.74v0l-.1.16a4.47,4.47,0,0,0,2.72-.6,5,5,0,0,0,1.65-1.56,5.68,5.68,0,0,0,.66-1.38,2.25,2.25,0,0,0,.13-.55,8.82,8.82,0,0,1-.91,1.84,5.06,5.06,0,0,1-1.63,1.49,4.32,4.32,0,0,1-2.6.55l-.2,0,.1.18v0a3.7,3.7,0,0,1,.46,2.6,3.66,3.66,0,0,1-1,1.9,3.34,3.34,0,0,1-1.26.79A.69.69,0,0,1,130.8,113.06Z" style="fill:#455a64"></path><path d="M141.12,82.93a5.57,5.57,0,0,1,1,1.87,4.77,4.77,0,0,1,.12,2.29,4.67,4.67,0,0,1-1.33,2.44,4.48,4.48,0,0,1-1.33.92l-.12.06.08.1a6.05,6.05,0,0,1,1,2,5.93,5.93,0,0,1,.24,1.77,4.27,4.27,0,0,1-.06.67.49.49,0,0,1-.24.39.34.34,0,0,1-.29,0c-.06,0-.08-.07-.09-.06a.2.2,0,0,0,.07.09.39.39,0,0,0,.34,0,.56.56,0,0,0,.31-.42,4.59,4.59,0,0,0,.09-.7,6.2,6.2,0,0,0-.2-1.82,5.84,5.84,0,0,0-1-2.07l0,.15a5,5,0,0,0,1.4-1,4.93,4.93,0,0,0,1.37-2.56,4.75,4.75,0,0,0-.18-2.36,4.61,4.61,0,0,0-.75-1.41,2.58,2.58,0,0,0-.29-.32C141.17,83,141.13,82.92,141.12,82.93Z" style="fill:#455a64"></path><path d="M171.43,120.94c.16-.11.86,1,2.32,1.22s2.58-.66,2.69-.51-.13.39-.63.71a3.26,3.26,0,0,1-2.21.49,2.9,2.9,0,0,1-1.87-1.06C171.39,121.34,171.35,121,171.43,120.94Z" style="fill:#263238"></path><path d="M179,95.16s-3.33-5-4.11-5.12c-13.69,3.34-26.73,10.54-31.14,27.68a12,12,0,0,0,5.23,5.9C151,107.18,164.12,99.7,179,95.16Z" style="fill:#FF725E"></path><path d="M166.31,271.74c0,1.09-.87,54-1.52,56.4s-5.35,18.29-5.94,30.05,0,27.87,0,27.87l14.87,2.4s17.2-68.16,19.81-87.11a281.21,281.21,0,0,0,2.83-29.61Z" style="fill:#ae7461"></path><polygon points="158.48 369.04 157.51 391.3 163.16 399.89 171.1 399.57 178.11 372.11 158.48 369.04" style="fill:#e0e0e0"></polygon><path d="M172.07,400.07l-.69.92s11,18.18,9,21.25l-31.17-23.9,8.24-9.88A22.84,22.84,0,0,0,172.07,400.07Z" style="fill:#455a64"></path><g style="opacity:0.6000000000000001"><path d="M158.09,394.14a1.59,1.59,0,0,0-2,.75,1.55,1.55,0,0,0,.77,2,1.66,1.66,0,0,0,2.09-.81,1.61,1.61,0,0,0-1-2" style="fill:#fff"></path></g><g style="opacity:0.6000000000000001"><path d="M149.19,398.34l2-2.38,29.15,23.78s.93,1.66,0,2.5Z" style="fill:#fff"></path></g><path d="M171.42,401.16c-.12.14-.93-.37-2-.47s-2,.23-2.09.07.8-.86,2.15-.72S171.56,401,171.42,401.16Z" style="fill:#263238"></path><path d="M173.67,405c-.07.18-.93-.08-1.93.16s-1.66.79-1.81.67.41-1,1.66-1.31S173.78,404.85,173.67,405Z" style="fill:#263238"></path><path d="M172.58,410.27c-.16-.08.2-1,1.22-1.51s2-.3,1.95-.12-.81.27-1.64.71S172.74,410.37,172.58,410.27Z" style="fill:#263238"></path><path d="M176.75,376.82a81.05,81.05,0,0,1-9-1.54,81.52,81.52,0,0,1-8.92-2,79.9,79.9,0,0,1,9,1.53A80.74,80.74,0,0,1,176.75,376.82Z" style="fill:#455a64"></path><path d="M176,378.36a75.79,75.79,0,0,1-8.63-1.51,72.79,72.79,0,0,1-8.54-2,75.34,75.34,0,0,1,8.64,1.51A72.92,72.92,0,0,1,176,378.36Z" style="fill:#455a64"></path><path d="M127.81,253.18s17.51-21.14,23-27.2,19.13-17.09,19.13-17.09l32,15.43v13.23s-1.62,16-2.16,26.79-1.56,21-1.56,21-7.49,4-23.34-3.16S130.82,266.13,127.81,253.18Z" style="fill:#263238"></path><path d="M175.21,247.46a33.55,33.55,0,0,1-1.57,3.45c-1,2.1-2.32,5-3.78,8.3s-2.84,6.18-3.92,8.26c-.55,1-1,1.86-1.34,2.43a4.27,4.27,0,0,1-.56.85,32.42,32.42,0,0,1,1.57-3.45c1-2.11,2.32-5.05,3.78-8.3s2.83-6.18,3.92-8.26c.54-1,1-1.87,1.33-2.43A4.12,4.12,0,0,1,175.21,247.46Z" style="fill:#455a64"></path><path d="M173.56,275.08c-.14,0,1.13-5.68,2.82-12.6S179.57,250,179.71,250s-1.12,5.68-2.82,12.6S173.7,275.11,173.56,275.08Z" style="fill:#455a64"></path><path d="M182.28,276.41c-.14,0,.58-5.2,1.61-11.56s2-11.49,2.13-11.47-.58,5.2-1.61,11.56S182.42,276.44,182.28,276.41Z" style="fill:#455a64"></path><path d="M190.14,279.8c-.14,0,.4-5.59,1.22-12.45S193,255,193.09,255s-.4,5.58-1.21,12.44S190.28,279.82,190.14,279.8Z" style="fill:#455a64"></path><path d="M154.76,267.39c-.12-.08,2.57-4.82,6-10.6s6.33-10.41,6.46-10.33-2.57,4.81-6,10.6S154.89,267.46,154.76,267.39Z" style="fill:#455a64"></path><path d="M146.49,265.43a5.49,5.49,0,0,1,.61-.94l1.79-2.44c1.51-2.07,3.57-4.94,5.76-8.17s4.08-6.22,5.43-8.39l1.6-2.57a5.15,5.15,0,0,1,.65-.92,4.83,4.83,0,0,1-.47,1c-.33.64-.83,1.55-1.47,2.66-1.27,2.22-3.12,5.25-5.31,8.49s-4.31,6.09-5.9,8.1c-.79,1-1.45,1.81-1.92,2.35A4.83,4.83,0,0,1,146.49,265.43Z" style="fill:#455a64"></path><path d="M140.65,259.89a3.62,3.62,0,0,1,.5-.88c.35-.54.88-1.31,1.54-2.25,1.33-1.88,3.24-4.43,5.45-7.16s4.3-5.13,5.86-6.83c.78-.85,1.42-1.53,1.87-2s.72-.7.75-.67a28,28,0,0,1-2.35,2.89c-1.48,1.76-3.52,4.19-5.73,6.92s-4.15,5.23-5.55,7.05A32.27,32.27,0,0,1,140.65,259.89Z" style="fill:#455a64"></path><path d="M149.51,237.81c.1.09-3.38,4.05-7.78,8.82s-8,8.57-8.15,8.48,3.37-4.05,7.77-8.83S149.4,237.71,149.51,237.81Z" style="fill:#455a64"></path><path d="M195.55,226.8l5.33,7.55a19.36,19.36,0,0,0,15.39-3.41Z" style="fill:#FF725E"></path><g style="opacity:0.30000000000000004"><path d="M195.55,226.8l5.33,7.55a19.36,19.36,0,0,0,15.39-3.41Z"></path></g><path d="M163.57,145.21a22.69,22.69,0,0,0-4.23,20.11c1.37,5.46,8,39.69,8,39.69l-8.72,12.12s33.43,13.81,45.55,13.81h12.13S208,216.61,208,205.86s-1.44-25.91-1.38-30.6c.13-9.72-5-11.87-8.82-17.23s-11-16.46-11-16.46-14.52-4.38-19.13-.46S163.57,145.21,163.57,145.21Z" style="fill:#FF725E"></path><path d="M195.19,181c-.06-.07.63-.66,1.49-1.81a13.85,13.85,0,0,0,2.57-10.59c-.24-1.42-.58-2.26-.5-2.29a5.66,5.66,0,0,1,.86,2.22A12.67,12.67,0,0,1,197,179.38,6,6,0,0,1,195.19,181Z" style="fill:#263238"></path><path d="M160.73,152.75c3.93-8.89,15-18.78,21.51-24s49.32-48.83,49.32-48.83l7.33,9.32s-20.45,26.83-26.32,33.65c-4.86,5.64-12.41,11.32-19.25,21.5-3.86,5.76-10.08,14.13-10.08,14.13C173,168.52,159.76,161.81,160.73,152.75Z" style="fill:#ae7461"></path><path d="M193,118.59a5.61,5.61,0,0,1-.84,1c-.56.61-1.39,1.47-2.45,2.51-2.1,2.09-5.09,4.88-8.45,7.9l-8.61,7.71L170,140a5.38,5.38,0,0,1-1,.81,7.09,7.09,0,0,1,.86-1c.58-.59,1.43-1.43,2.5-2.46,2.13-2,5.15-4.81,8.51-7.83s6.39-5.76,8.55-7.77l2.56-2.39A6.85,6.85,0,0,1,193,118.59Z" style="fill:#6f4439"></path><path d="M230.45,81l3.26-3.66s2-5.36,4.16-7.78,7.24-5.8,7.24-5.8a2.41,2.41,0,0,1,0,3.46,28.46,28.46,0,0,0-3.54,4.6h5.2c.38,0,6.86-1,6.86-1l3.55-5s1.2-.38,1.2,1.66a14.4,14.4,0,0,1-.9,4.37s.83,1.74.3,2.87-5.43,9.43-6.71,10.18-10.42,2.23-10.42,2.23L237.57,91Z" style="fill:#ae7461"></path><path d="M257.69,71.93c.06,0,0,.7-.77,1.42a7.53,7.53,0,0,1-3.54,1.52,18.14,18.14,0,0,1-5.33.78c0-.14,2.34-.57,5.21-1.28a8.85,8.85,0,0,0,3.42-1.3A6.54,6.54,0,0,0,257.69,71.93Z" style="fill:#6f4439"></path><path d="M255.45,73.91a12.64,12.64,0,0,1-3.1,2.77,12.59,12.59,0,0,1-3.62,2A25.2,25.2,0,0,1,252,76.26,24.76,24.76,0,0,1,255.45,73.91Z" style="fill:#6f4439"></path><path d="M257.11,76.71a18.66,18.66,0,0,1-3.3,3,18.62,18.62,0,0,1-3.62,2.55,19.61,19.61,0,0,1,3.3-3A19.54,19.54,0,0,1,257.11,76.71Z" style="fill:#6f4439"></path><path d="M232.76,51.42a7,7,0,1,1-7-7A7,7,0,0,1,232.76,51.42Z" style="fill:#FF725E"></path></g></svg>